<svg width="960" height="180" viewBox="0 0 960 180" fill="none" xmlns="http://www.w3.org/2000/svg">
<path d="M335.25 10.45H350.6V13.3H335.25V10.45ZM335.25 16.2H350.65V19H335.25V16.2ZM335.2 22.1H350.75V24.925H335.2V22.1ZM333.525 10.45H336.5V19.45C336.5 23.425 336 29.05 332.925 32.4C332.45 31.825 331.225 30.825 330.575 30.45C333.3 27.425 333.525 22.95 333.525 19.425V10.45ZM349.55 10.45H352.525V28.725C352.525 30.325 352.175 31.125 351.175 31.6C350.125 32.075 348.625 32.125 346.35 32.1C346.225 31.3 345.775 30 345.375 29.225C346.8 29.325 348.45 29.3 348.9 29.3C349.375 29.275 349.55 29.125 349.55 28.7V10.45ZM341.225 11.575H344.275V31.95H341.225V11.575ZM358.6 12.525H361.75V18.225C361.75 22.375 361.225 28.575 358.275 32.45C357.725 31.9 356.375 30.95 355.625 30.625C358.35 27.05 358.6 21.875 358.6 18.225V12.525ZM365.475 9.375L368.45 8.625C369 9.725 369.6 11.15 369.9 12.1L366.8 13C366.55 12.025 365.95 10.5 365.475 9.375ZM360.575 12.525H376.65V23.375H373.575V15.325H360.575V12.525ZM360.625 19.275H375.125V22.05H360.625V19.275ZM386.6 16.075V17.9H398.4V16.075H386.6ZM386.6 12.05V13.825H398.4V12.05H386.6ZM383.6 9.625H401.525V20.3H383.6V9.625ZM395.925 18.725C397.575 20.975 400.825 22.825 404.325 23.7C403.65 24.3 402.75 25.475 402.325 26.25C398.65 25.05 395.4 22.65 393.4 19.65L395.925 18.725ZM389.1 18.7L391.75 19.725C389.725 22.625 386.35 25.075 382.8 26.35C382.35 25.6 381.45 24.475 380.8 23.875C384.175 22.925 387.45 20.95 389.1 18.7ZM387.325 23.275H390.425V25C390.425 27.4 389.7 30.6 384.7 32.425C384.3 31.675 383.3 30.55 382.65 29.975C386.825 28.625 387.325 26.5 387.325 24.9V23.275ZM390.975 10.85H394V19.1H390.975V10.85ZM394.95 23.325H398.075V32.175H394.95V23.325ZM414 19.8H420.425V22.15H414V19.8ZM414 24H420.45V26.35H414V24ZM409.15 28.225H426.025V30.975H409.15V28.225ZM407.275 15.3H427.7V32.25H424.65V18.05H410.15V32.25H407.275V15.3ZM412.725 17.125H415.4V29.45H412.725V17.125ZM419.25 17.125H421.95V29.425H419.25V17.125ZM415.55 11.5L419.1 12.25C418.5 14.1 417.95 16.05 417.45 17.35L414.7 16.625C415.05 15.175 415.45 13.075 415.55 11.5ZM406.225 10.2H428.825V13.05H406.225V10.2ZM440.875 8.775H443.925V29.4C443.925 30.875 443.55 31.475 442.6 31.9C441.625 32.275 440.275 32.325 438.15 32.325C438 31.625 437.525 30.575 437.15 29.975C438.35 30.025 439.825 30 440.25 30C440.725 29.975 440.875 29.825 440.875 29.4V8.775ZM431.5 10.4H453.5V12.775H431.5V10.4ZM436.925 15.675V16.875H447.975V15.675H436.925ZM434.075 13.775H451.05V18.775H434.075V13.775ZM433.45 19.875H451.475V29.65H448.425V21.925H433.45V19.875ZM430.925 22.975H454.075V25.25H430.925V22.975ZM433.25 26.425H450.05V28.6H433.25V26.425ZM469.675 9.1H472.7V32.225H469.675V9.1ZM465.425 10.15L468.3 10.75C467.6 14.125 466.4 17.625 465.075 19.825C464.475 19.375 463.175 18.7 462.45 18.375C463.8 16.4 464.85 13.225 465.425 10.15ZM466.375 13.625H477.95V16.55H465.65L466.375 13.625ZM462.9 20.875H479.15V23.825H462.9V20.875ZM461.05 8.875L463.875 9.75C462.275 14 459.725 18.5 457.05 21.375C456.775 20.65 455.95 19 455.45 18.275C457.675 16 459.8 12.45 461.05 8.875ZM458.575 15.775L461.425 12.925V12.95V32.225H458.575V15.775ZM494.85 8.75H497.875V12.15H494.85V8.75ZM489.25 11.15H503.5V13.675H489.25V11.15ZM488.475 16.85H504.125V19.4H488.475V16.85ZM491.525 13.75L494.1 13.25C494.55 14.4 494.95 15.875 495.025 16.825L492.3 17.425C492.275 16.475 491.95 14.925 491.525 13.75ZM498.575 13.275L501.475 13.575C500.975 15 500.475 16.375 500.025 17.35L497.5 17C497.9 15.95 498.35 14.375 498.575 13.275ZM488.675 21.175H504.075V23.7H488.675V21.175ZM493.85 18.775L496.85 19.35C495.5 22.325 493.75 25.85 492.425 28.2L489.85 27.375C491.1 25.15 492.775 21.55 493.85 18.775ZM491.625 27.4L493.375 25.425C496.85 26.45 501.45 28.375 503.825 30.025L501.9 32.25C499.725 30.625 495.175 28.55 491.625 27.4ZM498.575 23.025L501.45 23.325C500.15 29.225 496.825 31.275 489 32.3C488.775 31.475 488.325 30.45 487.9 29.875C494.75 29.325 497.525 27.675 498.575 23.025ZM480.5 21.55C482.6 21.125 485.725 20.35 488.7 19.6L489.05 22.25C486.325 23.05 483.425 23.85 481.125 24.475L480.5 21.55ZM481 13.525H488.725V16.275H481V13.525ZM483.95 8.8H486.825V28.875C486.825 30.35 486.575 31.15 485.75 31.625C484.925 32.125 483.725 32.225 482.025 32.225C481.925 31.425 481.55 30.125 481.175 29.3C482.15 29.35 483.175 29.35 483.5 29.35C483.825 29.35 483.95 29.225 483.95 28.875V8.8ZM507.625 11.225H527.4V31.725H524.1V14.275H510.775V31.75H507.625V11.225ZM509.125 26.625H526.15V29.725H509.125V26.625ZM531.6 25.775C531.45 25.25 531 23.95 530.725 23.25C531.35 23.1 531.875 22.525 532.65 21.625C533.475 20.725 535.975 17.275 537.55 13.925L539.9 15.375C538.125 18.625 535.75 21.95 533.4 24.35V24.425C533.4 24.425 531.6 25.275 531.6 25.775ZM531.6 25.775L531.425 23.475L532.65 22.6L539.125 21.5C539.025 22.275 539 23.4 539.025 24C533.225 25.125 532.2 25.425 531.6 25.775ZM531.425 19.675C531.275 19.1 530.8 17.7 530.475 16.95C530.975 16.8 531.4 16.275 531.9 15.45C532.45 14.65 534.025 11.5 534.825 8.575L537.625 9.875C536.5 12.775 534.725 15.95 533.025 18.15V18.25C533.025 18.25 531.425 19.15 531.425 19.675ZM531.425 19.65L531.35 17.625L532.525 16.85L536.625 16.55C536.475 17.25 536.35 18.275 536.325 18.85C532.675 19.25 531.9 19.425 531.425 19.65ZM530.775 28.125C532.85 27.75 536.025 27.075 539.1 26.375L539.375 28.8C536.575 29.55 533.6 30.3 531.275 30.875L530.775 28.125ZM543.1 16.375H553.925V18.875H543.1V16.375ZM547.125 8.975H549.575V28.075H547.125V8.975ZM547.025 17.25L548.625 17.9C547.7 20.975 546.075 24.6 544.225 26.525C544 25.775 543.425 24.675 543.025 24C544.65 22.45 546.25 19.6 547.025 17.25ZM551.475 10.575L553.8 11.15C553.125 12.725 552.325 14.525 551.7 15.7L550 15.15C550.525 13.9 551.175 11.95 551.475 10.575ZM543.275 11.1L545.175 10.65C545.675 12.05 546.225 13.875 546.475 15.075L544.475 15.625C544.275 14.4 543.725 12.525 543.275 11.1ZM549.5 18.35C550.375 19.25 553.375 23.05 554.05 23.975L552.225 25.925C551.425 24.225 549.2 20.875 548.15 19.4L549.5 18.35ZM539.9 9.675H542.625V28.7H554.2V31.275H539.9V9.675ZM565.875 14.4H568.875V29.025C568.875 30.575 568.525 31.325 567.475 31.8C566.425 32.225 564.9 32.3 562.775 32.3C562.625 31.475 562.125 30.25 561.7 29.475C563.175 29.55 564.8 29.525 565.25 29.525C565.7 29.5 565.875 29.375 565.875 28.975V14.4ZM559.675 10.1H573.175V12.8H559.675V10.1ZM572.15 10.1H572.925L573.55 9.95L575.575 11.425C573.675 13.475 570.875 15.55 568.075 16.825C567.7 16.25 566.875 15.4 566.4 14.925C568.675 13.9 571.1 12.025 572.15 10.675V10.1ZM563.4 17.25H571.55V19.6H563.4V17.25ZM556.3 15.475H561.65V18.175H556.3V15.475ZM562.775 21.175H572.125V23.55H562.775V21.175ZM561.55 25.175H573.375V27.625H561.55V25.175ZM576.825 15.3L579.2 17.175C577.775 18.875 576.05 20.825 574.725 22.075L572.85 20.45C574.125 19.15 575.85 16.975 576.825 15.3ZM574.1 14.85C574.825 20.25 576.4 25.3 579.5 27.85C578.8 28.425 577.775 29.575 577.3 30.425C573.875 27.25 572.325 21.725 571.425 15.275L574.1 14.85ZM560.5 15.475H561.05L561.575 15.375L563.425 16.05C562.55 22.45 560.425 27.625 557.625 30.35C557.15 29.675 556.1 28.5 555.45 28.05C558.075 25.675 559.85 21.25 560.5 16.1V15.475ZM581.625 25.775C581.475 25.175 580.975 23.7 580.625 22.9C581.325 22.75 581.875 22.2 582.725 21.3C583.65 20.425 586.35 17 588.05 13.65L590.725 15.375C588.725 18.6 586.1 21.875 583.55 24.225V24.3C583.55 24.3 581.625 25.225 581.625 25.775ZM581.625 25.775L581.45 23.325L582.825 22.4L590.125 21.275C590.1 22.075 590.2 23.25 590.3 23.875C583.475 25.1 582.375 25.375 581.625 25.775ZM581.425 19.55C581.25 18.925 580.75 17.45 580.375 16.625C580.925 16.475 581.375 15.975 581.925 15.2C582.475 14.45 584.175 11.55 585.1 8.75L588.175 10C586.9 12.85 585 15.875 583.275 17.925V18C583.275 18 581.425 18.975 581.425 19.55ZM581.425 19.55L581.35 17.4L582.65 16.55L587.975 16.175C587.8 16.9 587.675 18.025 587.65 18.625C582.925 19.1 581.975 19.275 581.425 19.55ZM580.625 28.175C583.1 27.8 586.825 27.15 590.3 26.475L590.55 29.275C587.3 30 583.8 30.675 581.1 31.25L580.625 28.175ZM590.275 11.825H603.875V14.725H590.275V11.825ZM590.925 17.475H603.3V20.325H590.925V17.475ZM593.15 28.45H601.25V31.15H593.15V28.45ZM595.525 8.75H598.675V18.9H595.525V8.75ZM591.525 22.15H602.825V32.125H599.775V24.85H594.45V32.225H591.525V22.15ZM605.95 13.925H615.025V16.75H605.95V13.925ZM609.5 8.775H612.375V32.25H609.5V8.775ZM609.35 15.85L611.1 16.525C610.275 20.4 608.65 25.125 606.775 27.7C606.5 26.875 605.825 25.625 605.375 24.875C607.075 22.775 608.675 18.9 609.35 15.85ZM612.3 17.6C612.925 18.275 615.175 21.25 615.65 21.95L613.925 24.35C613.25 22.875 611.675 20.15 610.9 18.925L612.3 17.6ZM617.775 8.775L620.8 9.475C619.675 13.25 617.85 16.975 615.85 19.325C615.325 18.8 614.075 17.8 613.375 17.35C615.3 15.325 616.9 12.05 617.775 8.775ZM617.925 12.75H626.825V15.525H616.575L617.925 12.75ZM625.75 12.75H628.7C628.7 12.75 628.675 13.775 628.675 14.15C628.35 25.45 628.025 29.45 627.075 30.75C626.425 31.675 625.8 31.95 624.85 32.125C624 32.275 622.7 32.25 621.4 32.2C621.35 31.375 620.975 30.075 620.45 29.225C621.725 29.35 622.875 29.35 623.425 29.35C623.875 29.375 624.125 29.25 624.425 28.925C625.125 28.075 625.475 23.95 625.75 13.4V12.75ZM620.4 21.575L622.675 20.85C623.7 22.8 624.7 25.3 625 26.95L622.525 27.8C622.3 26.15 621.375 23.55 620.4 21.575ZM617.975 16.7L620.85 17.275C620.125 20.175 619.175 23.5 618.375 25.6L615.975 25.025C616.75 22.825 617.6 19.275 617.975 16.7ZM614.35 24.7C616.525 24.5 619.9 24.1 623.175 23.675L623.275 25.975C620.35 26.525 617.35 27.05 614.975 27.45L614.35 24.7Z" fill="black"/>
<path d="M215 50H25C22.2386 50 20 52.2386 20 55V65C20 67.7614 22.2386 70 25 70H215C217.761 70 220 67.7614 220 65V55C220 52.2386 217.761 50 215 50Z" fill="black" stroke="#808080" stroke-width="2"/>
<path d="M104.83 66H96.208V52.9131H104.83V54.46H97.9482V58.0459H104.83V59.5928H97.9482V64.4531H104.83V66ZM115.957 56.1826L111.984 66H110.323L106.377 56.1826H108.17L111.211 63.9961L114.226 56.1826H115.957ZM126.179 61.2627H118.945C118.945 61.8662 119.036 62.3936 119.218 62.8447C119.399 63.29 119.648 63.6562 119.965 63.9434C120.27 64.2246 120.63 64.4355 121.046 64.5762C121.468 64.7168 121.931 64.7871 122.435 64.7871C123.103 64.7871 123.773 64.6553 124.447 64.3916C125.127 64.1221 125.61 63.8584 125.897 63.6006H125.985V65.4023C125.429 65.6367 124.86 65.833 124.28 65.9912C123.7 66.1494 123.091 66.2285 122.452 66.2285C120.823 66.2285 119.552 65.7891 118.638 64.9102C117.724 64.0254 117.267 62.7715 117.267 61.1484C117.267 59.543 117.703 58.2686 118.576 57.3252C119.455 56.3818 120.609 55.9102 122.039 55.9102C123.363 55.9102 124.383 56.2969 125.098 57.0703C125.818 57.8438 126.179 58.9424 126.179 60.3662V61.2627ZM124.57 59.9971C124.564 59.1299 124.345 58.459 123.911 57.9844C123.483 57.5098 122.83 57.2725 121.951 57.2725C121.066 57.2725 120.36 57.5332 119.833 58.0547C119.312 58.5762 119.016 59.2236 118.945 59.9971H124.57ZM136.893 66H135.24V60.4102C135.24 59.959 135.214 59.5371 135.161 59.1445C135.108 58.7461 135.012 58.4355 134.871 58.2129C134.725 57.9668 134.514 57.7852 134.238 57.668C133.963 57.5449 133.605 57.4834 133.166 57.4834C132.715 57.4834 132.243 57.5947 131.751 57.8174C131.259 58.04 130.787 58.3242 130.336 58.6699V66H128.684V56.1826H130.336V57.2725C130.852 56.8447 131.385 56.5107 131.936 56.2705C132.486 56.0303 133.052 55.9102 133.632 55.9102C134.692 55.9102 135.501 56.2295 136.058 56.8682C136.614 57.5068 136.893 58.4268 136.893 59.6279V66ZM145.172 65.9121C144.861 65.9941 144.521 66.0615 144.152 66.1143C143.789 66.167 143.464 66.1934 143.177 66.1934C142.175 66.1934 141.413 65.9238 140.892 65.3848C140.37 64.8457 140.109 63.9814 140.109 62.792V57.5713H138.993V56.1826H140.109V53.3613H141.762V56.1826H145.172V57.5713H141.762V62.0449C141.762 62.5605 141.773 62.9648 141.797 63.2578C141.82 63.5449 141.902 63.8145 142.043 64.0664C142.172 64.3008 142.348 64.4736 142.57 64.585C142.799 64.6904 143.145 64.7432 143.607 64.7432C143.877 64.7432 144.158 64.7051 144.451 64.6289C144.744 64.5469 144.955 64.4795 145.084 64.4268H145.172V65.9121Z" fill="white"/>
<path d="M225 60H255" stroke="black" stroke-width="2" stroke-linecap="round" stroke-linejoin="round"/>
<path d="M455 50H265C262.239 50 260 52.2386 260 55V65C260 67.7614 262.239 70 265 70H455C457.761 70 460 67.7614 460 65V55C460 52.2386 457.761 50 455 50Z" fill="#DCDCDC" stroke="black" stroke-width="2"/>
<path d="M335.681 60.7441C335.681 61.6934 335.575 62.5225 335.364 63.2314C335.159 63.9346 334.819 64.5205 334.345 64.9893C333.894 65.4346 333.366 65.7598 332.763 65.9648C332.159 66.1699 331.456 66.2725 330.653 66.2725C329.833 66.2725 329.118 66.1641 328.509 65.9473C327.899 65.7305 327.387 65.4111 326.971 64.9893C326.496 64.5088 326.153 63.9287 325.942 63.249C325.737 62.5693 325.635 61.7344 325.635 60.7441V52.9131H327.375V60.832C327.375 61.541 327.422 62.1006 327.516 62.5107C327.615 62.9209 327.779 63.293 328.008 63.627C328.266 64.0078 328.614 64.2949 329.054 64.4883C329.499 64.6816 330.032 64.7783 330.653 64.7783C331.28 64.7783 331.813 64.6846 332.253 64.4971C332.692 64.3037 333.044 64.0137 333.308 63.627C333.536 63.293 333.697 62.9121 333.791 62.4844C333.891 62.0508 333.94 61.5146 333.94 60.876V52.9131H335.681V60.7441ZM343.626 66H338.458V64.6641H340.172V54.249H338.458V52.9131H343.626V54.249H341.912V64.6641H343.626V66ZM355.21 66H346.588V52.9131H355.21V54.46H348.328V58.0459H355.21V59.5928H348.328V64.4531H355.21V66ZM366.337 56.1826L362.364 66H360.703L356.757 56.1826H358.55L361.591 63.9961L364.605 56.1826H366.337ZM376.559 61.2627H369.325C369.325 61.8662 369.416 62.3936 369.598 62.8447C369.779 63.29 370.028 63.6562 370.345 63.9434C370.649 64.2246 371.01 64.4355 371.426 64.5762C371.848 64.7168 372.311 64.7871 372.814 64.7871C373.482 64.7871 374.153 64.6553 374.827 64.3916C375.507 64.1221 375.99 63.8584 376.277 63.6006H376.365V65.4023C375.809 65.6367 375.24 65.833 374.66 65.9912C374.08 66.1494 373.471 66.2285 372.832 66.2285C371.203 66.2285 369.932 65.7891 369.018 64.9102C368.104 64.0254 367.646 62.7715 367.646 61.1484C367.646 59.543 368.083 58.2686 368.956 57.3252C369.835 56.3818 370.989 55.9102 372.419 55.9102C373.743 55.9102 374.763 56.2969 375.478 57.0703C376.198 57.8438 376.559 58.9424 376.559 60.3662V61.2627ZM374.95 59.9971C374.944 59.1299 374.725 58.459 374.291 57.9844C373.863 57.5098 373.21 57.2725 372.331 57.2725C371.446 57.2725 370.74 57.5332 370.213 58.0547C369.691 58.5762 369.396 59.2236 369.325 59.9971H374.95ZM387.272 66H385.62V60.4102C385.62 59.959 385.594 59.5371 385.541 59.1445C385.488 58.7461 385.392 58.4355 385.251 58.2129C385.104 57.9668 384.894 57.7852 384.618 57.668C384.343 57.5449 383.985 57.4834 383.546 57.4834C383.095 57.4834 382.623 57.5947 382.131 57.8174C381.639 58.04 381.167 58.3242 380.716 58.6699V66H379.063V56.1826H380.716V57.2725C381.231 56.8447 381.765 56.5107 382.315 56.2705C382.866 56.0303 383.432 55.9102 384.012 55.9102C385.072 55.9102 385.881 56.2295 386.438 56.8682C386.994 57.5068 387.272 58.4268 387.272 59.6279V66ZM395.552 65.9121C395.241 65.9941 394.901 66.0615 394.532 66.1143C394.169 66.167 393.844 66.1934 393.557 66.1934C392.555 66.1934 391.793 65.9238 391.271 65.3848C390.75 64.8457 390.489 63.9814 390.489 62.792V57.5713H389.373V56.1826H390.489V53.3613H392.142V56.1826H395.552V57.5713H392.142V62.0449C392.142 62.5605 392.153 62.9648 392.177 63.2578C392.2 63.5449 392.282 63.8145 392.423 64.0664C392.552 64.3008 392.728 64.4736 392.95 64.585C393.179 64.6904 393.524 64.7432 393.987 64.7432C394.257 64.7432 394.538 64.7051 394.831 64.6289C395.124 64.5469 395.335 64.4795 395.464 64.4268H395.552V65.9121Z" fill="black"/>
<path d="M465 60H495" stroke="black" stroke-width="2" stroke-linecap="round" stroke-linejoin="round"/>
<path d="M695 50H505C502.239 50 500 52.2386 500 55V65C500 67.7614 502.239 70 505 70H695C697.761 70 700 67.7614 700 65V55C700 52.2386 697.761 50 695 50Z" fill="#DCDCDC" stroke="black" stroke-width="2"/>
<path d="M559.561 54.46H552.942V58.1514H558.629V59.6982H552.942V66H551.202V52.9131H559.561V54.46ZM569.352 61.0957C569.352 62.6953 568.941 63.958 568.121 64.8838C567.301 65.8096 566.202 66.2725 564.825 66.2725C563.437 66.2725 562.332 65.8096 561.512 64.8838C560.697 63.958 560.29 62.6953 560.29 61.0957C560.29 59.4961 560.697 58.2334 561.512 57.3076C562.332 56.376 563.437 55.9102 564.825 55.9102C566.202 55.9102 567.301 56.376 568.121 57.3076C568.941 58.2334 569.352 59.4961 569.352 61.0957ZM567.646 61.0957C567.646 59.8242 567.397 58.8809 566.899 58.2656C566.401 57.6445 565.71 57.334 564.825 57.334C563.929 57.334 563.231 57.6445 562.733 58.2656C562.241 58.8809 561.995 59.8242 561.995 61.0957C561.995 62.3262 562.244 63.2607 562.742 63.8994C563.24 64.5322 563.935 64.8486 564.825 64.8486C565.704 64.8486 566.393 64.5352 566.891 63.9082C567.395 63.2754 567.646 62.3379 567.646 61.0957ZM579.178 65.3848C578.627 65.6484 578.103 65.8535 577.604 66C577.112 66.1465 576.588 66.2197 576.031 66.2197C575.322 66.2197 574.672 66.1172 574.08 65.9121C573.488 65.7012 572.981 65.3848 572.56 64.9629C572.132 64.541 571.801 64.0078 571.566 63.3633C571.332 62.7188 571.215 61.9658 571.215 61.1045C571.215 59.499 571.654 58.2393 572.533 57.3252C573.418 56.4111 574.584 55.9541 576.031 55.9541C576.594 55.9541 577.145 56.0332 577.684 56.1914C578.229 56.3496 578.727 56.543 579.178 56.7715V58.6084H579.09C578.586 58.2158 578.064 57.9141 577.525 57.7031C576.992 57.4922 576.471 57.3867 575.961 57.3867C575.023 57.3867 574.282 57.7031 573.737 58.3359C573.198 58.9629 572.929 59.8857 572.929 61.1045C572.929 62.2881 573.192 63.1992 573.72 63.8379C574.253 64.4707 575 64.7871 575.961 64.7871C576.295 64.7871 576.635 64.7432 576.98 64.6553C577.326 64.5674 577.637 64.4531 577.912 64.3125C578.152 64.1895 578.378 64.0605 578.589 63.9258C578.8 63.7852 578.967 63.665 579.09 63.5654H579.178V65.3848ZM589.443 66H587.791V64.9102C587.234 65.3496 586.701 65.6865 586.191 65.9209C585.682 66.1553 585.119 66.2725 584.504 66.2725C583.473 66.2725 582.67 65.959 582.096 65.332C581.521 64.6992 581.234 63.7734 581.234 62.5547V56.1826H582.887V61.7725C582.887 62.2705 582.91 62.6982 582.957 63.0557C583.004 63.4072 583.104 63.709 583.256 63.9609C583.414 64.2188 583.619 64.4062 583.871 64.5234C584.123 64.6406 584.489 64.6992 584.97 64.6992C585.397 64.6992 585.863 64.5879 586.367 64.3652C586.877 64.1426 587.352 63.8584 587.791 63.5127V56.1826H589.443V66ZM599.709 63.1699C599.709 64.0664 599.337 64.8018 598.593 65.376C597.854 65.9502 596.844 66.2373 595.561 66.2373C594.834 66.2373 594.166 66.1523 593.557 65.9824C592.953 65.8066 592.446 65.6162 592.036 65.4111V63.5566H592.124C592.646 63.9492 593.226 64.2627 593.864 64.4971C594.503 64.7256 595.115 64.8398 595.701 64.8398C596.428 64.8398 596.996 64.7227 597.406 64.4883C597.816 64.2539 598.021 63.8848 598.021 63.3809C598.021 62.9941 597.91 62.7012 597.688 62.502C597.465 62.3027 597.037 62.1328 596.404 61.9922C596.17 61.9395 595.862 61.8779 595.481 61.8076C595.106 61.7373 594.764 61.6611 594.453 61.5791C593.592 61.3506 592.979 61.0166 592.616 60.5771C592.259 60.1318 592.08 59.5869 592.08 58.9424C592.08 58.5381 592.162 58.1572 592.326 57.7998C592.496 57.4424 592.751 57.123 593.091 56.8418C593.419 56.5664 593.835 56.3496 594.339 56.1914C594.849 56.0273 595.417 55.9453 596.044 55.9453C596.63 55.9453 597.222 56.0186 597.819 56.165C598.423 56.3057 598.924 56.4785 599.322 56.6836V58.4502H599.234C598.812 58.1396 598.3 57.8789 597.696 57.668C597.093 57.4512 596.501 57.3428 595.921 57.3428C595.317 57.3428 594.808 57.46 594.392 57.6943C593.976 57.9229 593.768 58.2656 593.768 58.7227C593.768 59.127 593.894 59.4316 594.146 59.6367C594.392 59.8418 594.79 60.0088 595.341 60.1377C595.646 60.208 595.985 60.2783 596.36 60.3486C596.741 60.4189 597.058 60.4834 597.31 60.542C598.077 60.7178 598.669 61.0195 599.085 61.4473C599.501 61.8809 599.709 62.4551 599.709 63.1699ZM610.836 66H602.214V52.9131H610.836V54.46H603.954V58.0459H610.836V59.5928H603.954V64.4531H610.836V66ZM621.963 56.1826L617.99 66H616.329L612.383 56.1826H614.176L617.217 63.9961L620.231 56.1826H621.963ZM632.185 61.2627H624.951C624.951 61.8662 625.042 62.3936 625.224 62.8447C625.405 63.29 625.654 63.6562 625.971 63.9434C626.275 64.2246 626.636 64.4355 627.052 64.5762C627.474 64.7168 627.937 64.7871 628.44 64.7871C629.108 64.7871 629.779 64.6553 630.453 64.3916C631.133 64.1221 631.616 63.8584 631.903 63.6006H631.991V65.4023C631.435 65.6367 630.866 65.833 630.286 65.9912C629.706 66.1494 629.097 66.2285 628.458 66.2285C626.829 66.2285 625.558 65.7891 624.644 64.9102C623.729 64.0254 623.272 62.7715 623.272 61.1484C623.272 59.543 623.709 58.2686 624.582 57.3252C625.461 56.3818 626.615 55.9102 628.045 55.9102C629.369 55.9102 630.389 56.2969 631.104 57.0703C631.824 57.8438 632.185 58.9424 632.185 60.3662V61.2627ZM630.576 59.9971C630.57 59.1299 630.351 58.459 629.917 57.9844C629.489 57.5098 628.836 57.2725 627.957 57.2725C627.072 57.2725 626.366 57.5332 625.839 58.0547C625.317 58.5762 625.021 59.2236 624.951 59.9971H630.576ZM642.898 66H641.246V60.4102C641.246 59.959 641.22 59.5371 641.167 59.1445C641.114 58.7461 641.018 58.4355 640.877 58.2129C640.73 57.9668 640.52 57.7852 640.244 57.668C639.969 57.5449 639.611 57.4834 639.172 57.4834C638.721 57.4834 638.249 57.5947 637.757 57.8174C637.265 58.04 636.793 58.3242 636.342 58.6699V66H634.689V56.1826H636.342V57.2725C636.857 56.8447 637.391 56.5107 637.941 56.2705C638.492 56.0303 639.058 55.9102 639.638 55.9102C640.698 55.9102 641.507 56.2295 642.063 56.8682C642.62 57.5068 642.898 58.4268 642.898 59.6279V66ZM651.178 65.9121C650.867 65.9941 650.527 66.0615 650.158 66.1143C649.795 66.167 649.47 66.1934 649.183 66.1934C648.181 66.1934 647.419 65.9238 646.897 65.3848C646.376 64.8457 646.115 63.9814 646.115 62.792V57.5713H644.999V56.1826H646.115V53.3613H647.768V56.1826H651.178V57.5713H647.768V62.0449C647.768 62.5605 647.779 62.9648 647.803 63.2578C647.826 63.5449 647.908 63.8145 648.049 64.0664C648.178 64.3008 648.354 64.4736 648.576 64.585C648.805 64.6904 649.15 64.7432 649.613 64.7432C649.883 64.7432 650.164 64.7051 650.457 64.6289C650.75 64.5469 650.961 64.4795 651.09 64.4268H651.178V65.9121Z" fill="black"/>
<path d="M465 60H470C473.333 60 475 61.6667 475 65V85C475 88.3333 476.667 90 480 90H495" stroke="black" stroke-width="2" stroke-linecap="round" stroke-linejoin="round"/>
<path d="M695 80H505C502.239 80 500 82.2386 500 85V95C500 97.7614 502.239 100 505 100H695C697.761 100 700 97.7614 700 95V85C700 82.2386 697.761 80 695 80Z" fill="#DCDCDC" stroke="black" stroke-width="2"/>
<path d="M559.561 96H557.82V84.7236L554.182 92.3965H553.145L549.532 84.7236V96H547.906V82.9131H550.279L553.769 90.1992L557.144 82.9131H559.561V96ZM571.312 91.0957C571.312 92.6953 570.901 93.958 570.081 94.8838C569.261 95.8096 568.162 96.2725 566.785 96.2725C565.396 96.2725 564.292 95.8096 563.472 94.8838C562.657 93.958 562.25 92.6953 562.25 91.0957C562.25 89.4961 562.657 88.2334 563.472 87.3076C564.292 86.376 565.396 85.9102 566.785 85.9102C568.162 85.9102 569.261 86.376 570.081 87.3076C570.901 88.2334 571.312 89.4961 571.312 91.0957ZM569.606 91.0957C569.606 89.8242 569.357 88.8809 568.859 88.2656C568.361 87.6445 567.67 87.334 566.785 87.334C565.889 87.334 565.191 87.6445 564.693 88.2656C564.201 88.8809 563.955 89.8242 563.955 91.0957C563.955 92.3262 564.204 93.2607 564.702 93.8994C565.2 94.5322 565.895 94.8486 566.785 94.8486C567.664 94.8486 568.353 94.5352 568.851 93.9082C569.354 93.2754 569.606 92.3379 569.606 91.0957ZM582.017 96H580.364V94.9102C579.808 95.3496 579.274 95.6865 578.765 95.9209C578.255 96.1553 577.692 96.2725 577.077 96.2725C576.046 96.2725 575.243 95.959 574.669 95.332C574.095 94.6992 573.808 93.7734 573.808 92.5547V86.1826H575.46V91.7725C575.46 92.2705 575.483 92.6982 575.53 93.0557C575.577 93.4072 575.677 93.709 575.829 93.9609C575.987 94.2188 576.192 94.4062 576.444 94.5234C576.696 94.6406 577.062 94.6992 577.543 94.6992C577.971 94.6992 578.437 94.5879 578.94 94.3652C579.45 94.1426 579.925 93.8584 580.364 93.5127V86.1826H582.017V96ZM592.282 93.1699C592.282 94.0664 591.91 94.8018 591.166 95.376C590.428 95.9502 589.417 96.2373 588.134 96.2373C587.407 96.2373 586.739 96.1523 586.13 95.9824C585.526 95.8066 585.02 95.6162 584.609 95.4111V93.5566H584.697C585.219 93.9492 585.799 94.2627 586.438 94.4971C587.076 94.7256 587.688 94.8398 588.274 94.8398C589.001 94.8398 589.569 94.7227 589.979 94.4883C590.39 94.2539 590.595 93.8848 590.595 93.3809C590.595 92.9941 590.483 92.7012 590.261 92.502C590.038 92.3027 589.61 92.1328 588.978 91.9922C588.743 91.9395 588.436 91.8779 588.055 91.8076C587.68 91.7373 587.337 91.6611 587.026 91.5791C586.165 91.3506 585.553 91.0166 585.189 90.5771C584.832 90.1318 584.653 89.5869 584.653 88.9424C584.653 88.5381 584.735 88.1572 584.899 87.7998C585.069 87.4424 585.324 87.123 585.664 86.8418C585.992 86.5664 586.408 86.3496 586.912 86.1914C587.422 86.0273 587.99 85.9453 588.617 85.9453C589.203 85.9453 589.795 86.0186 590.393 86.165C590.996 86.3057 591.497 86.4785 591.896 86.6836V88.4502H591.808C591.386 88.1396 590.873 87.8789 590.27 87.668C589.666 87.4512 589.074 87.3428 588.494 87.3428C587.891 87.3428 587.381 87.46 586.965 87.6943C586.549 87.9229 586.341 88.2656 586.341 88.7227C586.341 89.127 586.467 89.4316 586.719 89.6367C586.965 89.8418 587.363 90.0088 587.914 90.1377C588.219 90.208 588.559 90.2783 588.934 90.3486C589.314 90.4189 589.631 90.4834 589.883 90.542C590.65 90.7178 591.242 91.0195 591.658 91.4473C592.074 91.8809 592.282 92.4551 592.282 93.1699ZM602.873 91.2627H595.64C595.64 91.8662 595.73 92.3936 595.912 92.8447C596.094 93.29 596.343 93.6562 596.659 93.9434C596.964 94.2246 597.324 94.4355 597.74 94.5762C598.162 94.7168 598.625 94.7871 599.129 94.7871C599.797 94.7871 600.468 94.6553 601.142 94.3916C601.821 94.1221 602.305 93.8584 602.592 93.6006H602.68V95.4023C602.123 95.6367 601.555 95.833 600.975 95.9912C600.395 96.1494 599.785 96.2285 599.146 96.2285C597.518 96.2285 596.246 95.7891 595.332 94.9102C594.418 94.0254 593.961 92.7715 593.961 91.1484C593.961 89.543 594.397 88.2686 595.271 87.3252C596.149 86.3818 597.304 85.9102 598.733 85.9102C600.058 85.9102 601.077 86.2969 601.792 87.0703C602.513 87.8438 602.873 88.9424 602.873 90.3662V91.2627ZM601.265 89.9971C601.259 89.1299 601.039 88.459 600.605 87.9844C600.178 87.5098 599.524 87.2725 598.646 87.2725C597.761 87.2725 597.055 87.5332 596.527 88.0547C596.006 88.5762 595.71 89.2236 595.64 89.9971H601.265ZM614.132 96H605.51V82.9131H614.132V84.46H607.25V88.0459H614.132V89.5928H607.25V94.4531H614.132V96ZM625.259 86.1826L621.286 96H619.625L615.679 86.1826H617.472L620.513 93.9961L623.527 86.1826H625.259ZM635.48 91.2627H628.247C628.247 91.8662 628.338 92.3936 628.52 92.8447C628.701 93.29 628.95 93.6562 629.267 93.9434C629.571 94.2246 629.932 94.4355 630.348 94.5762C630.77 94.7168 631.232 94.7871 631.736 94.7871C632.404 94.7871 633.075 94.6553 633.749 94.3916C634.429 94.1221 634.912 93.8584 635.199 93.6006H635.287V95.4023C634.73 95.6367 634.162 95.833 633.582 95.9912C633.002 96.1494 632.393 96.2285 631.754 96.2285C630.125 96.2285 628.854 95.7891 627.939 94.9102C627.025 94.0254 626.568 92.7715 626.568 91.1484C626.568 89.543 627.005 88.2686 627.878 87.3252C628.757 86.3818 629.911 85.9102 631.341 85.9102C632.665 85.9102 633.685 86.2969 634.399 87.0703C635.12 87.8438 635.48 88.9424 635.48 90.3662V91.2627ZM633.872 89.9971C633.866 89.1299 633.646 88.459 633.213 87.9844C632.785 87.5098 632.132 87.2725 631.253 87.2725C630.368 87.2725 629.662 87.5332 629.135 88.0547C628.613 88.5762 628.317 89.2236 628.247 89.9971H633.872ZM646.194 96H644.542V90.4102C644.542 89.959 644.516 89.5371 644.463 89.1445C644.41 88.7461 644.313 88.4355 644.173 88.2129C644.026 87.9668 643.815 87.7852 643.54 87.668C643.265 87.5449 642.907 87.4834 642.468 87.4834C642.017 87.4834 641.545 87.5947 641.053 87.8174C640.561 88.04 640.089 88.3242 639.638 88.6699V96H637.985V86.1826H639.638V87.2725C640.153 86.8447 640.687 86.5107 641.237 86.2705C641.788 86.0303 642.354 85.9102 642.934 85.9102C643.994 85.9102 644.803 86.2295 645.359 86.8682C645.916 87.5068 646.194 88.4268 646.194 89.6279V96ZM654.474 95.9121C654.163 95.9941 653.823 96.0615 653.454 96.1143C653.091 96.167 652.766 96.1934 652.479 96.1934C651.477 96.1934 650.715 95.9238 650.193 95.3848C649.672 94.8457 649.411 93.9814 649.411 92.792V87.5713H648.295V86.1826H649.411V83.3613H651.063V86.1826H654.474V87.5713H651.063V92.0449C651.063 92.5605 651.075 92.9648 651.099 93.2578C651.122 93.5449 651.204 93.8145 651.345 94.0664C651.474 94.3008 651.649 94.4736 651.872 94.585C652.101 94.6904 652.446 94.7432 652.909 94.7432C653.179 94.7432 653.46 94.7051 653.753 94.6289C654.046 94.5469 654.257 94.4795 654.386 94.4268H654.474V95.9121Z" fill="black"/>
<path d="M705 90H735" stroke="black" stroke-width="2" stroke-linecap="round" stroke-linejoin="round"/>
<path d="M935 80H745C742.239 80 740 82.2386 740 85V95C740 97.7614 742.239 100 745 100H935C937.761 100 940 97.7614 940 95V85C940 82.2386 937.761 80 935 80Z" fill="#DCDCDC" stroke="black" stroke-width="2"/>
<path d="M804.148 82.9131L800.747 96H798.787L796.036 85.1367L793.347 96H791.431L787.968 82.9131H789.752L792.503 93.7939L795.21 82.9131H796.977L799.71 93.8994L802.443 82.9131H804.148ZM814.801 96H813.148V90.4102C813.148 89.959 813.122 89.5371 813.069 89.1445C813.017 88.7461 812.92 88.4355 812.779 88.2129C812.633 87.9668 812.422 87.7852 812.146 87.668C811.871 87.5449 811.514 87.4834 811.074 87.4834C810.623 87.4834 810.151 87.5947 809.659 87.8174C809.167 88.04 808.695 88.3242 808.244 88.6699V96H806.592V82.3242H808.244V87.2725C808.76 86.8447 809.293 86.5107 809.844 86.2705C810.395 86.0303 810.96 85.9102 811.54 85.9102C812.601 85.9102 813.409 86.2295 813.966 86.8682C814.522 87.5068 814.801 88.4268 814.801 89.6279V96ZM826.2 91.2627H818.967C818.967 91.8662 819.058 92.3936 819.239 92.8447C819.421 93.29 819.67 93.6562 819.986 93.9434C820.291 94.2246 820.651 94.4355 821.067 94.5762C821.489 94.7168 821.952 94.7871 822.456 94.7871C823.124 94.7871 823.795 94.6553 824.469 94.3916C825.148 94.1221 825.632 93.8584 825.919 93.6006H826.007V95.4023C825.45 95.6367 824.882 95.833 824.302 95.9912C823.722 96.1494 823.112 96.2285 822.474 96.2285C820.845 96.2285 819.573 95.7891 818.659 94.9102C817.745 94.0254 817.288 92.7715 817.288 91.1484C817.288 89.543 817.725 88.2686 818.598 87.3252C819.477 86.3818 820.631 85.9102 822.061 85.9102C823.385 85.9102 824.404 86.2969 825.119 87.0703C825.84 87.8438 826.2 88.9424 826.2 90.3662V91.2627ZM824.592 89.9971C824.586 89.1299 824.366 88.459 823.933 87.9844C823.505 87.5098 822.852 87.2725 821.973 87.2725C821.088 87.2725 820.382 87.5332 819.854 88.0547C819.333 88.5762 819.037 89.2236 818.967 89.9971H824.592ZM836.923 91.2627H829.689C829.689 91.8662 829.78 92.3936 829.962 92.8447C830.144 93.29 830.393 93.6562 830.709 93.9434C831.014 94.2246 831.374 94.4355 831.79 94.5762C832.212 94.7168 832.675 94.7871 833.179 94.7871C833.847 94.7871 834.518 94.6553 835.191 94.3916C835.871 94.1221 836.354 93.8584 836.642 93.6006H836.729V95.4023C836.173 95.6367 835.604 95.833 835.024 95.9912C834.444 96.1494 833.835 96.2285 833.196 96.2285C831.567 96.2285 830.296 95.7891 829.382 94.9102C828.468 94.0254 828.011 92.7715 828.011 91.1484C828.011 89.543 828.447 88.2686 829.32 87.3252C830.199 86.3818 831.354 85.9102 832.783 85.9102C834.107 85.9102 835.127 86.2969 835.842 87.0703C836.562 87.8438 836.923 88.9424 836.923 90.3662V91.2627ZM835.314 89.9971C835.309 89.1299 835.089 88.459 834.655 87.9844C834.228 87.5098 833.574 87.2725 832.695 87.2725C831.811 87.2725 831.104 87.5332 830.577 88.0547C830.056 88.5762 829.76 89.2236 829.689 89.9971H835.314ZM841.098 96H839.445V82.3242H841.098V96ZM853.121 96H844.499V82.9131H853.121V84.46H846.239V88.0459H853.121V89.5928H846.239V94.4531H853.121V96ZM864.248 86.1826L860.275 96H858.614L854.668 86.1826H856.461L859.502 93.9961L862.517 86.1826H864.248ZM874.47 91.2627H867.236C867.236 91.8662 867.327 92.3936 867.509 92.8447C867.69 93.29 867.939 93.6562 868.256 93.9434C868.561 94.2246 868.921 94.4355 869.337 94.5762C869.759 94.7168 870.222 94.7871 870.726 94.7871C871.394 94.7871 872.064 94.6553 872.738 94.3916C873.418 94.1221 873.901 93.8584 874.188 93.6006H874.276V95.4023C873.72 95.6367 873.151 95.833 872.571 95.9912C871.991 96.1494 871.382 96.2285 870.743 96.2285C869.114 96.2285 867.843 95.7891 866.929 94.9102C866.015 94.0254 865.558 92.7715 865.558 91.1484C865.558 89.543 865.994 88.2686 866.867 87.3252C867.746 86.3818 868.9 85.9102 870.33 85.9102C871.654 85.9102 872.674 86.2969 873.389 87.0703C874.109 87.8438 874.47 88.9424 874.47 90.3662V91.2627ZM872.861 89.9971C872.855 89.1299 872.636 88.459 872.202 87.9844C871.774 87.5098 871.121 87.2725 870.242 87.2725C869.357 87.2725 868.651 87.5332 868.124 88.0547C867.603 88.5762 867.307 89.2236 867.236 89.9971H872.861ZM885.184 96H883.531V90.4102C883.531 89.959 883.505 89.5371 883.452 89.1445C883.399 88.7461 883.303 88.4355 883.162 88.2129C883.016 87.9668 882.805 87.7852 882.529 87.668C882.254 87.5449 881.896 87.4834 881.457 87.4834C881.006 87.4834 880.534 87.5947 880.042 87.8174C879.55 88.04 879.078 88.3242 878.627 88.6699V96H876.975V86.1826H878.627V87.2725C879.143 86.8447 879.676 86.5107 880.227 86.2705C880.777 86.0303 881.343 85.9102 881.923 85.9102C882.983 85.9102 883.792 86.2295 884.349 86.8682C884.905 87.5068 885.184 88.4268 885.184 89.6279V96ZM893.463 95.9121C893.152 95.9941 892.812 96.0615 892.443 96.1143C892.08 96.167 891.755 96.1934 891.468 96.1934C890.466 96.1934 889.704 95.9238 889.183 95.3848C888.661 94.8457 888.4 93.9814 888.4 92.792V87.5713H887.284V86.1826H888.4V83.3613H890.053V86.1826H893.463V87.5713H890.053V92.0449C890.053 92.5605 890.064 92.9648 890.088 93.2578C890.111 93.5449 890.193 93.8145 890.334 94.0664C890.463 94.3008 890.639 94.4736 890.861 94.585C891.09 94.6904 891.436 94.7432 891.898 94.7432C892.168 94.7432 892.449 94.7051 892.742 94.6289C893.035 94.5469 893.246 94.4795 893.375 94.4268H893.463V95.9121Z" fill="black"/>
<path d="M465 60H470C473.333 60 475 61.6667 475 65V115C475 118.333 476.667 120 480 120H495" stroke="black" stroke-width="2" stroke-linecap="round" stroke-linejoin="round"/>
<path d="M695 110H505C502.239 110 500 112.239 500 115V125C500 127.761 502.239 130 505 130H695C697.761 130 700 127.761 700 125V115C700 112.239 697.761 110 695 110Z" fill="#DCDCDC" stroke="black" stroke-width="2"/>
<path d="M544.681 126H542.422L537.245 120.173L535.944 121.562V126H534.204V112.913H535.944V119.742L542.299 112.913H544.408L538.563 119.065L544.681 126ZM554.111 121.263H546.878C546.878 121.866 546.969 122.394 547.15 122.845C547.332 123.29 547.581 123.656 547.897 123.943C548.202 124.225 548.562 124.436 548.979 124.576C549.4 124.717 549.863 124.787 550.367 124.787C551.035 124.787 551.706 124.655 552.38 124.392C553.06 124.122 553.543 123.858 553.83 123.601H553.918V125.402C553.361 125.637 552.793 125.833 552.213 125.991C551.633 126.149 551.023 126.229 550.385 126.229C548.756 126.229 547.484 125.789 546.57 124.91C545.656 124.025 545.199 122.771 545.199 121.148C545.199 119.543 545.636 118.269 546.509 117.325C547.388 116.382 548.542 115.91 549.972 115.91C551.296 115.91 552.315 116.297 553.03 117.07C553.751 117.844 554.111 118.942 554.111 120.366V121.263ZM552.503 119.997C552.497 119.13 552.277 118.459 551.844 117.984C551.416 117.51 550.763 117.272 549.884 117.272C548.999 117.272 548.293 117.533 547.766 118.055C547.244 118.576 546.948 119.224 546.878 119.997H552.503ZM565.106 116.183L559.376 129.621H557.609L559.438 125.525L555.526 116.183H557.319L560.334 123.46L563.375 116.183H565.106ZM575.908 121.017C575.908 121.837 575.791 122.575 575.557 123.231C575.328 123.888 575.018 124.438 574.625 124.884C574.209 125.347 573.752 125.695 573.254 125.93C572.756 126.158 572.208 126.272 571.61 126.272C571.054 126.272 570.567 126.205 570.151 126.07C569.735 125.941 569.325 125.766 568.921 125.543L568.815 126H567.269V112.324H568.921V117.211C569.384 116.83 569.876 116.52 570.397 116.279C570.919 116.033 571.505 115.91 572.155 115.91C573.315 115.91 574.229 116.355 574.897 117.246C575.571 118.137 575.908 119.394 575.908 121.017ZM574.203 121.061C574.203 119.889 574.01 119.001 573.623 118.397C573.236 117.788 572.612 117.483 571.751 117.483C571.271 117.483 570.784 117.589 570.292 117.8C569.8 118.005 569.343 118.271 568.921 118.6V124.225C569.39 124.436 569.791 124.582 570.125 124.664C570.465 124.746 570.849 124.787 571.276 124.787C572.19 124.787 572.905 124.488 573.421 123.891C573.942 123.287 574.203 122.344 574.203 121.061ZM586.851 121.096C586.851 122.695 586.44 123.958 585.62 124.884C584.8 125.81 583.701 126.272 582.324 126.272C580.936 126.272 579.831 125.81 579.011 124.884C578.196 123.958 577.789 122.695 577.789 121.096C577.789 119.496 578.196 118.233 579.011 117.308C579.831 116.376 580.936 115.91 582.324 115.91C583.701 115.91 584.8 116.376 585.62 117.308C586.44 118.233 586.851 119.496 586.851 121.096ZM585.146 121.096C585.146 119.824 584.896 118.881 584.398 118.266C583.9 117.645 583.209 117.334 582.324 117.334C581.428 117.334 580.73 117.645 580.232 118.266C579.74 118.881 579.494 119.824 579.494 121.096C579.494 122.326 579.743 123.261 580.241 123.899C580.739 124.532 581.434 124.849 582.324 124.849C583.203 124.849 583.892 124.535 584.39 123.908C584.894 123.275 585.146 122.338 585.146 121.096ZM597.046 126H595.402V124.954C595.256 125.054 595.057 125.194 594.805 125.376C594.559 125.552 594.318 125.692 594.084 125.798C593.809 125.933 593.492 126.044 593.135 126.132C592.777 126.226 592.358 126.272 591.878 126.272C590.993 126.272 590.243 125.979 589.628 125.394C589.013 124.808 588.705 124.061 588.705 123.152C588.705 122.408 588.863 121.808 589.18 121.351C589.502 120.888 589.959 120.524 590.551 120.261C591.148 119.997 591.866 119.818 592.704 119.725C593.542 119.631 594.441 119.561 595.402 119.514V119.259C595.402 118.884 595.335 118.573 595.2 118.327C595.071 118.081 594.884 117.888 594.638 117.747C594.403 117.612 594.122 117.521 593.794 117.475C593.466 117.428 593.123 117.404 592.766 117.404C592.332 117.404 591.849 117.463 591.315 117.58C590.782 117.691 590.231 117.855 589.663 118.072H589.575V116.394C589.897 116.306 590.363 116.209 590.973 116.104C591.582 115.998 592.183 115.945 592.774 115.945C593.466 115.945 594.066 116.004 594.576 116.121C595.092 116.232 595.537 116.426 595.912 116.701C596.281 116.971 596.562 117.319 596.756 117.747C596.949 118.175 597.046 118.705 597.046 119.338V126ZM595.402 123.583V120.85C594.898 120.879 594.304 120.923 593.618 120.981C592.938 121.04 592.399 121.125 592.001 121.236C591.526 121.371 591.143 121.582 590.85 121.869C590.557 122.15 590.41 122.54 590.41 123.038C590.41 123.601 590.58 124.025 590.92 124.312C591.26 124.594 591.778 124.734 592.476 124.734C593.056 124.734 593.586 124.623 594.066 124.4C594.547 124.172 594.992 123.899 595.402 123.583ZM606.354 117.984H606.266C606.02 117.926 605.779 117.885 605.545 117.861C605.316 117.832 605.044 117.817 604.728 117.817C604.218 117.817 603.726 117.932 603.251 118.16C602.776 118.383 602.319 118.673 601.88 119.03V126H600.228V116.183H601.88V117.633C602.536 117.105 603.113 116.733 603.611 116.517C604.115 116.294 604.628 116.183 605.149 116.183C605.437 116.183 605.645 116.191 605.773 116.209C605.902 116.221 606.096 116.247 606.354 116.288V117.984ZM615.872 126H614.22V124.972C613.745 125.382 613.25 125.701 612.734 125.93C612.219 126.158 611.659 126.272 611.056 126.272C609.884 126.272 608.952 125.821 608.261 124.919C607.575 124.017 607.232 122.766 607.232 121.166C607.232 120.334 607.35 119.593 607.584 118.942C607.824 118.292 608.146 117.738 608.551 117.281C608.949 116.836 609.412 116.496 609.939 116.262C610.473 116.027 611.023 115.91 611.592 115.91C612.107 115.91 612.564 115.966 612.963 116.077C613.361 116.183 613.78 116.35 614.22 116.578V112.324H615.872V126ZM614.22 123.583V117.949C613.774 117.75 613.376 117.612 613.024 117.536C612.673 117.46 612.289 117.422 611.873 117.422C610.947 117.422 610.227 117.744 609.711 118.389C609.195 119.033 608.938 119.947 608.938 121.131C608.938 122.297 609.137 123.185 609.535 123.794C609.934 124.397 610.572 124.699 611.451 124.699C611.92 124.699 612.395 124.597 612.875 124.392C613.355 124.181 613.804 123.911 614.22 123.583ZM627.878 126H619.256V112.913H627.878V114.46H620.996V118.046H627.878V119.593H620.996V124.453H627.878V126ZM639.005 116.183L635.032 126H633.371L629.425 116.183H631.218L634.259 123.996L637.273 116.183H639.005ZM649.227 121.263H641.993C641.993 121.866 642.084 122.394 642.266 122.845C642.447 123.29 642.696 123.656 643.013 123.943C643.317 124.225 643.678 124.436 644.094 124.576C644.516 124.717 644.979 124.787 645.482 124.787C646.15 124.787 646.821 124.655 647.495 124.392C648.175 124.122 648.658 123.858 648.945 123.601H649.033V125.402C648.477 125.637 647.908 125.833 647.328 125.991C646.748 126.149 646.139 126.229 645.5 126.229C643.871 126.229 642.6 125.789 641.686 124.91C640.771 124.025 640.314 122.771 640.314 121.148C640.314 119.543 640.751 118.269 641.624 117.325C642.503 116.382 643.657 115.91 645.087 115.91C646.411 115.91 647.431 116.297 648.146 117.07C648.866 117.844 649.227 118.942 649.227 120.366V121.263ZM647.618 119.997C647.612 119.13 647.393 118.459 646.959 117.984C646.531 117.51 645.878 117.272 644.999 117.272C644.114 117.272 643.408 117.533 642.881 118.055C642.359 118.576 642.063 119.224 641.993 119.997H647.618ZM659.94 126H658.288V120.41C658.288 119.959 658.262 119.537 658.209 119.145C658.156 118.746 658.06 118.436 657.919 118.213C657.772 117.967 657.562 117.785 657.286 117.668C657.011 117.545 656.653 117.483 656.214 117.483C655.763 117.483 655.291 117.595 654.799 117.817C654.307 118.04 653.835 118.324 653.384 118.67V126H651.731V116.183H653.384V117.272C653.899 116.845 654.433 116.511 654.983 116.271C655.534 116.03 656.1 115.91 656.68 115.91C657.74 115.91 658.549 116.229 659.105 116.868C659.662 117.507 659.94 118.427 659.94 119.628V126ZM668.22 125.912C667.909 125.994 667.569 126.062 667.2 126.114C666.837 126.167 666.512 126.193 666.225 126.193C665.223 126.193 664.461 125.924 663.939 125.385C663.418 124.846 663.157 123.981 663.157 122.792V117.571H662.041V116.183H663.157V113.361H664.81V116.183H668.22V117.571H664.81V122.045C664.81 122.561 664.821 122.965 664.845 123.258C664.868 123.545 664.95 123.814 665.091 124.066C665.22 124.301 665.396 124.474 665.618 124.585C665.847 124.69 666.192 124.743 666.655 124.743C666.925 124.743 667.206 124.705 667.499 124.629C667.792 124.547 668.003 124.479 668.132 124.427H668.22V125.912Z" fill="black"/>
<path d="M455 80H265C262.239 80 260 82.2386 260 85V95C260 97.7614 262.239 100 265 100H455C457.761 100 460 97.7614 460 95V85C460 82.2386 457.761 80 455 80Z" fill="black" stroke="#808080" stroke-width="2"/>
<path d="M311.871 95.0508C311.549 95.1914 311.256 95.3232 310.992 95.4463C310.734 95.5693 310.395 95.6982 309.973 95.833C309.615 95.9443 309.226 96.0381 308.804 96.1143C308.388 96.1963 307.928 96.2373 307.424 96.2373C306.475 96.2373 305.61 96.1055 304.831 95.8418C304.058 95.5723 303.384 95.1533 302.81 94.585C302.247 94.0283 301.808 93.3223 301.491 92.4668C301.175 91.6055 301.017 90.6064 301.017 89.4697C301.017 88.3916 301.169 87.4277 301.474 86.5781C301.778 85.7285 302.218 85.0107 302.792 84.4248C303.349 83.8564 304.02 83.4229 304.805 83.124C305.596 82.8252 306.472 82.6758 307.433 82.6758C308.136 82.6758 308.836 82.7607 309.533 82.9307C310.236 83.1006 311.016 83.3994 311.871 83.8271V85.8926H311.739C311.019 85.2891 310.304 84.8496 309.595 84.5742C308.886 84.2988 308.127 84.1611 307.318 84.1611C306.656 84.1611 306.059 84.2695 305.525 84.4863C304.998 84.6973 304.526 85.0283 304.11 85.4795C303.706 85.9189 303.39 86.4756 303.161 87.1494C302.938 87.8174 302.827 88.5908 302.827 89.4697C302.827 90.3896 302.95 91.1807 303.196 91.8428C303.448 92.5049 303.771 93.0439 304.163 93.46C304.573 93.8936 305.051 94.2158 305.596 94.4268C306.146 94.6318 306.727 94.7344 307.336 94.7344C308.174 94.7344 308.959 94.5908 309.691 94.3037C310.424 94.0166 311.109 93.5859 311.748 93.0117H311.871V95.0508ZM322.339 96H320.687V94.9102C320.13 95.3496 319.597 95.6865 319.087 95.9209C318.577 96.1553 318.015 96.2725 317.399 96.2725C316.368 96.2725 315.565 95.959 314.991 95.332C314.417 94.6992 314.13 93.7734 314.13 92.5547V86.1826H315.782V91.7725C315.782 92.2705 315.806 92.6982 315.853 93.0557C315.899 93.4072 315.999 93.709 316.151 93.9609C316.31 94.2188 316.515 94.4062 316.767 94.5234C317.019 94.6406 317.385 94.6992 317.865 94.6992C318.293 94.6992 318.759 94.5879 319.263 94.3652C319.772 94.1426 320.247 93.8584 320.687 93.5127V86.1826H322.339V96ZM332.604 93.1699C332.604 94.0664 332.232 94.8018 331.488 95.376C330.75 95.9502 329.739 96.2373 328.456 96.2373C327.729 96.2373 327.062 96.1523 326.452 95.9824C325.849 95.8066 325.342 95.6162 324.932 95.4111V93.5566H325.02C325.541 93.9492 326.121 94.2627 326.76 94.4971C327.398 94.7256 328.011 94.8398 328.597 94.8398C329.323 94.8398 329.892 94.7227 330.302 94.4883C330.712 94.2539 330.917 93.8848 330.917 93.3809C330.917 92.9941 330.806 92.7012 330.583 92.502C330.36 92.3027 329.933 92.1328 329.3 91.9922C329.065 91.9395 328.758 91.8779 328.377 91.8076C328.002 91.7373 327.659 91.6611 327.349 91.5791C326.487 91.3506 325.875 91.0166 325.512 90.5771C325.154 90.1318 324.976 89.5869 324.976 88.9424C324.976 88.5381 325.058 88.1572 325.222 87.7998C325.392 87.4424 325.646 87.123 325.986 86.8418C326.314 86.5664 326.73 86.3496 327.234 86.1914C327.744 86.0273 328.312 85.9453 328.939 85.9453C329.525 85.9453 330.117 86.0186 330.715 86.165C331.318 86.3057 331.819 86.4785 332.218 86.6836V88.4502H332.13C331.708 88.1396 331.195 87.8789 330.592 87.668C329.988 87.4512 329.396 87.3428 328.816 87.3428C328.213 87.3428 327.703 87.46 327.287 87.6943C326.871 87.9229 326.663 88.2656 326.663 88.7227C326.663 89.127 326.789 89.4316 327.041 89.6367C327.287 89.8418 327.686 90.0088 328.236 90.1377C328.541 90.208 328.881 90.2783 329.256 90.3486C329.637 90.4189 329.953 90.4834 330.205 90.542C330.973 90.7178 331.564 91.0195 331.98 91.4473C332.396 91.8809 332.604 92.4551 332.604 93.1699ZM340.075 95.9121C339.765 95.9941 339.425 96.0615 339.056 96.1143C338.692 96.167 338.367 96.1934 338.08 96.1934C337.078 96.1934 336.316 95.9238 335.795 95.3848C335.273 94.8457 335.013 93.9814 335.013 92.792V87.5713H333.896V86.1826H335.013V83.3613H336.665V86.1826H340.075V87.5713H336.665V92.0449C336.665 92.5605 336.677 92.9648 336.7 93.2578C336.724 93.5449 336.806 93.8145 336.946 94.0664C337.075 94.3008 337.251 94.4736 337.474 94.585C337.702 94.6904 338.048 94.7432 338.511 94.7432C338.78 94.7432 339.062 94.7051 339.354 94.6289C339.647 94.5469 339.858 94.4795 339.987 94.4268H340.075V95.9121ZM350.446 91.0957C350.446 92.6953 350.036 93.958 349.216 94.8838C348.396 95.8096 347.297 96.2725 345.92 96.2725C344.531 96.2725 343.427 95.8096 342.606 94.8838C341.792 93.958 341.385 92.6953 341.385 91.0957C341.385 89.4961 341.792 88.2334 342.606 87.3076C343.427 86.376 344.531 85.9102 345.92 85.9102C347.297 85.9102 348.396 86.376 349.216 87.3076C350.036 88.2334 350.446 89.4961 350.446 91.0957ZM348.741 91.0957C348.741 89.8242 348.492 88.8809 347.994 88.2656C347.496 87.6445 346.805 87.334 345.92 87.334C345.023 87.334 344.326 87.6445 343.828 88.2656C343.336 88.8809 343.09 89.8242 343.09 91.0957C343.09 92.3262 343.339 93.2607 343.837 93.8994C344.335 94.5322 345.029 94.8486 345.92 94.8486C346.799 94.8486 347.487 94.5352 347.985 93.9082C348.489 93.2754 348.741 92.3379 348.741 91.0957ZM367.339 96H365.687V90.4102C365.687 89.9883 365.666 89.5811 365.625 89.1885C365.59 88.7959 365.511 88.4824 365.388 88.248C365.253 87.9961 365.06 87.8057 364.808 87.6768C364.556 87.5479 364.192 87.4834 363.718 87.4834C363.255 87.4834 362.792 87.6006 362.329 87.835C361.866 88.0635 361.403 88.3564 360.94 88.7139C360.958 88.8486 360.973 89.0068 360.984 89.1885C360.996 89.3643 361.002 89.54 361.002 89.7158V96H359.35V90.4102C359.35 89.9766 359.329 89.5664 359.288 89.1797C359.253 88.7871 359.174 88.4736 359.051 88.2393C358.916 87.9873 358.723 87.7998 358.471 87.6768C358.219 87.5479 357.855 87.4834 357.381 87.4834C356.93 87.4834 356.476 87.5947 356.019 87.8174C355.567 88.04 355.116 88.3242 354.665 88.6699V96H353.013V86.1826H354.665V87.2725C355.181 86.8447 355.693 86.5107 356.203 86.2705C356.719 86.0303 357.267 85.9102 357.847 85.9102C358.515 85.9102 359.08 86.0508 359.543 86.332C360.012 86.6133 360.36 87.0029 360.589 87.501C361.257 86.9385 361.866 86.5342 362.417 86.2881C362.968 86.0361 363.557 85.9102 364.184 85.9102C365.262 85.9102 366.056 86.2383 366.565 86.8945C367.081 87.5449 367.339 88.4561 367.339 89.6279V96ZM379.274 96H370.652V82.9131H379.274V84.46H372.393V88.0459H379.274V89.5928H372.393V94.4531H379.274V96ZM390.401 86.1826L386.429 96H384.768L380.821 86.1826H382.614L385.655 93.9961L388.67 86.1826H390.401ZM400.623 91.2627H393.39C393.39 91.8662 393.48 92.3936 393.662 92.8447C393.844 93.29 394.093 93.6562 394.409 93.9434C394.714 94.2246 395.074 94.4355 395.49 94.5762C395.912 94.7168 396.375 94.7871 396.879 94.7871C397.547 94.7871 398.218 94.6553 398.892 94.3916C399.571 94.1221 400.055 93.8584 400.342 93.6006H400.43V95.4023C399.873 95.6367 399.305 95.833 398.725 95.9912C398.145 96.1494 397.535 96.2285 396.896 96.2285C395.268 96.2285 393.996 95.7891 393.082 94.9102C392.168 94.0254 391.711 92.7715 391.711 91.1484C391.711 89.543 392.147 88.2686 393.021 87.3252C393.899 86.3818 395.054 85.9102 396.483 85.9102C397.808 85.9102 398.827 86.2969 399.542 87.0703C400.263 87.8438 400.623 88.9424 400.623 90.3662V91.2627ZM399.015 89.9971C399.009 89.1299 398.789 88.459 398.355 87.9844C397.928 87.5098 397.274 87.2725 396.396 87.2725C395.511 87.2725 394.805 87.5332 394.277 88.0547C393.756 88.5762 393.46 89.2236 393.39 89.9971H399.015ZM411.337 96H409.685V90.4102C409.685 89.959 409.658 89.5371 409.605 89.1445C409.553 88.7461 409.456 88.4355 409.315 88.2129C409.169 87.9668 408.958 87.7852 408.683 87.668C408.407 87.5449 408.05 87.4834 407.61 87.4834C407.159 87.4834 406.688 87.5947 406.195 87.8174C405.703 88.04 405.231 88.3242 404.78 88.6699V96H403.128V86.1826H404.78V87.2725C405.296 86.8447 405.829 86.5107 406.38 86.2705C406.931 86.0303 407.496 85.9102 408.076 85.9102C409.137 85.9102 409.945 86.2295 410.502 86.8682C411.059 87.5068 411.337 88.4268 411.337 89.6279V96ZM419.616 95.9121C419.306 95.9941 418.966 96.0615 418.597 96.1143C418.233 96.167 417.908 96.1934 417.621 96.1934C416.619 96.1934 415.857 95.9238 415.336 95.3848C414.814 94.8457 414.554 93.9814 414.554 92.792V87.5713H413.438V86.1826H414.554V83.3613H416.206V86.1826H419.616V87.5713H416.206V92.0449C416.206 92.5605 416.218 92.9648 416.241 93.2578C416.265 93.5449 416.347 93.8145 416.487 94.0664C416.616 94.3008 416.792 94.4736 417.015 94.585C417.243 94.6904 417.589 94.7432 418.052 94.7432C418.321 94.7432 418.603 94.7051 418.896 94.6289C419.188 94.5469 419.399 94.4795 419.528 94.4268H419.616V95.9121Z" fill="white"/>
<path d="M215 80H25C22.2386 80 20 82.2386 20 85V95C20 97.7614 22.2386 100 25 100H215C217.761 100 220 97.7614 220 95V85C220 82.2386 217.761 80 215 80Z" fill="black" stroke="#808080" stroke-width="2"/>
<path d="M76.5732 96H67.9512V82.9131H76.5732V84.46H69.6914V88.0459H76.5732V89.5928H69.6914V94.4531H76.5732V96ZM87.7002 86.1826L83.7275 96H82.0664L78.1201 86.1826H79.9131L82.9541 93.9961L85.9688 86.1826H87.7002ZM97.9219 91.2627H90.6885C90.6885 91.8662 90.7793 92.3936 90.9609 92.8447C91.1426 93.29 91.3916 93.6562 91.708 93.9434C92.0127 94.2246 92.373 94.4355 92.7891 94.5762C93.2109 94.7168 93.6738 94.7871 94.1777 94.7871C94.8457 94.7871 95.5166 94.6553 96.1904 94.3916C96.8701 94.1221 97.3535 93.8584 97.6406 93.6006H97.7285V95.4023C97.1719 95.6367 96.6035 95.833 96.0234 95.9912C95.4434 96.1494 94.834 96.2285 94.1953 96.2285C92.5664 96.2285 91.2949 95.7891 90.3809 94.9102C89.4668 94.0254 89.0098 92.7715 89.0098 91.1484C89.0098 89.543 89.4463 88.2686 90.3193 87.3252C91.1982 86.3818 92.3525 85.9102 93.7822 85.9102C95.1064 85.9102 96.126 86.2969 96.8408 87.0703C97.5615 87.8438 97.9219 88.9424 97.9219 90.3662V91.2627ZM96.3135 89.9971C96.3076 89.1299 96.0879 88.459 95.6543 87.9844C95.2266 87.5098 94.5732 87.2725 93.6943 87.2725C92.8096 87.2725 92.1035 87.5332 91.5762 88.0547C91.0547 88.5762 90.7588 89.2236 90.6885 89.9971H96.3135ZM108.636 96H106.983V90.4102C106.983 89.959 106.957 89.5371 106.904 89.1445C106.852 88.7461 106.755 88.4355 106.614 88.2129C106.468 87.9668 106.257 87.7852 105.981 87.668C105.706 87.5449 105.349 87.4834 104.909 87.4834C104.458 87.4834 103.986 87.5947 103.494 87.8174C103.002 88.04 102.53 88.3242 102.079 88.6699V96H100.427V86.1826H102.079V87.2725C102.595 86.8447 103.128 86.5107 103.679 86.2705C104.229 86.0303 104.795 85.9102 105.375 85.9102C106.436 85.9102 107.244 86.2295 107.801 86.8682C108.357 87.5068 108.636 88.4268 108.636 89.6279V96ZM116.915 95.9121C116.604 95.9941 116.265 96.0615 115.896 96.1143C115.532 96.167 115.207 96.1934 114.92 96.1934C113.918 96.1934 113.156 95.9238 112.635 95.3848C112.113 94.8457 111.853 93.9814 111.853 92.792V87.5713H110.736V86.1826H111.853V83.3613H113.505V86.1826H116.915V87.5713H113.505V92.0449C113.505 92.5605 113.517 92.9648 113.54 93.2578C113.563 93.5449 113.646 93.8145 113.786 94.0664C113.915 94.3008 114.091 94.4736 114.313 94.585C114.542 94.6904 114.888 94.7432 115.351 94.7432C115.62 94.7432 115.901 94.7051 116.194 94.6289C116.487 94.5469 116.698 94.4795 116.827 94.4268H116.915V95.9121ZM128.385 84.46H123.709V96H121.969V84.46H117.293V82.9131H128.385V84.46ZM135.53 96H133.887V94.9541C133.74 95.0537 133.541 95.1943 133.289 95.376C133.043 95.5518 132.803 95.6924 132.568 95.7979C132.293 95.9326 131.977 96.0439 131.619 96.1318C131.262 96.2256 130.843 96.2725 130.362 96.2725C129.478 96.2725 128.728 95.9795 128.112 95.3936C127.497 94.8076 127.189 94.0605 127.189 93.1523C127.189 92.4082 127.348 91.8076 127.664 91.3506C127.986 90.8877 128.443 90.5244 129.035 90.2607C129.633 89.9971 130.351 89.8184 131.188 89.7246C132.026 89.6309 132.926 89.5605 133.887 89.5137V89.2588C133.887 88.8838 133.819 88.5732 133.685 88.3271C133.556 88.0811 133.368 87.8877 133.122 87.7471C132.888 87.6123 132.606 87.5215 132.278 87.4746C131.95 87.4277 131.607 87.4043 131.25 87.4043C130.816 87.4043 130.333 87.4629 129.8 87.5801C129.267 87.6914 128.716 87.8555 128.147 88.0723H128.06V86.3936C128.382 86.3057 128.848 86.209 129.457 86.1035C130.066 85.998 130.667 85.9453 131.259 85.9453C131.95 85.9453 132.551 86.0039 133.061 86.1211C133.576 86.2324 134.021 86.4258 134.396 86.7012C134.766 86.9707 135.047 87.3193 135.24 87.7471C135.434 88.1748 135.53 88.7051 135.53 89.3379V96ZM133.887 93.583V90.8496C133.383 90.8789 132.788 90.9229 132.103 90.9814C131.423 91.04 130.884 91.125 130.485 91.2363C130.011 91.3711 129.627 91.582 129.334 91.8691C129.041 92.1504 128.895 92.54 128.895 93.0381C128.895 93.6006 129.064 94.0254 129.404 94.3125C129.744 94.5938 130.263 94.7344 130.96 94.7344C131.54 94.7344 132.07 94.623 132.551 94.4004C133.031 94.1719 133.477 93.8994 133.887 93.583ZM144.838 87.9844H144.75C144.504 87.9258 144.264 87.8848 144.029 87.8613C143.801 87.832 143.528 87.8174 143.212 87.8174C142.702 87.8174 142.21 87.9316 141.735 88.1602C141.261 88.3828 140.804 88.6729 140.364 89.0303V96H138.712V86.1826H140.364V87.6328C141.021 87.1055 141.598 86.7334 142.096 86.5166C142.6 86.2939 143.112 86.1826 143.634 86.1826C143.921 86.1826 144.129 86.1914 144.258 86.209C144.387 86.2207 144.58 86.2471 144.838 86.2881V87.9844ZM154.356 94.8838C154.356 96.5479 153.979 97.7695 153.223 98.5488C152.467 99.3281 151.304 99.7178 149.733 99.7178C149.212 99.7178 148.702 99.6797 148.204 99.6035C147.712 99.5332 147.226 99.4307 146.745 99.2959V97.6084H146.833C147.103 97.7139 147.53 97.8428 148.116 97.9951C148.702 98.1533 149.288 98.2324 149.874 98.2324C150.437 98.2324 150.902 98.165 151.271 98.0303C151.641 97.8955 151.928 97.708 152.133 97.4678C152.338 97.2393 152.484 96.9639 152.572 96.6416C152.66 96.3193 152.704 95.959 152.704 95.5605V94.6641C152.206 95.0625 151.729 95.3613 151.271 95.5605C150.82 95.7539 150.243 95.8506 149.54 95.8506C148.368 95.8506 147.437 95.4287 146.745 94.585C146.06 93.7354 145.717 92.54 145.717 90.999C145.717 90.1553 145.834 89.4287 146.068 88.8193C146.309 88.2041 146.634 87.6738 147.044 87.2285C147.425 86.8125 147.888 86.4902 148.433 86.2617C148.978 86.0273 149.52 85.9102 150.059 85.9102C150.627 85.9102 151.102 85.9688 151.482 86.0859C151.869 86.1973 152.276 86.3701 152.704 86.6045L152.81 86.1826H154.356V94.8838ZM152.704 93.3018V87.9492C152.265 87.75 151.854 87.6094 151.474 87.5273C151.099 87.4395 150.724 87.3955 150.349 87.3955C149.44 87.3955 148.726 87.7002 148.204 88.3096C147.683 88.9189 147.422 89.8037 147.422 90.9639C147.422 92.0654 147.615 92.9004 148.002 93.4688C148.389 94.0371 149.03 94.3213 149.927 94.3213C150.407 94.3213 150.888 94.2305 151.368 94.0488C151.854 93.8613 152.3 93.6123 152.704 93.3018ZM165.826 91.2627H158.593C158.593 91.8662 158.684 92.3936 158.865 92.8447C159.047 93.29 159.296 93.6562 159.612 93.9434C159.917 94.2246 160.277 94.4355 160.693 94.5762C161.115 94.7168 161.578 94.7871 162.082 94.7871C162.75 94.7871 163.421 94.6553 164.095 94.3916C164.774 94.1221 165.258 93.8584 165.545 93.6006H165.633V95.4023C165.076 95.6367 164.508 95.833 163.928 95.9912C163.348 96.1494 162.738 96.2285 162.1 96.2285C160.471 96.2285 159.199 95.7891 158.285 94.9102C157.371 94.0254 156.914 92.7715 156.914 91.1484C156.914 89.543 157.351 88.2686 158.224 87.3252C159.103 86.3818 160.257 85.9102 161.687 85.9102C163.011 85.9102 164.03 86.2969 164.745 87.0703C165.466 87.8438 165.826 88.9424 165.826 90.3662V91.2627ZM164.218 89.9971C164.212 89.1299 163.992 88.459 163.559 87.9844C163.131 87.5098 162.478 87.2725 161.599 87.2725C160.714 87.2725 160.008 87.5332 159.48 88.0547C158.959 88.5762 158.663 89.2236 158.593 89.9971H164.218ZM173.429 95.9121C173.118 95.9941 172.778 96.0615 172.409 96.1143C172.046 96.167 171.721 96.1934 171.434 96.1934C170.432 96.1934 169.67 95.9238 169.148 95.3848C168.627 94.8457 168.366 93.9814 168.366 92.792V87.5713H167.25V86.1826H168.366V83.3613H170.019V86.1826H173.429V87.5713H170.019V92.0449C170.019 92.5605 170.03 92.9648 170.054 93.2578C170.077 93.5449 170.159 93.8145 170.3 94.0664C170.429 94.3008 170.604 94.4736 170.827 94.585C171.056 94.6904 171.401 94.7432 171.864 94.7432C172.134 94.7432 172.415 94.7051 172.708 94.6289C173.001 94.5469 173.212 94.4795 173.341 94.4268H173.429V95.9121Z" fill="white"/>
<path d="M215 110H25C22.2386 110 20 112.239 20 115V125C20 127.761 22.2386 130 25 130H215C217.761 130 220 127.761 220 125V115C220 112.239 217.761 110 215 110Z" fill="black" stroke="#808080" stroke-width="2"/>
<path d="M68.8477 126H60.2256V112.913H68.8477V114.46H61.9658V118.046H68.8477V119.593H61.9658V124.453H68.8477V126ZM79.9746 116.183L76.002 126H74.3408L70.3945 116.183H72.1875L75.2285 123.996L78.2432 116.183H79.9746ZM90.1963 121.263H82.9629C82.9629 121.866 83.0537 122.394 83.2354 122.845C83.417 123.29 83.666 123.656 83.9824 123.943C84.2871 124.225 84.6475 124.436 85.0635 124.576C85.4854 124.717 85.9482 124.787 86.4521 124.787C87.1201 124.787 87.791 124.655 88.4648 124.392C89.1445 124.122 89.6279 123.858 89.915 123.601H90.0029V125.402C89.4463 125.637 88.8779 125.833 88.2979 125.991C87.7178 126.149 87.1084 126.229 86.4697 126.229C84.8408 126.229 83.5693 125.789 82.6553 124.91C81.7412 124.025 81.2842 122.771 81.2842 121.148C81.2842 119.543 81.7207 118.269 82.5938 117.325C83.4727 116.382 84.627 115.91 86.0566 115.91C87.3809 115.91 88.4004 116.297 89.1152 117.07C89.8359 117.844 90.1963 118.942 90.1963 120.366V121.263ZM88.5879 119.997C88.582 119.13 88.3623 118.459 87.9287 117.984C87.501 117.51 86.8477 117.272 85.9688 117.272C85.084 117.272 84.3779 117.533 83.8506 118.055C83.3291 118.576 83.0332 119.224 82.9629 119.997H88.5879ZM100.91 126H99.2578V120.41C99.2578 119.959 99.2314 119.537 99.1787 119.145C99.126 118.746 99.0293 118.436 98.8887 118.213C98.7422 117.967 98.5312 117.785 98.2559 117.668C97.9805 117.545 97.623 117.483 97.1836 117.483C96.7324 117.483 96.2607 117.595 95.7686 117.817C95.2764 118.04 94.8047 118.324 94.3535 118.67V126H92.7012V116.183H94.3535V117.272C94.8691 116.845 95.4023 116.511 95.9531 116.271C96.5039 116.03 97.0693 115.91 97.6494 115.91C98.71 115.91 99.5186 116.229 100.075 116.868C100.632 117.507 100.91 118.427 100.91 119.628V126ZM109.189 125.912C108.879 125.994 108.539 126.062 108.17 126.114C107.807 126.167 107.481 126.193 107.194 126.193C106.192 126.193 105.431 125.924 104.909 125.385C104.388 124.846 104.127 123.981 104.127 122.792V117.571H103.011V116.183H104.127V113.361H105.779V116.183H109.189V117.571H105.779V122.045C105.779 122.561 105.791 122.965 105.814 123.258C105.838 123.545 105.92 123.814 106.061 124.066C106.189 124.301 106.365 124.474 106.588 124.585C106.816 124.69 107.162 124.743 107.625 124.743C107.895 124.743 108.176 124.705 108.469 124.629C108.762 124.547 108.973 124.479 109.102 124.427H109.189V125.912ZM119.604 126H111.325V112.913H113.065V124.453H119.604V126ZM122.988 114.539H121.125V112.825H122.988V114.539ZM122.883 126H121.23V116.183H122.883V126ZM133.166 123.17C133.166 124.066 132.794 124.802 132.05 125.376C131.312 125.95 130.301 126.237 129.018 126.237C128.291 126.237 127.623 126.152 127.014 125.982C126.41 125.807 125.903 125.616 125.493 125.411V123.557H125.581C126.103 123.949 126.683 124.263 127.321 124.497C127.96 124.726 128.572 124.84 129.158 124.84C129.885 124.84 130.453 124.723 130.863 124.488C131.273 124.254 131.479 123.885 131.479 123.381C131.479 122.994 131.367 122.701 131.145 122.502C130.922 122.303 130.494 122.133 129.861 121.992C129.627 121.939 129.319 121.878 128.938 121.808C128.563 121.737 128.221 121.661 127.91 121.579C127.049 121.351 126.437 121.017 126.073 120.577C125.716 120.132 125.537 119.587 125.537 118.942C125.537 118.538 125.619 118.157 125.783 117.8C125.953 117.442 126.208 117.123 126.548 116.842C126.876 116.566 127.292 116.35 127.796 116.191C128.306 116.027 128.874 115.945 129.501 115.945C130.087 115.945 130.679 116.019 131.276 116.165C131.88 116.306 132.381 116.479 132.779 116.684V118.45H132.691C132.27 118.14 131.757 117.879 131.153 117.668C130.55 117.451 129.958 117.343 129.378 117.343C128.774 117.343 128.265 117.46 127.849 117.694C127.433 117.923 127.225 118.266 127.225 118.723C127.225 119.127 127.351 119.432 127.603 119.637C127.849 119.842 128.247 120.009 128.798 120.138C129.103 120.208 129.442 120.278 129.817 120.349C130.198 120.419 130.515 120.483 130.767 120.542C131.534 120.718 132.126 121.02 132.542 121.447C132.958 121.881 133.166 122.455 133.166 123.17ZM140.637 125.912C140.326 125.994 139.986 126.062 139.617 126.114C139.254 126.167 138.929 126.193 138.642 126.193C137.64 126.193 136.878 125.924 136.356 125.385C135.835 124.846 135.574 123.981 135.574 122.792V117.571H134.458V116.183H135.574V113.361H137.227V116.183H140.637V117.571H137.227V122.045C137.227 122.561 137.238 122.965 137.262 123.258C137.285 123.545 137.367 123.814 137.508 124.066C137.637 124.301 137.812 124.474 138.035 124.585C138.264 124.69 138.609 124.743 139.072 124.743C139.342 124.743 139.623 124.705 139.916 124.629C140.209 124.547 140.42 124.479 140.549 124.427H140.637V125.912ZM150.858 121.263H143.625C143.625 121.866 143.716 122.394 143.897 122.845C144.079 123.29 144.328 123.656 144.645 123.943C144.949 124.225 145.31 124.436 145.726 124.576C146.147 124.717 146.61 124.787 147.114 124.787C147.782 124.787 148.453 124.655 149.127 124.392C149.807 124.122 150.29 123.858 150.577 123.601H150.665V125.402C150.108 125.637 149.54 125.833 148.96 125.991C148.38 126.149 147.771 126.229 147.132 126.229C145.503 126.229 144.231 125.789 143.317 124.91C142.403 124.025 141.946 122.771 141.946 121.148C141.946 119.543 142.383 118.269 143.256 117.325C144.135 116.382 145.289 115.91 146.719 115.91C148.043 115.91 149.062 116.297 149.777 117.07C150.498 117.844 150.858 118.942 150.858 120.366V121.263ZM149.25 119.997C149.244 119.13 149.024 118.459 148.591 117.984C148.163 117.51 147.51 117.272 146.631 117.272C145.746 117.272 145.04 117.533 144.513 118.055C143.991 118.576 143.695 119.224 143.625 119.997H149.25ZM161.572 126H159.92V120.41C159.92 119.959 159.894 119.537 159.841 119.145C159.788 118.746 159.691 118.436 159.551 118.213C159.404 117.967 159.193 117.785 158.918 117.668C158.643 117.545 158.285 117.483 157.846 117.483C157.395 117.483 156.923 117.595 156.431 117.817C155.938 118.04 155.467 118.324 155.016 118.67V126H153.363V116.183H155.016V117.272C155.531 116.845 156.064 116.511 156.615 116.271C157.166 116.03 157.731 115.91 158.312 115.91C159.372 115.91 160.181 116.229 160.737 116.868C161.294 117.507 161.572 118.427 161.572 119.628V126ZM172.972 121.263H165.738C165.738 121.866 165.829 122.394 166.011 122.845C166.192 123.29 166.441 123.656 166.758 123.943C167.062 124.225 167.423 124.436 167.839 124.576C168.261 124.717 168.724 124.787 169.228 124.787C169.896 124.787 170.566 124.655 171.24 124.392C171.92 124.122 172.403 123.858 172.69 123.601H172.778V125.402C172.222 125.637 171.653 125.833 171.073 125.991C170.493 126.149 169.884 126.229 169.245 126.229C167.616 126.229 166.345 125.789 165.431 124.91C164.517 124.025 164.06 122.771 164.06 121.148C164.06 119.543 164.496 118.269 165.369 117.325C166.248 116.382 167.402 115.91 168.832 115.91C170.156 115.91 171.176 116.297 171.891 117.07C172.611 117.844 172.972 118.942 172.972 120.366V121.263ZM171.363 119.997C171.357 119.13 171.138 118.459 170.704 117.984C170.276 117.51 169.623 117.272 168.744 117.272C167.859 117.272 167.153 117.533 166.626 118.055C166.104 118.576 165.809 119.224 165.738 119.997H171.363ZM181.603 117.984H181.515C181.269 117.926 181.028 117.885 180.794 117.861C180.565 117.832 180.293 117.817 179.977 117.817C179.467 117.817 178.975 117.932 178.5 118.16C178.025 118.383 177.568 118.673 177.129 119.03V126H175.477V116.183H177.129V117.633C177.785 117.105 178.362 116.733 178.86 116.517C179.364 116.294 179.877 116.183 180.398 116.183C180.686 116.183 180.894 116.191 181.022 116.209C181.151 116.221 181.345 116.247 181.603 116.288V117.984Z" fill="white"/>
<path d="M695 140H505C502.239 140 500 142.239 500 145V155C500 157.761 502.239 160 505 160H695C697.761 160 700 157.761 700 155V145C700 142.239 697.761 140 695 140Z" fill="#DCDCDC" stroke="black" stroke-width="2"/>
<path d="M530.891 155.051C530.568 155.191 530.275 155.323 530.012 155.446C529.754 155.569 529.414 155.698 528.992 155.833C528.635 155.944 528.245 156.038 527.823 156.114C527.407 156.196 526.947 156.237 526.443 156.237C525.494 156.237 524.63 156.105 523.851 155.842C523.077 155.572 522.403 155.153 521.829 154.585C521.267 154.028 520.827 153.322 520.511 152.467C520.194 151.605 520.036 150.606 520.036 149.47C520.036 148.392 520.188 147.428 520.493 146.578C520.798 145.729 521.237 145.011 521.812 144.425C522.368 143.856 523.039 143.423 523.824 143.124C524.615 142.825 525.491 142.676 526.452 142.676C527.155 142.676 527.855 142.761 528.553 142.931C529.256 143.101 530.035 143.399 530.891 143.827V145.893H530.759C530.038 145.289 529.323 144.85 528.614 144.574C527.905 144.299 527.146 144.161 526.338 144.161C525.676 144.161 525.078 144.27 524.545 144.486C524.018 144.697 523.546 145.028 523.13 145.479C522.726 145.919 522.409 146.476 522.181 147.149C521.958 147.817 521.847 148.591 521.847 149.47C521.847 150.39 521.97 151.181 522.216 151.843C522.468 152.505 522.79 153.044 523.183 153.46C523.593 153.894 524.07 154.216 524.615 154.427C525.166 154.632 525.746 154.734 526.355 154.734C527.193 154.734 527.979 154.591 528.711 154.304C529.443 154.017 530.129 153.586 530.768 153.012H530.891V155.051ZM541.587 151.096C541.587 152.695 541.177 153.958 540.356 154.884C539.536 155.81 538.438 156.272 537.061 156.272C535.672 156.272 534.567 155.81 533.747 154.884C532.933 153.958 532.525 152.695 532.525 151.096C532.525 149.496 532.933 148.233 533.747 147.308C534.567 146.376 535.672 145.91 537.061 145.91C538.438 145.91 539.536 146.376 540.356 147.308C541.177 148.233 541.587 149.496 541.587 151.096ZM539.882 151.096C539.882 149.824 539.633 148.881 539.135 148.266C538.637 147.645 537.945 147.334 537.061 147.334C536.164 147.334 535.467 147.645 534.969 148.266C534.477 148.881 534.23 149.824 534.23 151.096C534.23 152.326 534.479 153.261 534.978 153.899C535.476 154.532 536.17 154.849 537.061 154.849C537.939 154.849 538.628 154.535 539.126 153.908C539.63 153.275 539.882 152.338 539.882 151.096ZM558.479 156H556.827V150.41C556.827 149.988 556.807 149.581 556.766 149.188C556.73 148.796 556.651 148.482 556.528 148.248C556.394 147.996 556.2 147.806 555.948 147.677C555.696 147.548 555.333 147.483 554.858 147.483C554.396 147.483 553.933 147.601 553.47 147.835C553.007 148.063 552.544 148.356 552.081 148.714C552.099 148.849 552.113 149.007 552.125 149.188C552.137 149.364 552.143 149.54 552.143 149.716V156H550.49V150.41C550.49 149.977 550.47 149.566 550.429 149.18C550.394 148.787 550.314 148.474 550.191 148.239C550.057 147.987 549.863 147.8 549.611 147.677C549.359 147.548 548.996 147.483 548.521 147.483C548.07 147.483 547.616 147.595 547.159 147.817C546.708 148.04 546.257 148.324 545.806 148.67V156H544.153V146.183H545.806V147.272C546.321 146.845 546.834 146.511 547.344 146.271C547.859 146.03 548.407 145.91 548.987 145.91C549.655 145.91 550.221 146.051 550.684 146.332C551.152 146.613 551.501 147.003 551.729 147.501C552.397 146.938 553.007 146.534 553.558 146.288C554.108 146.036 554.697 145.91 555.324 145.91C556.402 145.91 557.196 146.238 557.706 146.895C558.222 147.545 558.479 148.456 558.479 149.628V156ZM570.301 150.973C570.301 151.77 570.187 152.499 569.958 153.161C569.729 153.817 569.407 154.374 568.991 154.831C568.604 155.265 568.147 155.602 567.62 155.842C567.099 156.076 566.545 156.193 565.959 156.193C565.449 156.193 564.986 156.138 564.57 156.026C564.16 155.915 563.741 155.742 563.313 155.508V159.621H561.661V146.183H563.313V147.211C563.753 146.842 564.245 146.534 564.79 146.288C565.341 146.036 565.927 145.91 566.548 145.91C567.731 145.91 568.651 146.358 569.308 147.255C569.97 148.146 570.301 149.385 570.301 150.973ZM568.596 151.017C568.596 149.833 568.394 148.948 567.989 148.362C567.585 147.776 566.964 147.483 566.126 147.483C565.651 147.483 565.174 147.586 564.693 147.791C564.213 147.996 563.753 148.266 563.313 148.6V154.163C563.782 154.374 564.184 154.518 564.518 154.594C564.857 154.67 565.241 154.708 565.669 154.708C566.589 154.708 567.307 154.397 567.822 153.776C568.338 153.155 568.596 152.235 568.596 151.017ZM581.243 151.096C581.243 152.695 580.833 153.958 580.013 154.884C579.192 155.81 578.094 156.272 576.717 156.272C575.328 156.272 574.224 155.81 573.403 154.884C572.589 153.958 572.182 152.695 572.182 151.096C572.182 149.496 572.589 148.233 573.403 147.308C574.224 146.376 575.328 145.91 576.717 145.91C578.094 145.91 579.192 146.376 580.013 147.308C580.833 148.233 581.243 149.496 581.243 151.096ZM579.538 151.096C579.538 149.824 579.289 148.881 578.791 148.266C578.293 147.645 577.602 147.334 576.717 147.334C575.82 147.334 575.123 147.645 574.625 148.266C574.133 148.881 573.887 149.824 573.887 151.096C573.887 152.326 574.136 153.261 574.634 153.899C575.132 154.532 575.826 154.849 576.717 154.849C577.596 154.849 578.284 154.535 578.782 153.908C579.286 153.275 579.538 152.338 579.538 151.096ZM590.823 153.17C590.823 154.066 590.451 154.802 589.707 155.376C588.969 155.95 587.958 156.237 586.675 156.237C585.948 156.237 585.28 156.152 584.671 155.982C584.067 155.807 583.561 155.616 583.15 155.411V153.557H583.238C583.76 153.949 584.34 154.263 584.979 154.497C585.617 154.726 586.229 154.84 586.815 154.84C587.542 154.84 588.11 154.723 588.521 154.488C588.931 154.254 589.136 153.885 589.136 153.381C589.136 152.994 589.024 152.701 588.802 152.502C588.579 152.303 588.151 152.133 587.519 151.992C587.284 151.939 586.977 151.878 586.596 151.808C586.221 151.737 585.878 151.661 585.567 151.579C584.706 151.351 584.094 151.017 583.73 150.577C583.373 150.132 583.194 149.587 583.194 148.942C583.194 148.538 583.276 148.157 583.44 147.8C583.61 147.442 583.865 147.123 584.205 146.842C584.533 146.566 584.949 146.35 585.453 146.191C585.963 146.027 586.531 145.945 587.158 145.945C587.744 145.945 588.336 146.019 588.934 146.165C589.537 146.306 590.038 146.479 590.437 146.684V148.45H590.349C589.927 148.14 589.414 147.879 588.811 147.668C588.207 147.451 587.615 147.343 587.035 147.343C586.432 147.343 585.922 147.46 585.506 147.694C585.09 147.923 584.882 148.266 584.882 148.723C584.882 149.127 585.008 149.432 585.26 149.637C585.506 149.842 585.904 150.009 586.455 150.138C586.76 150.208 587.1 150.278 587.475 150.349C587.855 150.419 588.172 150.483 588.424 150.542C589.191 150.718 589.783 151.02 590.199 151.447C590.615 151.881 590.823 152.455 590.823 153.17ZM594.972 144.539H593.108V142.825H594.972V144.539ZM594.866 156H593.214V146.183H594.866V156ZM603.233 155.912C602.923 155.994 602.583 156.062 602.214 156.114C601.851 156.167 601.525 156.193 601.238 156.193C600.236 156.193 599.475 155.924 598.953 155.385C598.432 154.846 598.171 153.981 598.171 152.792V147.571H597.055V146.183H598.171V143.361H599.823V146.183H603.233V147.571H599.823V152.045C599.823 152.561 599.835 152.965 599.858 153.258C599.882 153.545 599.964 153.814 600.104 154.066C600.233 154.301 600.409 154.474 600.632 154.585C600.86 154.69 601.206 154.743 601.669 154.743C601.938 154.743 602.22 154.705 602.513 154.629C602.806 154.547 603.017 154.479 603.146 154.427H603.233V155.912ZM607.013 144.539H605.149V142.825H607.013V144.539ZM606.907 156H605.255V146.183H606.907V156ZM618.544 151.096C618.544 152.695 618.134 153.958 617.313 154.884C616.493 155.81 615.395 156.272 614.018 156.272C612.629 156.272 611.524 155.81 610.704 154.884C609.89 153.958 609.482 152.695 609.482 151.096C609.482 149.496 609.89 148.233 610.704 147.308C611.524 146.376 612.629 145.91 614.018 145.91C615.395 145.91 616.493 146.376 617.313 147.308C618.134 148.233 618.544 149.496 618.544 151.096ZM616.839 151.096C616.839 149.824 616.59 148.881 616.092 148.266C615.594 147.645 614.902 147.334 614.018 147.334C613.121 147.334 612.424 147.645 611.926 148.266C611.434 148.881 611.188 149.824 611.188 151.096C611.188 152.326 611.437 153.261 611.935 153.899C612.433 154.532 613.127 154.849 614.018 154.849C614.896 154.849 615.585 154.535 616.083 153.908C616.587 153.275 616.839 152.338 616.839 151.096ZM629.319 156H627.667V150.41C627.667 149.959 627.641 149.537 627.588 149.145C627.535 148.746 627.438 148.436 627.298 148.213C627.151 147.967 626.94 147.785 626.665 147.668C626.39 147.545 626.032 147.483 625.593 147.483C625.142 147.483 624.67 147.595 624.178 147.817C623.686 148.04 623.214 148.324 622.763 148.67V156H621.11V146.183H622.763V147.272C623.278 146.845 623.812 146.511 624.362 146.271C624.913 146.03 625.479 145.91 626.059 145.91C627.119 145.91 627.928 146.229 628.484 146.868C629.041 147.507 629.319 148.427 629.319 149.628V156ZM641.255 156H632.633V142.913H641.255V144.46H634.373V148.046H641.255V149.593H634.373V154.453H641.255V156ZM652.382 146.183L648.409 156H646.748L642.802 146.183H644.595L647.636 153.996L650.65 146.183H652.382ZM662.604 151.263H655.37C655.37 151.866 655.461 152.394 655.643 152.845C655.824 153.29 656.073 153.656 656.39 153.943C656.694 154.225 657.055 154.436 657.471 154.576C657.893 154.717 658.355 154.787 658.859 154.787C659.527 154.787 660.198 154.655 660.872 154.392C661.552 154.122 662.035 153.858 662.322 153.601H662.41V155.402C661.854 155.637 661.285 155.833 660.705 155.991C660.125 156.149 659.516 156.229 658.877 156.229C657.248 156.229 655.977 155.789 655.062 154.91C654.148 154.025 653.691 152.771 653.691 151.148C653.691 149.543 654.128 148.269 655.001 147.325C655.88 146.382 657.034 145.91 658.464 145.91C659.788 145.91 660.808 146.297 661.522 147.07C662.243 147.844 662.604 148.942 662.604 150.366V151.263ZM660.995 149.997C660.989 149.13 660.77 148.459 660.336 147.984C659.908 147.51 659.255 147.272 658.376 147.272C657.491 147.272 656.785 147.533 656.258 148.055C655.736 148.576 655.44 149.224 655.37 149.997H660.995ZM673.317 156H671.665V150.41C671.665 149.959 671.639 149.537 671.586 149.145C671.533 148.746 671.437 148.436 671.296 148.213C671.149 147.967 670.938 147.785 670.663 147.668C670.388 147.545 670.03 147.483 669.591 147.483C669.14 147.483 668.668 147.595 668.176 147.817C667.684 148.04 667.212 148.324 666.761 148.67V156H665.108V146.183H666.761V147.272C667.276 146.845 667.81 146.511 668.36 146.271C668.911 146.03 669.477 145.91 670.057 145.91C671.117 145.91 671.926 146.229 672.482 146.868C673.039 147.507 673.317 148.427 673.317 149.628V156ZM681.597 155.912C681.286 155.994 680.946 156.062 680.577 156.114C680.214 156.167 679.889 156.193 679.602 156.193C678.6 156.193 677.838 155.924 677.316 155.385C676.795 154.846 676.534 153.981 676.534 152.792V147.571H675.418V146.183H676.534V143.361H678.187V146.183H681.597V147.571H678.187V152.045C678.187 152.561 678.198 152.965 678.222 153.258C678.245 153.545 678.327 153.814 678.468 154.066C678.597 154.301 678.772 154.474 678.995 154.585C679.224 154.69 679.569 154.743 680.032 154.743C680.302 154.743 680.583 154.705 680.876 154.629C681.169 154.547 681.38 154.479 681.509 154.427H681.597V155.912Z" fill="black"/>
<path d="M465 60H470C473.333 60 475 61.6667 475 65V145C475 148.333 476.667 150 480 150H495" stroke="black" stroke-width="2" stroke-linecap="round" stroke-linejoin="round"/>
<path d="M230 60C233.333 60 235 61.6667 235 65V85C235 88.3333 236.667 90 240 90H255" stroke="black" stroke-width="2" stroke-linecap="round" stroke-linejoin="round"/>
<path d="M241 54L254.191 54C254.612 54 255.006 54.2068 255.245 54.5532V54.5532C257.506 57.8325 257.506 62.1675 255.245 65.4468V65.4468C255.006 65.7932 254.612 66 254.191 66L241 66" stroke="black" stroke-width="2"/>
<path d="M241 84L254.191 84C254.612 84 255.006 84.2068 255.245 84.5532V84.5532C257.506 87.8325 257.506 92.1675 255.245 95.4468V95.4468C255.006 95.7932 254.612 96 254.191 96L241 96" stroke="black" stroke-width="2"/>
<path d="M481 84L494.191 84C494.612 84 495.006 84.2068 495.245 84.5532V84.5532C497.506 87.8325 497.506 92.1675 495.245 95.4468V95.4468C495.006 95.7932 494.612 96 494.191 96L481 96" stroke="black" stroke-width="2"/>
<path d="M481 54L494.191 54C494.612 54 495.006 54.2068 495.245 54.5532V54.5532C497.506 57.8325 497.506 62.1675 495.245 65.4468V65.4468C495.006 65.7932 494.612 66 494.191 66L481 66" stroke="black" stroke-width="2"/>
<path d="M481 114L494.191 114C494.612 114 495.006 114.207 495.245 114.553V114.553C497.506 117.832 497.506 122.168 495.245 125.447V125.447C495.006 125.793 494.612 126 494.191 126L481 126" stroke="black" stroke-width="2"/>
<path d="M481 144L494.191 144C494.612 144 495.006 144.207 495.245 144.553V144.553C497.506 147.832 497.506 152.168 495.245 155.447V155.447C495.006 155.793 494.612 156 494.191 156L481 156" stroke="black" stroke-width="2"/>
<path d="M721 84L734.191 84C734.612 84 735.006 84.2068 735.245 84.5532V84.5532C737.506 87.8325 737.506 92.1675 735.245 95.4468V95.4468C735.006 95.7932 734.612 96 734.191 96L721 96" stroke="black" stroke-width="2"/>
</svg>
