<svg width="640" height="690" viewBox="0 0 640 690" fill="none" xmlns="http://www.w3.org/2000/svg">
<g clip-path="url(#clip0_0_1)">
<g filter="url(#filter0_d_0_1)">
<path d="M380 10H240V50H380V10Z" fill="#DCDCDC"/>
<path d="M380 10H240V50H380V10Z" stroke="black" stroke-width="2"/>
</g>
<path d="M291.481 22.9131L288.08 36H286.12L283.369 25.1367L280.68 36H278.764L275.301 22.9131H277.085L279.836 33.7939L282.543 22.9131H284.31L287.043 33.8994L289.776 22.9131H291.481ZM295.7 24.5391H293.837V22.8252H295.7V24.5391ZM295.595 36H293.942V26.1826H295.595V36ZM307.073 36H305.421V30.4102C305.421 29.959 305.395 29.5371 305.342 29.1445C305.289 28.7461 305.192 28.4355 305.052 28.2129C304.905 27.9668 304.694 27.7852 304.419 27.668C304.144 27.5449 303.786 27.4834 303.347 27.4834C302.896 27.4834 302.424 27.5947 301.932 27.8174C301.439 28.04 300.968 28.3242 300.517 28.6699V36H298.864V26.1826H300.517V27.2725C301.032 26.8447 301.565 26.5107 302.116 26.2705C302.667 26.0303 303.232 25.9102 303.812 25.9102C304.873 25.9102 305.682 26.2295 306.238 26.8682C306.795 27.5068 307.073 28.4268 307.073 29.6279V36ZM318.218 36H316.565V34.9717C316.091 35.3818 315.596 35.7012 315.08 35.9297C314.564 36.1582 314.005 36.2725 313.401 36.2725C312.229 36.2725 311.298 35.8213 310.606 34.9189C309.921 34.0166 309.578 32.7656 309.578 31.166C309.578 30.334 309.695 29.5928 309.93 28.9424C310.17 28.292 310.492 27.7383 310.896 27.2812C311.295 26.8359 311.758 26.4961 312.285 26.2617C312.818 26.0273 313.369 25.9102 313.938 25.9102C314.453 25.9102 314.91 25.9658 315.309 26.0771C315.707 26.1826 316.126 26.3496 316.565 26.5781V22.3242H318.218V36ZM316.565 33.583V27.9492C316.12 27.75 315.722 27.6123 315.37 27.5361C315.019 27.46 314.635 27.4219 314.219 27.4219C313.293 27.4219 312.572 27.7441 312.057 28.3887C311.541 29.0332 311.283 29.9473 311.283 31.1309C311.283 32.2969 311.482 33.1846 311.881 33.7939C312.279 34.3975 312.918 34.6992 313.797 34.6992C314.266 34.6992 314.74 34.5967 315.221 34.3916C315.701 34.1807 316.149 33.9111 316.565 33.583ZM329.837 31.0957C329.837 32.6953 329.427 33.958 328.606 34.8838C327.786 35.8096 326.688 36.2725 325.311 36.2725C323.922 36.2725 322.817 35.8096 321.997 34.8838C321.183 33.958 320.775 32.6953 320.775 31.0957C320.775 29.4961 321.183 28.2334 321.997 27.3076C322.817 26.376 323.922 25.9102 325.311 25.9102C326.688 25.9102 327.786 26.376 328.606 27.3076C329.427 28.2334 329.837 29.4961 329.837 31.0957ZM328.132 31.0957C328.132 29.8242 327.883 28.8809 327.385 28.2656C326.887 27.6445 326.195 27.334 325.311 27.334C324.414 27.334 323.717 27.6445 323.219 28.2656C322.727 28.8809 322.48 29.8242 322.48 31.0957C322.48 32.3262 322.729 33.2607 323.228 33.8994C323.726 34.5322 324.42 34.8486 325.311 34.8486C326.189 34.8486 326.878 34.5352 327.376 33.9082C327.88 33.2754 328.132 32.3379 328.132 31.0957ZM344.752 26.1826L342.194 36H340.665L338.143 28.4326L335.638 36H334.117L331.533 26.1826H333.256L335.058 33.7852L337.51 26.1826H338.872L341.386 33.7852L343.091 26.1826H344.752Z" fill="black"/>
<g filter="url(#filter1_d_0_1)">
<path d="M370 80H250V120H370V80Z" fill="#DCDCDC"/>
<path d="M370 80H250V120H370V80Z" stroke="black" stroke-width="2"/>
</g>
<path d="M277.163 99.4697C277.163 100.659 276.902 101.737 276.381 102.704C275.865 103.671 275.177 104.421 274.315 104.954C273.718 105.323 273.05 105.59 272.312 105.754C271.579 105.918 270.612 106 269.411 106H266.106V92.9131H269.376C270.653 92.9131 271.667 93.0068 272.417 93.1943C273.173 93.376 273.812 93.6279 274.333 93.9502C275.224 94.5068 275.918 95.248 276.416 96.1738C276.914 97.0996 277.163 98.1982 277.163 99.4697ZM275.344 99.4434C275.344 98.418 275.165 97.5537 274.808 96.8506C274.45 96.1475 273.917 95.5938 273.208 95.1895C272.692 94.8965 272.145 94.6943 271.564 94.583C270.984 94.4658 270.29 94.4072 269.481 94.4072H267.847V104.506H269.481C270.319 104.506 271.049 104.444 271.67 104.321C272.297 104.198 272.871 103.97 273.393 103.636C274.043 103.22 274.529 102.672 274.852 101.992C275.18 101.312 275.344 100.463 275.344 99.4434ZM288.211 101.096C288.211 102.695 287.801 103.958 286.98 104.884C286.16 105.81 285.062 106.272 283.685 106.272C282.296 106.272 281.191 105.81 280.371 104.884C279.557 103.958 279.149 102.695 279.149 101.096C279.149 99.4961 279.557 98.2334 280.371 97.3076C281.191 96.376 282.296 95.9102 283.685 95.9102C285.062 95.9102 286.16 96.376 286.98 97.3076C287.801 98.2334 288.211 99.4961 288.211 101.096ZM286.506 101.096C286.506 99.8242 286.257 98.8809 285.759 98.2656C285.261 97.6445 284.569 97.334 283.685 97.334C282.788 97.334 282.091 97.6445 281.593 98.2656C281.101 98.8809 280.854 99.8242 280.854 101.096C280.854 102.326 281.104 103.261 281.602 103.899C282.1 104.532 282.794 104.849 283.685 104.849C284.563 104.849 285.252 104.535 285.75 103.908C286.254 103.275 286.506 102.338 286.506 101.096ZM298.037 105.385C297.486 105.648 296.962 105.854 296.464 106C295.972 106.146 295.447 106.22 294.891 106.22C294.182 106.22 293.531 106.117 292.939 105.912C292.348 105.701 291.841 105.385 291.419 104.963C290.991 104.541 290.66 104.008 290.426 103.363C290.191 102.719 290.074 101.966 290.074 101.104C290.074 99.499 290.514 98.2393 291.393 97.3252C292.277 96.4111 293.443 95.9541 294.891 95.9541C295.453 95.9541 296.004 96.0332 296.543 96.1914C297.088 96.3496 297.586 96.543 298.037 96.7715V98.6084H297.949C297.445 98.2158 296.924 97.9141 296.385 97.7031C295.852 97.4922 295.33 97.3867 294.82 97.3867C293.883 97.3867 293.142 97.7031 292.597 98.3359C292.058 98.9629 291.788 99.8857 291.788 101.104C291.788 102.288 292.052 103.199 292.579 103.838C293.112 104.471 293.859 104.787 294.82 104.787C295.154 104.787 295.494 104.743 295.84 104.655C296.186 104.567 296.496 104.453 296.771 104.312C297.012 104.189 297.237 104.061 297.448 103.926C297.659 103.785 297.826 103.665 297.949 103.565H298.037V105.385ZM308.303 106H306.65V104.91C306.094 105.35 305.561 105.687 305.051 105.921C304.541 106.155 303.979 106.272 303.363 106.272C302.332 106.272 301.529 105.959 300.955 105.332C300.381 104.699 300.094 103.773 300.094 102.555V96.1826H301.746V101.772C301.746 102.271 301.77 102.698 301.816 103.056C301.863 103.407 301.963 103.709 302.115 103.961C302.273 104.219 302.479 104.406 302.73 104.523C302.982 104.641 303.349 104.699 303.829 104.699C304.257 104.699 304.723 104.588 305.227 104.365C305.736 104.143 306.211 103.858 306.65 103.513V96.1826H308.303V106ZM325.881 106H324.229V100.41C324.229 99.9883 324.208 99.5811 324.167 99.1885C324.132 98.7959 324.053 98.4824 323.93 98.248C323.795 97.9961 323.602 97.8057 323.35 97.6768C323.098 97.5479 322.734 97.4834 322.26 97.4834C321.797 97.4834 321.334 97.6006 320.871 97.835C320.408 98.0635 319.945 98.3564 319.482 98.7139C319.5 98.8486 319.515 99.0068 319.526 99.1885C319.538 99.3643 319.544 99.54 319.544 99.7158V106H317.892V100.41C317.892 99.9766 317.871 99.5664 317.83 99.1797C317.795 98.7871 317.716 98.4736 317.593 98.2393C317.458 97.9873 317.265 97.7998 317.013 97.6768C316.761 97.5479 316.397 97.4834 315.923 97.4834C315.472 97.4834 315.018 97.5947 314.561 97.8174C314.109 98.04 313.658 98.3242 313.207 98.6699V106H311.555V96.1826H313.207V97.2725C313.723 96.8447 314.235 96.5107 314.745 96.2705C315.261 96.0303 315.809 95.9102 316.389 95.9102C317.057 95.9102 317.622 96.0508 318.085 96.332C318.554 96.6133 318.902 97.0029 319.131 97.501C319.799 96.9385 320.408 96.5342 320.959 96.2881C321.51 96.0361 322.099 95.9102 322.726 95.9102C323.804 95.9102 324.598 96.2383 325.107 96.8945C325.623 97.5449 325.881 98.4561 325.881 99.6279V106ZM337.28 101.263H330.047C330.047 101.866 330.138 102.394 330.319 102.845C330.501 103.29 330.75 103.656 331.066 103.943C331.371 104.225 331.731 104.436 332.147 104.576C332.569 104.717 333.032 104.787 333.536 104.787C334.204 104.787 334.875 104.655 335.549 104.392C336.229 104.122 336.712 103.858 336.999 103.601H337.087V105.402C336.53 105.637 335.962 105.833 335.382 105.991C334.802 106.149 334.192 106.229 333.554 106.229C331.925 106.229 330.653 105.789 329.739 104.91C328.825 104.025 328.368 102.771 328.368 101.148C328.368 99.543 328.805 98.2686 329.678 97.3252C330.557 96.3818 331.711 95.9102 333.141 95.9102C334.465 95.9102 335.484 96.2969 336.199 97.0703C336.92 97.8438 337.28 98.9424 337.28 100.366V101.263ZM335.672 99.9971C335.666 99.1299 335.446 98.459 335.013 97.9844C334.585 97.5098 333.932 97.2725 333.053 97.2725C332.168 97.2725 331.462 97.5332 330.935 98.0547C330.413 98.5762 330.117 99.2236 330.047 99.9971H335.672ZM347.994 106H346.342V100.41C346.342 99.959 346.315 99.5371 346.263 99.1445C346.21 98.7461 346.113 98.4355 345.973 98.2129C345.826 97.9668 345.615 97.7852 345.34 97.668C345.064 97.5449 344.707 97.4834 344.268 97.4834C343.816 97.4834 343.345 97.5947 342.853 97.8174C342.36 98.04 341.889 98.3242 341.438 98.6699V106H339.785V96.1826H341.438V97.2725C341.953 96.8447 342.486 96.5107 343.037 96.2705C343.588 96.0303 344.153 95.9102 344.733 95.9102C345.794 95.9102 346.603 96.2295 347.159 96.8682C347.716 97.5068 347.994 98.4268 347.994 99.6279V106ZM356.273 105.912C355.963 105.994 355.623 106.062 355.254 106.114C354.891 106.167 354.565 106.193 354.278 106.193C353.276 106.193 352.515 105.924 351.993 105.385C351.472 104.846 351.211 103.981 351.211 102.792V97.5713H350.095V96.1826H351.211V93.3613H352.863V96.1826H356.273V97.5713H352.863V102.045C352.863 102.561 352.875 102.965 352.898 103.258C352.922 103.545 353.004 103.814 353.145 104.066C353.273 104.301 353.449 104.474 353.672 104.585C353.9 104.69 354.246 104.743 354.709 104.743C354.979 104.743 355.26 104.705 355.553 104.629C355.846 104.547 356.057 104.479 356.186 104.427H356.273V105.912Z" fill="black"/>
<g filter="url(#filter2_d_0_1)">
<path d="M355 150H265C262.239 150 260 152.239 260 155V185C260 187.761 262.239 190 265 190H355C357.761 190 360 187.761 360 185V155C360 152.239 357.761 150 355 150Z" fill="#87CEFA"/>
<path d="M355 150H265C262.239 150 260 152.239 260 155V185C260 187.761 262.239 190 265 190H355C357.761 190 360 187.761 360 185V155C360 152.239 357.761 150 355 150Z" stroke="black" stroke-width="2"/>
</g>
<path d="M287.675 175.323L277.532 170.814V169.725L287.675 165.216V166.798L279.677 170.27L287.675 173.741V175.323ZM299.865 176H298.213V170.41C298.213 169.959 298.187 169.537 298.134 169.145C298.081 168.746 297.984 168.436 297.844 168.213C297.697 167.967 297.486 167.785 297.211 167.668C296.936 167.545 296.578 167.483 296.139 167.483C295.688 167.483 295.216 167.595 294.724 167.817C294.231 168.04 293.76 168.324 293.309 168.67V176H291.656V162.324H293.309V167.272C293.824 166.845 294.357 166.511 294.908 166.271C295.459 166.03 296.024 165.91 296.604 165.91C297.665 165.91 298.474 166.229 299.03 166.868C299.587 167.507 299.865 168.427 299.865 169.628V176ZM308.145 175.912C307.834 175.994 307.494 176.062 307.125 176.114C306.762 176.167 306.437 176.193 306.149 176.193C305.147 176.193 304.386 175.924 303.864 175.385C303.343 174.846 303.082 173.981 303.082 172.792V167.571H301.966V166.183H303.082V163.361H304.734V166.183H308.145V167.571H304.734V172.045C304.734 172.561 304.746 172.965 304.77 173.258C304.793 173.545 304.875 173.814 305.016 174.066C305.145 174.301 305.32 174.474 305.543 174.585C305.771 174.69 306.117 174.743 306.58 174.743C306.85 174.743 307.131 174.705 307.424 174.629C307.717 174.547 307.928 174.479 308.057 174.427H308.145V175.912ZM324.475 176H322.822V170.41C322.822 169.988 322.802 169.581 322.761 169.188C322.726 168.796 322.646 168.482 322.523 168.248C322.389 167.996 322.195 167.806 321.943 167.677C321.691 167.548 321.328 167.483 320.854 167.483C320.391 167.483 319.928 167.601 319.465 167.835C319.002 168.063 318.539 168.356 318.076 168.714C318.094 168.849 318.108 169.007 318.12 169.188C318.132 169.364 318.138 169.54 318.138 169.716V176H316.485V170.41C316.485 169.977 316.465 169.566 316.424 169.18C316.389 168.787 316.31 168.474 316.187 168.239C316.052 167.987 315.858 167.8 315.606 167.677C315.354 167.548 314.991 167.483 314.517 167.483C314.065 167.483 313.611 167.595 313.154 167.817C312.703 168.04 312.252 168.324 311.801 168.67V176H310.148V166.183H311.801V167.272C312.316 166.845 312.829 166.511 313.339 166.271C313.854 166.03 314.402 165.91 314.982 165.91C315.65 165.91 316.216 166.051 316.679 166.332C317.147 166.613 317.496 167.003 317.725 167.501C318.393 166.938 319.002 166.534 319.553 166.288C320.104 166.036 320.692 165.91 321.319 165.91C322.397 165.91 323.191 166.238 323.701 166.895C324.217 167.545 324.475 168.456 324.475 169.628V176ZM329.326 176H327.674V162.324H329.326V176ZM343.468 170.814L333.325 175.323V173.741L341.323 170.27L333.325 166.798V165.216L343.468 169.725V170.814Z" fill="black"/>
<g filter="url(#filter3_d_0_1)">
<path d="M355 220H265C262.239 220 260 222.239 260 225V255C260 257.761 262.239 260 265 260H355C357.761 260 360 257.761 360 255V225C360 222.239 357.761 220 355 220Z" fill="#87CEFA"/>
<path d="M355 220H265C262.239 220 260 222.239 260 225V255C260 257.761 262.239 260 265 260H355C357.761 260 360 257.761 360 255V225C360 222.239 357.761 220 355 220Z" stroke="black" stroke-width="2"/>
</g>
<path d="M285.637 245.323L275.494 240.814V239.725L285.637 235.216V236.798L277.639 240.27L285.637 243.741V245.323ZM298.258 241.017C298.258 241.837 298.141 242.575 297.906 243.231C297.678 243.888 297.367 244.438 296.975 244.884C296.559 245.347 296.102 245.695 295.604 245.93C295.105 246.158 294.558 246.272 293.96 246.272C293.403 246.272 292.917 246.205 292.501 246.07C292.085 245.941 291.675 245.766 291.271 245.543L291.165 246H289.618V232.324H291.271V237.211C291.733 236.83 292.226 236.52 292.747 236.279C293.269 236.033 293.854 235.91 294.505 235.91C295.665 235.91 296.579 236.355 297.247 237.246C297.921 238.137 298.258 239.394 298.258 241.017ZM296.553 241.061C296.553 239.889 296.359 239.001 295.973 238.397C295.586 237.788 294.962 237.483 294.101 237.483C293.62 237.483 293.134 237.589 292.642 237.8C292.149 238.005 291.692 238.271 291.271 238.6V244.225C291.739 244.436 292.141 244.582 292.475 244.664C292.814 244.746 293.198 244.787 293.626 244.787C294.54 244.787 295.255 244.488 295.771 243.891C296.292 243.287 296.553 242.344 296.553 241.061ZM309.2 241.096C309.2 242.695 308.79 243.958 307.97 244.884C307.149 245.81 306.051 246.272 304.674 246.272C303.285 246.272 302.181 245.81 301.36 244.884C300.546 243.958 300.139 242.695 300.139 241.096C300.139 239.496 300.546 238.233 301.36 237.308C302.181 236.376 303.285 235.91 304.674 235.91C306.051 235.91 307.149 236.376 307.97 237.308C308.79 238.233 309.2 239.496 309.2 241.096ZM307.495 241.096C307.495 239.824 307.246 238.881 306.748 238.266C306.25 237.645 305.559 237.334 304.674 237.334C303.777 237.334 303.08 237.645 302.582 238.266C302.09 238.881 301.844 239.824 301.844 241.096C301.844 242.326 302.093 243.261 302.591 243.899C303.089 244.532 303.783 244.849 304.674 244.849C305.553 244.849 306.241 244.535 306.739 243.908C307.243 243.275 307.495 242.338 307.495 241.096ZM319.729 246H318.077V244.972C317.603 245.382 317.107 245.701 316.592 245.93C316.076 246.158 315.517 246.272 314.913 246.272C313.741 246.272 312.81 245.821 312.118 244.919C311.433 244.017 311.09 242.766 311.09 241.166C311.09 240.334 311.207 239.593 311.441 238.942C311.682 238.292 312.004 237.738 312.408 237.281C312.807 236.836 313.27 236.496 313.797 236.262C314.33 236.027 314.881 235.91 315.449 235.91C315.965 235.91 316.422 235.966 316.82 236.077C317.219 236.183 317.638 236.35 318.077 236.578V232.324H319.729V246ZM318.077 243.583V237.949C317.632 237.75 317.233 237.612 316.882 237.536C316.53 237.46 316.146 237.422 315.73 237.422C314.805 237.422 314.084 237.744 313.568 238.389C313.053 239.033 312.795 239.947 312.795 241.131C312.795 242.297 312.994 243.185 313.393 243.794C313.791 244.397 314.43 244.699 315.309 244.699C315.777 244.699 316.252 244.597 316.732 244.392C317.213 244.181 317.661 243.911 318.077 243.583ZM331.472 236.183L325.741 249.621H323.975L325.803 245.525L321.892 236.183H323.685L326.699 243.46L329.74 236.183H331.472ZM344.506 240.814L334.363 245.323V243.741L342.361 240.27L334.363 236.798V235.216L344.506 239.725V240.814Z" fill="black"/>
<g filter="url(#filter4_d_0_1)">
<path d="M355 290H265C262.239 290 260 292.239 260 295V325C260 327.761 262.239 330 265 330H355C357.761 330 360 327.761 360 325V295C360 292.239 357.761 290 355 290Z" fill="#87CEFA"/>
<path d="M355 290H265C262.239 290 260 292.239 260 295V325C260 327.761 262.239 330 265 330H355C357.761 330 360 327.761 360 325V295C360 292.239 357.761 290 355 290Z" stroke="black" stroke-width="2"/>
</g>
<path d="M285.75 315.323L275.607 310.814V309.725L285.75 305.216V306.798L277.752 310.27L285.75 313.741V315.323ZM294.829 315.912C294.519 315.994 294.179 316.062 293.81 316.114C293.446 316.167 293.121 316.193 292.834 316.193C291.832 316.193 291.07 315.924 290.549 315.385C290.027 314.846 289.767 313.981 289.767 312.792V307.571H288.65V306.183H289.767V303.361H291.419V306.183H294.829V307.571H291.419V312.045C291.419 312.561 291.431 312.965 291.454 313.258C291.478 313.545 291.56 313.814 291.7 314.066C291.829 314.301 292.005 314.474 292.228 314.585C292.456 314.69 292.802 314.743 293.265 314.743C293.534 314.743 293.815 314.705 294.108 314.629C294.401 314.547 294.612 314.479 294.741 314.427H294.829V315.912ZM304.462 316H302.818V314.954C302.672 315.054 302.473 315.194 302.221 315.376C301.975 315.552 301.734 315.692 301.5 315.798C301.225 315.933 300.908 316.044 300.551 316.132C300.193 316.226 299.774 316.272 299.294 316.272C298.409 316.272 297.659 315.979 297.044 315.394C296.429 314.808 296.121 314.061 296.121 313.152C296.121 312.408 296.279 311.808 296.596 311.351C296.918 310.888 297.375 310.524 297.967 310.261C298.564 309.997 299.282 309.818 300.12 309.725C300.958 309.631 301.857 309.561 302.818 309.514V309.259C302.818 308.884 302.751 308.573 302.616 308.327C302.487 308.081 302.3 307.888 302.054 307.747C301.819 307.612 301.538 307.521 301.21 307.475C300.882 307.428 300.539 307.404 300.182 307.404C299.748 307.404 299.265 307.463 298.731 307.58C298.198 307.691 297.647 307.855 297.079 308.072H296.991V306.394C297.313 306.306 297.779 306.209 298.389 306.104C298.998 305.998 299.599 305.945 300.19 305.945C300.882 305.945 301.482 306.004 301.992 306.121C302.508 306.232 302.953 306.426 303.328 306.701C303.697 306.971 303.979 307.319 304.172 307.747C304.365 308.175 304.462 308.705 304.462 309.338V316ZM302.818 313.583V310.85C302.314 310.879 301.72 310.923 301.034 310.981C300.354 311.04 299.815 311.125 299.417 311.236C298.942 311.371 298.559 311.582 298.266 311.869C297.973 312.15 297.826 312.54 297.826 313.038C297.826 313.601 297.996 314.025 298.336 314.312C298.676 314.594 299.194 314.734 299.892 314.734C300.472 314.734 301.002 314.623 301.482 314.4C301.963 314.172 302.408 313.899 302.818 313.583ZM316.283 311.017C316.283 311.837 316.166 312.575 315.932 313.231C315.703 313.888 315.393 314.438 315 314.884C314.584 315.347 314.127 315.695 313.629 315.93C313.131 316.158 312.583 316.272 311.985 316.272C311.429 316.272 310.942 316.205 310.526 316.07C310.11 315.941 309.7 315.766 309.296 315.543L309.19 316H307.644V302.324H309.296V307.211C309.759 306.83 310.251 306.52 310.772 306.279C311.294 306.033 311.88 305.91 312.53 305.91C313.69 305.91 314.604 306.355 315.272 307.246C315.946 308.137 316.283 309.394 316.283 311.017ZM314.578 311.061C314.578 309.889 314.385 309.001 313.998 308.397C313.611 307.788 312.987 307.483 312.126 307.483C311.646 307.483 311.159 307.589 310.667 307.8C310.175 308.005 309.718 308.271 309.296 308.6V314.225C309.765 314.436 310.166 314.582 310.5 314.664C310.84 314.746 311.224 314.787 311.651 314.787C312.565 314.787 313.28 314.488 313.796 313.891C314.317 313.287 314.578 312.344 314.578 311.061ZM320.528 316H318.876V302.324H320.528V316ZM332.016 311.263H324.782C324.782 311.866 324.873 312.394 325.055 312.845C325.236 313.29 325.485 313.656 325.802 313.943C326.106 314.225 326.467 314.436 326.883 314.576C327.305 314.717 327.768 314.787 328.271 314.787C328.939 314.787 329.61 314.655 330.284 314.392C330.964 314.122 331.447 313.858 331.734 313.601H331.822V315.402C331.266 315.637 330.697 315.833 330.117 315.991C329.537 316.149 328.928 316.229 328.289 316.229C326.66 316.229 325.389 315.789 324.475 314.91C323.561 314.025 323.104 312.771 323.104 311.148C323.104 309.543 323.54 308.269 324.413 307.325C325.292 306.382 326.446 305.91 327.876 305.91C329.2 305.91 330.22 306.297 330.935 307.07C331.655 307.844 332.016 308.942 332.016 310.366V311.263ZM330.407 309.997C330.401 309.13 330.182 308.459 329.748 307.984C329.32 307.51 328.667 307.272 327.788 307.272C326.903 307.272 326.197 307.533 325.67 308.055C325.148 308.576 324.853 309.224 324.782 309.997H330.407ZM345.393 310.814L335.25 315.323V313.741L343.248 310.27L335.25 306.798V305.216L345.393 309.725V310.814Z" fill="black"/>
<g filter="url(#filter5_d_0_1)">
<path d="M355 360H265C262.239 360 260 362.239 260 365V395C260 397.761 262.239 400 265 400H355C357.761 400 360 397.761 360 395V365C360 362.239 357.761 360 355 360Z" fill="#87CEFA"/>
<path d="M355 360H265C262.239 360 260 362.239 260 365V395C260 397.761 262.239 400 265 400H355C357.761 400 360 397.761 360 395V365C360 362.239 357.761 360 355 360Z" stroke="black" stroke-width="2"/>
</g>
<path d="M282.586 385.323L272.443 380.814V379.725L282.586 375.216V376.798L274.588 380.27L282.586 383.741V385.323ZM291.665 385.912C291.354 385.994 291.015 386.062 290.646 386.114C290.282 386.167 289.957 386.193 289.67 386.193C288.668 386.193 287.906 385.924 287.385 385.385C286.863 384.846 286.603 383.981 286.603 382.792V377.571H285.486V376.183H286.603V373.361H288.255V376.183H291.665V377.571H288.255V382.045C288.255 382.561 288.267 382.965 288.29 383.258C288.313 383.545 288.396 383.814 288.536 384.066C288.665 384.301 288.841 384.474 289.063 384.585C289.292 384.69 289.638 384.743 290.101 384.743C290.37 384.743 290.651 384.705 290.944 384.629C291.237 384.547 291.448 384.479 291.577 384.427H291.665V385.912ZM302.309 381.017C302.309 381.837 302.191 382.575 301.957 383.231C301.729 383.888 301.418 384.438 301.025 384.884C300.609 385.347 300.152 385.695 299.654 385.93C299.156 386.158 298.608 386.272 298.011 386.272C297.454 386.272 296.968 386.205 296.552 386.07C296.136 385.941 295.726 385.766 295.321 385.543L295.216 386H293.669V372.324H295.321V377.211C295.784 376.83 296.276 376.52 296.798 376.279C297.319 376.033 297.905 375.91 298.556 375.91C299.716 375.91 300.63 376.355 301.298 377.246C301.972 378.137 302.309 379.394 302.309 381.017ZM300.604 381.061C300.604 379.889 300.41 379.001 300.023 378.397C299.637 377.788 299.013 377.483 298.151 377.483C297.671 377.483 297.185 377.589 296.692 377.8C296.2 378.005 295.743 378.271 295.321 378.6V384.225C295.79 384.436 296.191 384.582 296.525 384.664C296.865 384.746 297.249 384.787 297.677 384.787C298.591 384.787 299.306 384.488 299.821 383.891C300.343 383.287 300.604 382.344 300.604 381.061ZM313.251 381.096C313.251 382.695 312.841 383.958 312.021 384.884C311.2 385.81 310.102 386.272 308.725 386.272C307.336 386.272 306.231 385.81 305.411 384.884C304.597 383.958 304.189 382.695 304.189 381.096C304.189 379.496 304.597 378.233 305.411 377.308C306.231 376.376 307.336 375.91 308.725 375.91C310.102 375.91 311.2 376.376 312.021 377.308C312.841 378.233 313.251 379.496 313.251 381.096ZM311.546 381.096C311.546 379.824 311.297 378.881 310.799 378.266C310.301 377.645 309.609 377.334 308.725 377.334C307.828 377.334 307.131 377.645 306.633 378.266C306.141 378.881 305.895 379.824 305.895 381.096C305.895 382.326 306.144 383.261 306.642 383.899C307.14 384.532 307.834 384.849 308.725 384.849C309.604 384.849 310.292 384.535 310.79 383.908C311.294 383.275 311.546 382.338 311.546 381.096ZM323.78 386H322.128V384.972C321.653 385.382 321.158 385.701 320.643 385.93C320.127 386.158 319.567 386.272 318.964 386.272C317.792 386.272 316.86 385.821 316.169 384.919C315.483 384.017 315.141 382.766 315.141 381.166C315.141 380.334 315.258 379.593 315.492 378.942C315.732 378.292 316.055 377.738 316.459 377.281C316.857 376.836 317.32 376.496 317.848 376.262C318.381 376.027 318.932 375.91 319.5 375.91C320.016 375.91 320.473 375.966 320.871 376.077C321.27 376.183 321.688 376.35 322.128 376.578V372.324H323.78V386ZM322.128 383.583V377.949C321.683 377.75 321.284 377.612 320.933 377.536C320.581 377.46 320.197 377.422 319.781 377.422C318.855 377.422 318.135 377.744 317.619 378.389C317.104 379.033 316.846 379.947 316.846 381.131C316.846 382.297 317.045 383.185 317.443 383.794C317.842 384.397 318.48 384.699 319.359 384.699C319.828 384.699 320.303 384.597 320.783 384.392C321.264 384.181 321.712 383.911 322.128 383.583ZM335.522 376.183L329.792 389.621H328.025L329.854 385.525L325.942 376.183H327.735L330.75 383.46L333.791 376.183H335.522ZM348.557 380.814L338.414 385.323V383.741L346.412 380.27L338.414 376.798V375.216L348.557 379.725V380.814Z" fill="black"/>
<g filter="url(#filter6_d_0_1)">
<path d="M185 450H95C92.2386 450 90 452.239 90 455V485C90 487.761 92.2386 490 95 490H185C187.761 490 190 487.761 190 485V455C190 452.239 187.761 450 185 450Z" fill="#87CEFA"/>
<path d="M185 450H95C92.2386 450 90 452.239 90 455V485C90 487.761 92.2386 490 95 490H185C187.761 490 190 487.761 190 485V455C190 452.239 187.761 450 185 450Z" stroke="black" stroke-width="2"/>
</g>
<path d="M130.753 475.323L120.61 470.814V469.725L130.753 465.216V466.798L122.755 470.27L130.753 473.741V475.323ZM139.832 475.912C139.521 475.994 139.182 476.062 138.812 476.114C138.449 476.167 138.124 476.193 137.837 476.193C136.835 476.193 136.073 475.924 135.552 475.385C135.03 474.846 134.77 473.981 134.77 472.792V467.571H133.653V466.183H134.77V463.361H136.422V466.183H139.832V467.571H136.422V472.045C136.422 472.561 136.434 472.965 136.457 473.258C136.48 473.545 136.562 473.814 136.703 474.066C136.832 474.301 137.008 474.474 137.23 474.585C137.459 474.69 137.805 474.743 138.268 474.743C138.537 474.743 138.818 474.705 139.111 474.629C139.404 474.547 139.615 474.479 139.744 474.427H139.832V475.912ZM147.962 467.984H147.874C147.628 467.926 147.388 467.885 147.153 467.861C146.925 467.832 146.652 467.817 146.336 467.817C145.826 467.817 145.334 467.932 144.859 468.16C144.385 468.383 143.928 468.673 143.488 469.03V476H141.836V466.183H143.488V467.633C144.145 467.105 144.722 466.733 145.22 466.517C145.724 466.294 146.236 466.183 146.758 466.183C147.045 466.183 147.253 466.191 147.382 466.209C147.511 466.221 147.704 466.247 147.962 466.288V467.984ZM160.39 470.814L150.247 475.323V473.741L158.245 470.27L150.247 466.798V465.216L160.39 469.725V470.814Z" fill="black"/>
<g filter="url(#filter7_d_0_1)">
<path d="M545 450H455C452.239 450 450 452.239 450 455V485C450 487.761 452.239 490 455 490H545C547.761 490 550 487.761 550 485V455C550 452.239 547.761 450 545 450Z" fill="#87CEFA"/>
<path d="M545 450H455C452.239 450 450 452.239 450 455V485C450 487.761 452.239 490 455 490H545C547.761 490 550 487.761 550 485V455C550 452.239 547.761 450 545 450Z" stroke="black" stroke-width="2"/>
</g>
<path d="M490.753 475.323L480.61 470.814V469.725L490.753 465.216V466.798L482.755 470.27L490.753 473.741V475.323ZM499.832 475.912C499.521 475.994 499.182 476.062 498.812 476.114C498.449 476.167 498.124 476.193 497.837 476.193C496.835 476.193 496.073 475.924 495.552 475.385C495.03 474.846 494.77 473.981 494.77 472.792V467.571H493.653V466.183H494.77V463.361H496.422V466.183H499.832V467.571H496.422V472.045C496.422 472.561 496.434 472.965 496.457 473.258C496.48 473.545 496.562 473.814 496.703 474.066C496.832 474.301 497.008 474.474 497.23 474.585C497.459 474.69 497.805 474.743 498.268 474.743C498.537 474.743 498.818 474.705 499.111 474.629C499.404 474.547 499.615 474.479 499.744 474.427H499.832V475.912ZM507.962 467.984H507.874C507.628 467.926 507.388 467.885 507.153 467.861C506.925 467.832 506.652 467.817 506.336 467.817C505.826 467.817 505.334 467.932 504.859 468.16C504.385 468.383 503.928 468.673 503.488 469.03V476H501.836V466.183H503.488V467.633C504.145 467.105 504.722 466.733 505.22 466.517C505.724 466.294 506.236 466.183 506.758 466.183C507.045 466.183 507.253 466.191 507.382 466.209C507.511 466.221 507.704 466.247 507.962 466.288V467.984ZM520.39 470.814L510.247 475.323V473.741L518.245 470.27L510.247 466.798V465.216L520.39 469.725V470.814Z" fill="black"/>
<g filter="url(#filter8_d_0_1)">
<path d="M115 540H25C22.2386 540 20 542.239 20 545V575C20 577.761 22.2386 580 25 580H115C117.761 580 120 577.761 120 575V545C120 542.239 117.761 540 115 540Z" fill="#87CEFA"/>
<path d="M115 540H25C22.2386 540 20 542.239 20 545V575C20 577.761 22.2386 580 25 580H115C117.761 580 120 577.761 120 575V545C120 542.239 117.761 540 115 540Z" stroke="black" stroke-width="2"/>
</g>
<path d="M58.4863 565.323L48.3438 560.814V559.725L58.4863 555.216V556.798L50.4883 560.27L58.4863 563.741V565.323ZM67.5654 565.912C67.2549 565.994 66.915 566.062 66.5459 566.114C66.1826 566.167 65.8574 566.193 65.5703 566.193C64.5684 566.193 63.8066 565.924 63.2852 565.385C62.7637 564.846 62.5029 563.981 62.5029 562.792V557.571H61.3867V556.183H62.5029V553.361H64.1553V556.183H67.5654V557.571H64.1553V562.045C64.1553 562.561 64.167 562.965 64.1904 563.258C64.2139 563.545 64.2959 563.814 64.4365 564.066C64.5654 564.301 64.7412 564.474 64.9639 564.585C65.1924 564.69 65.5381 564.743 66.001 564.743C66.2705 564.743 66.5518 564.705 66.8447 564.629C67.1377 564.547 67.3486 564.479 67.4775 564.427H67.5654V565.912ZM77.5322 566H75.8799V564.972C75.4053 565.382 74.9102 565.701 74.3945 565.93C73.8789 566.158 73.3193 566.272 72.7158 566.272C71.5439 566.272 70.6123 565.821 69.9209 564.919C69.2354 564.017 68.8926 562.766 68.8926 561.166C68.8926 560.334 69.0098 559.593 69.2441 558.942C69.4844 558.292 69.8066 557.738 70.2109 557.281C70.6094 556.836 71.0723 556.496 71.5996 556.262C72.1328 556.027 72.6836 555.91 73.252 555.91C73.7676 555.91 74.2246 555.966 74.623 556.077C75.0215 556.183 75.4404 556.35 75.8799 556.578V552.324H77.5322V566ZM75.8799 563.583V557.949C75.4346 557.75 75.0361 557.612 74.6846 557.536C74.333 557.46 73.9492 557.422 73.5332 557.422C72.6074 557.422 71.8867 557.744 71.3711 558.389C70.8555 559.033 70.5977 559.947 70.5977 561.131C70.5977 562.297 70.7969 563.185 71.1953 563.794C71.5938 564.397 72.2324 564.699 73.1113 564.699C73.5801 564.699 74.0547 564.597 74.5352 564.392C75.0156 564.181 75.4639 563.911 75.8799 563.583ZM91.6562 560.814L81.5137 565.323V563.741L89.5117 560.27L81.5137 556.798V555.216L91.6562 559.725V560.814Z" fill="black"/>
<g filter="url(#filter9_d_0_1)">
<path d="M70 680C105.346 680 134 664.33 134 645C134 625.67 105.346 610 70 610C34.6538 610 6 625.67 6 645C6 664.33 34.6538 680 70 680Z" fill="#4682B4"/>
<path d="M70 680C105.346 680 134 664.33 134 645C134 625.67 105.346 610 70 610C34.6538 610 6 625.67 6 645C6 664.33 34.6538 680 70 680Z" stroke="black" stroke-width="2"/>
</g>
<path d="M46.0919 640.52L47.2769 640.865C45.3869 646.37 41.9819 649.46 36.5219 651.23C36.4019 650.945 36.0419 650.405 35.8019 650.135C41.1569 648.605 44.4119 645.665 46.0919 640.52ZM39.2819 640.595C40.9019 645.395 44.2769 648.845 49.6919 650.105C49.4219 650.375 49.0619 650.885 48.8819 651.215C43.3169 649.76 40.0169 646.19 38.1719 640.94L39.2819 640.595ZM35.9819 639.95H49.5419V641.06H35.9819V639.95ZM42.1319 637.4H43.2869V640.625H42.1319V637.4ZM51.1919 640.565H64.2869V641.705H51.1919V640.565ZM54.1919 647.255H61.1819V648.395H54.1919V647.255ZM57.1169 637.415H58.3019V651.2H57.1169V637.415ZM56.7719 640.94L57.7769 641.285C56.4419 644.465 54.0869 647.33 51.4919 648.845C51.3119 648.56 50.9369 648.14 50.6819 647.915C53.1869 646.61 55.5719 643.82 56.7719 640.94ZM58.6769 640.985C59.8619 643.835 62.2169 646.565 64.8119 647.81C64.5269 648.05 64.1369 648.5 63.9569 648.815C61.3019 647.345 58.9919 644.48 57.6719 641.33L58.6769 640.985ZM76.7969 642.71H77.9669V647.72C77.9669 648.41 77.8169 648.785 77.2619 648.965C76.7219 649.16 75.7919 649.16 74.3669 649.16C74.3219 648.8 74.1569 648.32 74.0069 647.975C75.1169 648.02 76.1369 648.02 76.4219 647.99C76.7219 647.99 76.7969 647.915 76.7969 647.705V642.71ZM70.6319 643.385H71.8019V651.17H70.6319V643.385ZM66.6869 642.71H77.2919V643.79H66.6869V642.71ZM66.0569 639.11H79.4069V640.19H66.0569V639.11ZM69.5669 637.4H70.7069V641.9H69.5669V637.4ZM74.7419 637.4H75.9119V641.9H74.7419V637.4ZM87.0419 637.4H88.1819V642.515H87.0419V637.4ZM83.7719 643.04V645.725H91.6169V643.04H83.7719ZM82.7069 641.975H92.7569V646.775H82.7069V641.975ZM87.5669 639.005H93.8819V640.07H87.5669V639.005ZM85.3169 648.08L86.3969 647.99C86.6069 648.965 86.7719 650.195 86.7869 650.93L85.6319 651.08C85.6319 650.315 85.5119 649.055 85.3169 648.08ZM88.4219 648.095L89.4419 647.885C89.9069 648.785 90.4019 650 90.5819 650.765L89.4719 651.035C89.3219 650.285 88.8719 649.04 88.4219 648.095ZM91.4819 647.975L92.4869 647.6C93.2519 648.53 94.1219 649.805 94.4819 650.645L93.4169 651.08C93.0719 650.255 92.2469 648.935 91.4819 647.975ZM82.8869 647.69L83.9519 647.96C83.4569 649.13 82.6919 650.405 81.8819 651.2L80.8469 650.69C81.6419 650.015 82.4219 648.8 82.8869 647.69ZM103.171 650H97.2681V648.887H99.5386V641.577H97.2681V640.581C97.5757 640.581 97.9053 640.557 98.2568 640.508C98.6084 640.454 98.8745 640.378 99.0552 640.281C99.2798 640.159 99.4556 640.005 99.5825 639.819C99.7144 639.629 99.79 639.375 99.8096 639.058H100.945V648.887H103.171V650Z" fill="white"/>
<g filter="url(#filter10_d_0_1)">
<path d="M255 540H165C162.239 540 160 542.239 160 545V575C160 577.761 162.239 580 165 580H255C257.761 580 260 577.761 260 575V545C260 542.239 257.761 540 255 540Z" fill="#87CEFA"/>
<path d="M255 540H165C162.239 540 160 542.239 160 545V575C160 577.761 162.239 580 165 580H255C257.761 580 260 577.761 260 575V545C260 542.239 257.761 540 255 540Z" stroke="black" stroke-width="2"/>
</g>
<path d="M198.486 565.323L188.344 560.814V559.725L198.486 555.216V556.798L190.488 560.27L198.486 563.741V565.323ZM207.565 565.912C207.255 565.994 206.915 566.062 206.546 566.114C206.183 566.167 205.857 566.193 205.57 566.193C204.568 566.193 203.807 565.924 203.285 565.385C202.764 564.846 202.503 563.981 202.503 562.792V557.571H201.387V556.183H202.503V553.361H204.155V556.183H207.565V557.571H204.155V562.045C204.155 562.561 204.167 562.965 204.19 563.258C204.214 563.545 204.296 563.814 204.437 564.066C204.565 564.301 204.741 564.474 204.964 564.585C205.192 564.69 205.538 564.743 206.001 564.743C206.271 564.743 206.552 564.705 206.845 564.629C207.138 564.547 207.349 564.479 207.478 564.427H207.565V565.912ZM217.532 566H215.88V564.972C215.405 565.382 214.91 565.701 214.395 565.93C213.879 566.158 213.319 566.272 212.716 566.272C211.544 566.272 210.612 565.821 209.921 564.919C209.235 564.017 208.893 562.766 208.893 561.166C208.893 560.334 209.01 559.593 209.244 558.942C209.484 558.292 209.807 557.738 210.211 557.281C210.609 556.836 211.072 556.496 211.6 556.262C212.133 556.027 212.684 555.91 213.252 555.91C213.768 555.91 214.225 555.966 214.623 556.077C215.021 556.183 215.44 556.35 215.88 556.578V552.324H217.532V566ZM215.88 563.583V557.949C215.435 557.75 215.036 557.612 214.685 557.536C214.333 557.46 213.949 557.422 213.533 557.422C212.607 557.422 211.887 557.744 211.371 558.389C210.855 559.033 210.598 559.947 210.598 561.131C210.598 562.297 210.797 563.185 211.195 563.794C211.594 564.397 212.232 564.699 213.111 564.699C213.58 564.699 214.055 564.597 214.535 564.392C215.016 564.181 215.464 563.911 215.88 563.583ZM231.656 560.814L221.514 565.323V563.741L229.512 560.27L221.514 556.798V555.216L231.656 559.725V560.814Z" fill="black"/>
<g filter="url(#filter11_d_0_1)">
<path d="M210 680C245.346 680 274 664.33 274 645C274 625.67 245.346 610 210 610C174.654 610 146 625.67 146 645C146 664.33 174.654 680 210 680Z" fill="#4682B4"/>
<path d="M210 680C245.346 680 274 664.33 274 645C274 625.67 245.346 610 210 610C174.654 610 146 625.67 146 645C146 664.33 174.654 680 210 680Z" stroke="black" stroke-width="2"/>
</g>
<path d="M186.592 641.52L187.777 641.865C185.887 647.37 182.482 650.46 177.022 652.23C176.902 651.945 176.542 651.405 176.302 651.135C181.657 649.605 184.912 646.665 186.592 641.52ZM179.782 641.595C181.402 646.395 184.777 649.845 190.192 651.105C189.922 651.375 189.562 651.885 189.382 652.215C183.817 650.76 180.517 647.19 178.672 641.94L179.782 641.595ZM176.482 640.95H190.042V642.06H176.482V640.95ZM182.632 638.4H183.787V641.625H182.632V638.4ZM191.692 641.565H204.787V642.705H191.692V641.565ZM194.692 648.255H201.682V649.395H194.692V648.255ZM197.617 638.415H198.802V652.2H197.617V638.415ZM197.272 641.94L198.277 642.285C196.942 645.465 194.587 648.33 191.992 649.845C191.812 649.56 191.437 649.14 191.182 648.915C193.687 647.61 196.072 644.82 197.272 641.94ZM199.177 641.985C200.362 644.835 202.717 647.565 205.312 648.81C205.027 649.05 204.637 649.5 204.457 649.815C201.802 648.345 199.492 645.48 198.172 642.33L199.177 641.985ZM217.297 643.71H218.467V648.72C218.467 649.41 218.317 649.785 217.762 649.965C217.222 650.16 216.292 650.16 214.867 650.16C214.822 649.8 214.657 649.32 214.507 648.975C215.617 649.02 216.637 649.02 216.922 648.99C217.222 648.99 217.297 648.915 217.297 648.705V643.71ZM211.132 644.385H212.302V652.17H211.132V644.385ZM207.187 643.71H217.792V644.79H207.187V643.71ZM206.557 640.11H219.907V641.19H206.557V640.11ZM210.067 638.4H211.207V642.9H210.067V638.4ZM215.242 638.4H216.412V642.9H215.242V638.4ZM227.542 638.4H228.682V643.515H227.542V638.4ZM224.272 644.04V646.725H232.117V644.04H224.272ZM223.207 642.975H233.257V647.775H223.207V642.975ZM228.067 640.005H234.382V641.07H228.067V640.005ZM225.817 649.08L226.897 648.99C227.107 649.965 227.272 651.195 227.287 651.93L226.132 652.08C226.132 651.315 226.012 650.055 225.817 649.08ZM228.922 649.095L229.942 648.885C230.407 649.785 230.902 651 231.082 651.765L229.972 652.035C229.822 651.285 229.372 650.04 228.922 649.095ZM231.982 648.975L232.987 648.6C233.752 649.53 234.622 650.805 234.982 651.645L233.917 652.08C233.572 651.255 232.747 649.935 231.982 648.975ZM223.387 648.69L224.452 648.96C223.957 650.13 223.192 651.405 222.382 652.2L221.347 651.69C222.142 651.015 222.922 649.8 223.387 648.69ZM244.294 651H236.911V649.469C237.424 649.03 237.937 648.59 238.449 648.151C238.967 647.711 239.448 647.274 239.892 646.84C240.83 645.932 241.472 645.211 241.818 644.679C242.165 644.142 242.338 643.563 242.338 642.943C242.338 642.377 242.15 641.935 241.774 641.618C241.403 641.295 240.883 641.134 240.214 641.134C239.77 641.134 239.289 641.212 238.771 641.369C238.254 641.525 237.749 641.764 237.255 642.086H237.182V640.548C237.529 640.377 237.99 640.221 238.566 640.08C239.147 639.938 239.709 639.867 240.251 639.867C241.369 639.867 242.246 640.138 242.88 640.68C243.515 641.217 243.833 641.947 243.833 642.87C243.833 643.285 243.779 643.673 243.671 644.035C243.569 644.391 243.415 644.73 243.21 645.053C243.02 645.355 242.795 645.653 242.536 645.946C242.282 646.239 241.972 646.564 241.606 646.92C241.083 647.433 240.544 647.931 239.987 648.415C239.431 648.893 238.911 649.337 238.427 649.748H244.294V651Z" fill="white"/>
<g filter="url(#filter12_d_0_1)">
<path d="M475 540H385C382.239 540 380 542.239 380 545V575C380 577.761 382.239 580 385 580H475C477.761 580 480 577.761 480 575V545C480 542.239 477.761 540 475 540Z" fill="#0000FF"/>
<path d="M475 540H385C382.239 540 380 542.239 380 545V575C380 577.761 382.239 580 385 580H475C477.761 580 480 577.761 480 575V545C480 542.239 477.761 540 475 540Z" stroke="black" stroke-width="2"/>
</g>
<path d="M418.486 565.323L408.344 560.814V559.725L418.486 555.216V556.798L410.488 560.27L418.486 563.741V565.323ZM427.565 565.912C427.255 565.994 426.915 566.062 426.546 566.114C426.183 566.167 425.857 566.193 425.57 566.193C424.568 566.193 423.807 565.924 423.285 565.385C422.764 564.846 422.503 563.981 422.503 562.792V557.571H421.387V556.183H422.503V553.361H424.155V556.183H427.565V557.571H424.155V562.045C424.155 562.561 424.167 562.965 424.19 563.258C424.214 563.545 424.296 563.814 424.437 564.066C424.565 564.301 424.741 564.474 424.964 564.585C425.192 564.69 425.538 564.743 426.001 564.743C426.271 564.743 426.552 564.705 426.845 564.629C427.138 564.547 427.349 564.479 427.478 564.427H427.565V565.912ZM437.532 566H435.88V564.972C435.405 565.382 434.91 565.701 434.395 565.93C433.879 566.158 433.319 566.272 432.716 566.272C431.544 566.272 430.612 565.821 429.921 564.919C429.235 564.017 428.893 562.766 428.893 561.166C428.893 560.334 429.01 559.593 429.244 558.942C429.484 558.292 429.807 557.738 430.211 557.281C430.609 556.836 431.072 556.496 431.6 556.262C432.133 556.027 432.684 555.91 433.252 555.91C433.768 555.91 434.225 555.966 434.623 556.077C435.021 556.183 435.44 556.35 435.88 556.578V552.324H437.532V566ZM435.88 563.583V557.949C435.435 557.75 435.036 557.612 434.685 557.536C434.333 557.46 433.949 557.422 433.533 557.422C432.607 557.422 431.887 557.744 431.371 558.389C430.855 559.033 430.598 559.947 430.598 561.131C430.598 562.297 430.797 563.185 431.195 563.794C431.594 564.397 432.232 564.699 433.111 564.699C433.58 564.699 434.055 564.597 434.535 564.392C435.016 564.181 435.464 563.911 435.88 563.583ZM451.656 560.814L441.514 565.323V563.741L449.512 560.27L441.514 556.798V555.216L451.656 559.725V560.814Z" fill="white"/>
<g filter="url(#filter13_d_0_1)">
<path d="M430 680C465.346 680 494 664.33 494 645C494 625.67 465.346 610 430 610C394.654 610 366 625.67 366 645C366 664.33 394.654 680 430 680Z" fill="#4682B4"/>
<path d="M430 680C465.346 680 494 664.33 494 645C494 625.67 465.346 610 430 610C394.654 610 366 625.67 366 645C366 664.33 394.654 680 430 680Z" stroke="black" stroke-width="2"/>
</g>
<path d="M406.092 641.52L407.277 641.865C405.387 647.37 401.982 650.46 396.522 652.23C396.402 651.945 396.042 651.405 395.802 651.135C401.157 649.605 404.412 646.665 406.092 641.52ZM399.282 641.595C400.902 646.395 404.277 649.845 409.692 651.105C409.422 651.375 409.062 651.885 408.882 652.215C403.317 650.76 400.017 647.19 398.172 641.94L399.282 641.595ZM395.982 640.95H409.542V642.06H395.982V640.95ZM402.132 638.4H403.287V641.625H402.132V638.4ZM411.192 641.565H424.287V642.705H411.192V641.565ZM414.192 648.255H421.182V649.395H414.192V648.255ZM417.117 638.415H418.302V652.2H417.117V638.415ZM416.772 641.94L417.777 642.285C416.442 645.465 414.087 648.33 411.492 649.845C411.312 649.56 410.937 649.14 410.682 648.915C413.187 647.61 415.572 644.82 416.772 641.94ZM418.677 641.985C419.862 644.835 422.217 647.565 424.812 648.81C424.527 649.05 424.137 649.5 423.957 649.815C421.302 648.345 418.992 645.48 417.672 642.33L418.677 641.985ZM436.797 643.71H437.967V648.72C437.967 649.41 437.817 649.785 437.262 649.965C436.722 650.16 435.792 650.16 434.367 650.16C434.322 649.8 434.157 649.32 434.007 648.975C435.117 649.02 436.137 649.02 436.422 648.99C436.722 648.99 436.797 648.915 436.797 648.705V643.71ZM430.632 644.385H431.802V652.17H430.632V644.385ZM426.687 643.71H437.292V644.79H426.687V643.71ZM426.057 640.11H439.407V641.19H426.057V640.11ZM429.567 638.4H430.707V642.9H429.567V638.4ZM434.742 638.4H435.912V642.9H434.742V638.4ZM447.042 638.4H448.182V643.515H447.042V638.4ZM443.772 644.04V646.725H451.617V644.04H443.772ZM442.707 642.975H452.757V647.775H442.707V642.975ZM447.567 640.005H453.882V641.07H447.567V640.005ZM445.317 649.08L446.397 648.99C446.607 649.965 446.772 651.195 446.787 651.93L445.632 652.08C445.632 651.315 445.512 650.055 445.317 649.08ZM448.422 649.095L449.442 648.885C449.907 649.785 450.402 651 450.582 651.765L449.472 652.035C449.322 651.285 448.872 650.04 448.422 649.095ZM451.482 648.975L452.487 648.6C453.252 649.53 454.122 650.805 454.482 651.645L453.417 652.08C453.072 651.255 452.247 649.935 451.482 648.975ZM442.887 648.69L443.952 648.96C443.457 650.13 442.692 651.405 441.882 652.2L440.847 651.69C441.642 651.015 442.422 649.8 442.887 648.69ZM462.834 645.749C463.069 645.958 463.262 646.222 463.413 646.54C463.564 646.857 463.64 647.267 463.64 647.77C463.64 648.268 463.55 648.725 463.369 649.14C463.188 649.555 462.935 649.916 462.607 650.224C462.241 650.565 461.809 650.819 461.311 650.985C460.818 651.146 460.276 651.227 459.685 651.227C459.08 651.227 458.484 651.154 457.898 651.007C457.312 650.866 456.831 650.709 456.455 650.539V649.008H456.565C456.98 649.281 457.468 649.508 458.03 649.689C458.591 649.87 459.133 649.96 459.656 649.96C459.963 649.96 460.291 649.909 460.637 649.806C460.984 649.704 461.265 649.552 461.479 649.352C461.704 649.137 461.87 648.9 461.978 648.642C462.09 648.383 462.146 648.056 462.146 647.66C462.146 647.27 462.083 646.947 461.956 646.693C461.833 646.435 461.663 646.232 461.443 646.085C461.223 645.934 460.957 645.832 460.645 645.778C460.332 645.719 459.995 645.69 459.634 645.69H458.975V644.474H459.487C460.229 644.474 460.82 644.32 461.26 644.013C461.704 643.7 461.926 643.246 461.926 642.65C461.926 642.387 461.87 642.157 461.758 641.962C461.646 641.762 461.489 641.598 461.289 641.471C461.079 641.344 460.854 641.256 460.615 641.208C460.376 641.159 460.105 641.134 459.802 641.134C459.338 641.134 458.845 641.217 458.323 641.383C457.8 641.549 457.307 641.784 456.843 642.086H456.77V640.556C457.117 640.385 457.578 640.229 458.154 640.087C458.735 639.94 459.297 639.867 459.839 639.867C460.371 639.867 460.84 639.916 461.245 640.014C461.65 640.111 462.017 640.268 462.344 640.482C462.695 640.717 462.961 641 463.142 641.332C463.323 641.664 463.413 642.052 463.413 642.497C463.413 643.102 463.198 643.632 462.769 644.086C462.344 644.535 461.841 644.818 461.26 644.936V645.038C461.494 645.077 461.763 645.16 462.065 645.287C462.368 645.409 462.625 645.563 462.834 645.749Z" fill="white"/>
<g filter="url(#filter14_d_0_1)">
<path d="M615 540H525C522.239 540 520 542.239 520 545V575C520 577.761 522.239 580 525 580H615C617.761 580 620 577.761 620 575V545C620 542.239 617.761 540 615 540Z" fill="#87CEFA"/>
<path d="M615 540H525C522.239 540 520 542.239 520 545V575C520 577.761 522.239 580 525 580H615C617.761 580 620 577.761 620 575V545C620 542.239 617.761 540 615 540Z" stroke="black" stroke-width="2"/>
</g>
<path d="M558.486 565.323L548.344 560.814V559.725L558.486 555.216V556.798L550.488 560.27L558.486 563.741V565.323ZM567.565 565.912C567.255 565.994 566.915 566.062 566.546 566.114C566.183 566.167 565.857 566.193 565.57 566.193C564.568 566.193 563.807 565.924 563.285 565.385C562.764 564.846 562.503 563.981 562.503 562.792V557.571H561.387V556.183H562.503V553.361H564.155V556.183H567.565V557.571H564.155V562.045C564.155 562.561 564.167 562.965 564.19 563.258C564.214 563.545 564.296 563.814 564.437 564.066C564.565 564.301 564.741 564.474 564.964 564.585C565.192 564.69 565.538 564.743 566.001 564.743C566.271 564.743 566.552 564.705 566.845 564.629C567.138 564.547 567.349 564.479 567.478 564.427H567.565V565.912ZM577.532 566H575.88V564.972C575.405 565.382 574.91 565.701 574.395 565.93C573.879 566.158 573.319 566.272 572.716 566.272C571.544 566.272 570.612 565.821 569.921 564.919C569.235 564.017 568.893 562.766 568.893 561.166C568.893 560.334 569.01 559.593 569.244 558.942C569.484 558.292 569.807 557.738 570.211 557.281C570.609 556.836 571.072 556.496 571.6 556.262C572.133 556.027 572.684 555.91 573.252 555.91C573.768 555.91 574.225 555.966 574.623 556.077C575.021 556.183 575.44 556.35 575.88 556.578V552.324H577.532V566ZM575.88 563.583V557.949C575.435 557.75 575.036 557.612 574.685 557.536C574.333 557.46 573.949 557.422 573.533 557.422C572.607 557.422 571.887 557.744 571.371 558.389C570.855 559.033 570.598 559.947 570.598 561.131C570.598 562.297 570.797 563.185 571.195 563.794C571.594 564.397 572.232 564.699 573.111 564.699C573.58 564.699 574.055 564.597 574.535 564.392C575.016 564.181 575.464 563.911 575.88 563.583ZM591.656 560.814L581.514 565.323V563.741L589.512 560.27L581.514 556.798V555.216L591.656 559.725V560.814Z" fill="black"/>
<g filter="url(#filter15_d_0_1)">
<path d="M570 680C605.346 680 634 664.33 634 645C634 625.67 605.346 610 570 610C534.654 610 506 625.67 506 645C506 664.33 534.654 680 570 680Z" fill="#4682B4"/>
<path d="M570 680C605.346 680 634 664.33 634 645C634 625.67 605.346 610 570 610C534.654 610 506 625.67 506 645C506 664.33 534.654 680 570 680Z" stroke="black" stroke-width="2"/>
</g>
<path d="M546.092 640.52L547.277 640.865C545.387 646.37 541.982 649.46 536.522 651.23C536.402 650.945 536.042 650.405 535.802 650.135C541.157 648.605 544.412 645.665 546.092 640.52ZM539.282 640.595C540.902 645.395 544.277 648.845 549.692 650.105C549.422 650.375 549.062 650.885 548.882 651.215C543.317 649.76 540.017 646.19 538.172 640.94L539.282 640.595ZM535.982 639.95H549.542V641.06H535.982V639.95ZM542.132 637.4H543.287V640.625H542.132V637.4ZM551.192 640.565H564.287V641.705H551.192V640.565ZM554.192 647.255H561.182V648.395H554.192V647.255ZM557.117 637.415H558.302V651.2H557.117V637.415ZM556.772 640.94L557.777 641.285C556.442 644.465 554.087 647.33 551.492 648.845C551.312 648.56 550.937 648.14 550.682 647.915C553.187 646.61 555.572 643.82 556.772 640.94ZM558.677 640.985C559.862 643.835 562.217 646.565 564.812 647.81C564.527 648.05 564.137 648.5 563.957 648.815C561.302 647.345 558.992 644.48 557.672 641.33L558.677 640.985ZM576.797 642.71H577.967V647.72C577.967 648.41 577.817 648.785 577.262 648.965C576.722 649.16 575.792 649.16 574.367 649.16C574.322 648.8 574.157 648.32 574.007 647.975C575.117 648.02 576.137 648.02 576.422 647.99C576.722 647.99 576.797 647.915 576.797 647.705V642.71ZM570.632 643.385H571.802V651.17H570.632V643.385ZM566.687 642.71H577.292V643.79H566.687V642.71ZM566.057 639.11H579.407V640.19H566.057V639.11ZM569.567 637.4H570.707V641.9H569.567V637.4ZM574.742 637.4H575.912V641.9H574.742V637.4ZM587.042 637.4H588.182V642.515H587.042V637.4ZM583.772 643.04V645.725H591.617V643.04H583.772ZM582.707 641.975H592.757V646.775H582.707V641.975ZM587.567 639.005H593.882V640.07H587.567V639.005ZM585.317 648.08L586.397 647.99C586.607 648.965 586.772 650.195 586.787 650.93L585.632 651.08C585.632 650.315 585.512 649.055 585.317 648.08ZM588.422 648.095L589.442 647.885C589.907 648.785 590.402 650 590.582 650.765L589.472 651.035C589.322 650.285 588.872 649.04 588.422 648.095ZM591.482 647.975L592.487 647.6C593.252 648.53 594.122 649.805 594.482 650.645L593.417 651.08C593.072 650.255 592.247 648.935 591.482 647.975ZM582.887 647.69L583.952 647.96C583.457 649.13 582.692 650.405 581.882 651.2L580.847 650.69C581.642 650.015 582.422 648.8 582.887 647.69ZM604.043 646.931H602.424V650H601.018V646.931H595.796V645.247L601.077 639.094H602.424V645.759H604.043V646.931ZM601.018 645.759V640.837L596.792 645.759H601.018Z" fill="white"/>
<path d="M310 50V73" stroke="black" stroke-width="2"/>
<path d="M310 120V143" stroke="black" stroke-width="2"/>
<path d="M310 190V213" stroke="black" stroke-width="2"/>
<path d="M310 260V283" stroke="black" stroke-width="2"/>
<path d="M310 330V353" stroke="black" stroke-width="2"/>
<path d="M310 400C310 413.333 293.333 420 260 420H160C146.667 420 140 427.667 140 443" stroke="black" stroke-width="2"/>
<path d="M310 400C310 413.333 333.333 420 380 420H480C493.333 420 500 427.667 500 443" stroke="black" stroke-width="2"/>
<path d="M140 490C140 503.333 133.333 510 120 510H90C76.6667 510 70 517.667 70 533" stroke="black" stroke-width="2"/>
<path d="M140 490C140 503.333 146.667 510 160 510H190C203.333 510 210 517.667 210 533" stroke="black" stroke-width="2"/>
<path d="M500 490C500 503.333 493.333 510 480 510H450C436.667 510 430 517.667 430 533" stroke="black" stroke-width="2"/>
<path d="M500 490C500 503.333 513.333 510 540 510H550C563.333 510 570 517.667 570 533" stroke="black" stroke-width="2"/>
<path d="M70 580V603" stroke="black" stroke-width="2"/>
<path d="M210 580V603" stroke="black" stroke-width="2"/>
<path d="M430 580V603" stroke="black" stroke-width="2"/>
<path d="M570 580V603" stroke="black" stroke-width="2"/>
<path d="M137.48 205.76H149.12V207.94H137.48V205.76ZM137.88 209.3H147.64V211.4H140.08V221.76H137.88V209.3ZM146.54 209.3H148.76V219.7C148.76 220.66 148.58 221.16 147.98 221.46C147.4 221.78 146.54 221.8 145.4 221.8C145.34 221.24 145.12 220.46 144.88 219.96C145.46 219.98 146.06 219.98 146.26 219.96C146.48 219.96 146.54 219.88 146.54 219.68V209.3ZM142.08 203H144.3V221.6H142.08V203ZM138.58 212.68H148.06V214.66H138.58V212.68ZM138.58 215.98H148.06V217.96H138.58V215.98ZM144.82 204.56L145.92 203.1C146.88 203.54 148.32 204.28 149.04 204.72L147.9 206.36C147.22 205.88 145.82 205.08 144.82 204.56ZM130.4 213.26C132.18 212.9 134.82 212.22 137.32 211.6L137.6 213.74C135.26 214.4 132.78 215.08 130.82 215.58L130.4 213.26ZM130.7 206.8H137.36V209.02H130.7V206.8ZM133.12 203.02H135.44V219.3C135.44 220.42 135.22 221.02 134.56 221.38C133.9 221.74 132.94 221.8 131.54 221.8C131.48 221.2 131.18 220.24 130.88 219.64C131.66 219.66 132.48 219.66 132.74 219.66C133.02 219.66 133.12 219.56 133.12 219.28V203.02ZM157.78 211.26H168.86V213.46H157.78V211.26ZM164.34 208.98L165.98 207.88C166.84 208.52 167.86 209.5 168.3 210.22L166.56 211.44C166.16 210.74 165.2 209.7 164.34 208.98ZM164.1 212.54C164.86 215.84 166.44 218.56 169.28 219.78C168.76 220.22 168.06 221.12 167.76 221.72C164.7 220.12 163.12 216.96 162.22 212.88L164.1 212.54ZM151.1 204.4H168.9V206.56H151.1V204.4ZM155.4 203.02H157.78V207.9H155.4V203.02ZM162.28 203.02H164.66V207.7H162.28V203.02ZM161.92 208.08H164.16V211.18C164.16 214.46 163.5 218.8 158.86 221.84C158.44 221.34 157.66 220.7 157.08 220.28C161.38 217.48 161.92 213.8 161.92 211.16V208.08ZM151.56 208.9L153.12 207.68C156.98 209.98 157.52 212.86 157.52 215.84C157.52 218.04 157.26 219.88 156.34 220.88C156.04 221.22 155.62 221.44 155.14 221.52C154.38 221.7 153.6 221.7 152.64 221.66C152.62 221 152.4 220.2 152 219.6C152.98 219.66 153.7 219.66 154.12 219.6C154.42 219.58 154.58 219.48 154.74 219.28C155.16 218.76 155.32 217.54 155.32 215.68C155.32 213.06 154.58 210.74 151.56 208.9ZM155.04 212.94L156.64 213.92C155.6 215.44 153.6 217.18 151.96 218.14C151.64 217.6 151.06 216.84 150.56 216.4C152.18 215.72 154.1 214.26 155.04 212.94ZM156.02 207.96L157.96 209.02C156.46 210.74 154.16 212.3 152 213.3C151.68 212.82 151.02 212.1 150.58 211.7C152.68 210.84 154.8 209.36 156.02 207.96Z" fill="#FF0000"/>
<path d="M144.5 231.08H146.86V241.74H144.5V231.08ZM139.84 231.06H142.18V234.02C142.18 236.7 141.94 239.64 139.6 241.9C139.08 241.44 138.04 240.82 137.32 240.52C139.58 238.56 139.84 236.18 139.84 233.98V231.06ZM144 223.58C145.12 225.84 147.36 228.08 149.68 229.22C149.16 229.68 148.42 230.54 148.06 231.12C145.62 229.68 143.36 227.08 141.98 224.3L144 223.58ZM142.26 222.82L144.74 223.2C143.76 226.36 142 229.36 138.74 231.58C138.44 231.02 137.74 230.08 137.22 229.68C140.08 227.88 141.6 225.26 142.26 222.82ZM131.4 223.8H136.86V226.04H133.74V241.84H131.4V223.8ZM136.14 223.8H136.6L136.94 223.72L138.64 224.72C137.98 226.4 137.14 228.32 136.4 229.82C138.04 231.4 138.36 232.82 138.36 234C138.36 235.32 138.02 236.2 137.28 236.7C136.92 236.96 136.48 237.08 135.98 237.16C135.54 237.22 134.96 237.22 134.42 237.2C134.4 236.6 134.18 235.66 133.82 235.02C134.26 235.08 134.64 235.08 134.94 235.06C135.2 235.06 135.46 235.02 135.64 234.9C135.96 234.72 136.1 234.32 136.1 233.74C136.08 232.78 135.66 231.5 134.1 230.12C134.84 228.38 135.72 225.8 136.14 224.5V223.8ZM159.26 231.86H166.6V234.02H159.26V231.86ZM153.28 227.98H158.38V230.2H153.28V227.98ZM153.28 231.84H158.56V234.06H153.28V231.84ZM161.34 223.76H165.86V225.84H161.34V223.76ZM166.26 231.86H166.7L167.12 231.78L168.66 232.34C167.24 237.66 163.72 240.48 158.94 241.86C158.7 241.22 158.12 240.24 157.68 239.72C161.94 238.74 165.18 236.24 166.26 232.22V231.86ZM162.06 233.8C163.3 236.72 165.88 238.8 169.64 239.64C169.08 240.12 168.4 241.12 168.06 241.78C164.02 240.62 161.48 238.1 159.96 234.36L162.06 233.8ZM152.1 224.36L154.38 225.04V241.76H152.1V224.36ZM150.44 236.66C152.66 236.42 155.96 236 159.06 235.58L159.14 237.78C156.24 238.22 153.12 238.68 150.82 239L150.44 236.66ZM160.3 223.76H162.5V226.68C162.5 228.54 162.08 230.72 159.88 232.02C159.56 231.58 158.68 230.72 158.22 230.42C160.1 229.36 160.3 227.94 160.3 226.62V223.76ZM157.42 223.04L159.4 224.74C157.62 225.6 155.3 226.24 153.3 226.66C153.18 226.14 152.82 225.32 152.54 224.86C154.32 224.42 156.26 223.72 157.42 223.04ZM164.58 223.76H166.82V228.52C166.82 228.86 166.82 229.04 166.88 229.12C166.92 229.18 166.98 229.2 167.08 229.2C167.16 229.2 167.3 229.2 167.4 229.2C167.5 229.2 167.6 229.18 167.66 229.14C167.72 229.1 167.78 228.96 167.82 228.72C167.86 228.44 167.88 227.84 167.9 227.06C168.3 227.44 169.08 227.82 169.68 228.02C169.62 228.82 169.54 229.7 169.4 230.08C169.26 230.46 169.02 230.72 168.66 230.88C168.38 231.04 167.92 231.12 167.58 231.12C167.22 231.12 166.78 231.12 166.48 231.12C165.98 231.12 165.42 230.96 165.08 230.62C164.74 230.28 164.58 229.84 164.58 228.54V223.76Z" fill="#FF0000"/>
<path d="M141.26 264.023H137.578C136.328 262.559 135.4 261.051 134.795 259.502C134.196 257.952 133.896 256.257 133.896 254.414C133.896 252.572 134.196 250.876 134.795 249.326C135.4 247.777 136.328 246.27 137.578 244.805H141.26V245.088C140.732 245.563 140.228 246.104 139.746 246.709C139.271 247.308 138.828 248.011 138.418 248.818C138.027 249.593 137.708 250.452 137.461 251.396C137.22 252.34 137.1 253.346 137.1 254.414C137.1 255.527 137.217 256.536 137.451 257.441C137.692 258.346 138.014 259.202 138.418 260.01C138.809 260.778 139.248 261.475 139.736 262.1C140.231 262.731 140.739 263.278 141.26 263.74V264.023ZM155.195 260H145.488V257.461H148.555V249.775H145.488V247.402C145.957 247.402 146.406 247.376 146.836 247.324C147.266 247.266 147.624 247.168 147.91 247.031C148.249 246.868 148.503 246.657 148.672 246.396C148.841 246.136 148.939 245.811 148.965 245.42H152.197V257.461H155.195V260ZM166.094 254.414C166.094 256.257 165.791 257.952 165.186 259.502C164.587 261.051 163.662 262.559 162.412 264.023H158.73V263.74C159.251 263.278 159.759 262.734 160.254 262.109C160.749 261.484 161.188 260.785 161.572 260.01C161.976 259.202 162.295 258.346 162.529 257.441C162.77 256.536 162.891 255.527 162.891 254.414C162.891 253.346 162.767 252.34 162.52 251.396C162.279 250.452 161.963 249.593 161.572 248.818C161.162 248.011 160.716 247.308 160.234 246.709C159.759 246.104 159.258 245.563 158.73 245.088V244.805H162.412C163.662 246.27 164.587 247.777 165.186 249.326C165.791 250.876 166.094 252.572 166.094 254.414Z" fill="#FF0000"/>
<path d="M235 28C195 25 195 75 238 85" stroke="#FF0000" stroke-width="3" stroke-linecap="round" stroke-dasharray="10 5"/>
<path d="M240 98C200 95 200 145 243 155" stroke="#FF0000" stroke-width="3" stroke-linecap="round" stroke-dasharray="10 5"/>
<path d="M245 168C205 165 205 215 248 225" stroke="#FF0000" stroke-width="3" stroke-linecap="round" stroke-dasharray="10 5"/>
<path d="M245 238C205 235 205 285 248 295" stroke="#FF0000" stroke-width="3" stroke-linecap="round" stroke-dasharray="10 5"/>
<path d="M245 308C205 305 205 355 248 365" stroke="#FF0000" stroke-width="3" stroke-linecap="round" stroke-dasharray="10 5"/>
<path d="M245 378C205 375 205 473 428 458" stroke="#FF0000" stroke-width="3" stroke-linecap="round" stroke-dasharray="10 5"/>
<path d="M428 473C330 470 330 533 363 548" stroke="#FF0000" stroke-width="3" stroke-linecap="round"/>
<path d="M321.54 568.74H332.4V571H321.54V568.74ZM321.54 573.38H332.4V575.64H321.54V573.38ZM321.54 578H332.4V580.34H321.54V578ZM319.8 564.1H334.06V581.58H331.52V566.46H322.22V581.58H319.8V564.1ZM346.34 564.26H355.16V566.5H346.34V564.26ZM345.42 569.04H356.26V571.28H345.42V569.04ZM349.34 570.14H351.78V578.98C351.78 580.16 351.6 580.84 350.86 581.24C350.12 581.64 349.14 581.7 347.78 581.7C347.7 580.98 347.4 579.94 347.1 579.22C347.88 579.26 348.74 579.26 349 579.26C349.26 579.24 349.34 579.18 349.34 578.94V570.14ZM352.44 573.7L354.42 573.04C355.34 575.06 356.22 577.64 356.48 579.3L354.32 580.1C354.1 578.44 353.3 575.78 352.44 573.7ZM346.28 573.12L348.44 573.62C347.86 575.96 346.86 578.42 345.84 579.98C345.4 579.64 344.46 579.02 343.96 578.76C344.98 577.36 345.82 575.18 346.28 573.12ZM337.66 566.96H345.18V569.18H337.66V566.96ZM340.46 563.02H342.84V581.8H340.46V563.02ZM340.14 568.48L341.6 568.96C341.06 572.04 339.92 575.84 338.52 577.82C338.32 577.18 337.74 576.12 337.32 575.48C338.58 573.88 339.7 570.84 340.14 568.48ZM342.74 569.5C343.22 570 345.08 572.28 345.48 572.8L344.2 574.68C343.66 573.58 342.3 571.42 341.68 570.56L342.74 569.5Z" fill="#0000FF"/>
<path d="M331.5 591.08H333.86V601.74H331.5V591.08ZM326.84 591.06H329.18V594.02C329.18 596.7 328.94 599.64 326.6 601.9C326.08 601.44 325.04 600.82 324.32 600.52C326.58 598.56 326.84 596.18 326.84 593.98V591.06ZM331 583.58C332.12 585.84 334.36 588.08 336.68 589.22C336.16 589.68 335.42 590.54 335.06 591.12C332.62 589.68 330.36 587.08 328.98 584.3L331 583.58ZM329.26 582.82L331.74 583.2C330.76 586.36 329 589.36 325.74 591.58C325.44 591.02 324.74 590.08 324.22 589.68C327.08 587.88 328.6 585.26 329.26 582.82ZM318.4 583.8H323.86V586.04H320.74V601.84H318.4V583.8ZM323.14 583.8H323.6L323.94 583.72L325.64 584.72C324.98 586.4 324.14 588.32 323.4 589.82C325.04 591.4 325.36 592.82 325.36 594C325.36 595.32 325.02 596.2 324.28 596.7C323.92 596.96 323.48 597.08 322.98 597.16C322.54 597.22 321.96 597.22 321.42 597.2C321.4 596.6 321.18 595.66 320.82 595.02C321.26 595.08 321.64 595.08 321.94 595.06C322.2 595.06 322.46 595.02 322.64 594.9C322.96 594.72 323.1 594.32 323.1 593.74C323.08 592.78 322.66 591.5 321.1 590.12C321.84 588.38 322.72 585.8 323.14 584.5V583.8ZM346.26 591.86H353.6V594.02H346.26V591.86ZM340.28 587.98H345.38V590.2H340.28V587.98ZM340.28 591.84H345.56V594.06H340.28V591.84ZM348.34 583.76H352.86V585.84H348.34V583.76ZM353.26 591.86H353.7L354.12 591.78L355.66 592.34C354.24 597.66 350.72 600.48 345.94 601.86C345.7 601.22 345.12 600.24 344.68 599.72C348.94 598.74 352.18 596.24 353.26 592.22V591.86ZM349.06 593.8C350.3 596.72 352.88 598.8 356.64 599.64C356.08 600.12 355.4 601.12 355.06 601.78C351.02 600.62 348.48 598.1 346.96 594.36L349.06 593.8ZM339.1 584.36L341.38 585.04V601.76H339.1V584.36ZM337.44 596.66C339.66 596.42 342.96 596 346.06 595.58L346.14 597.78C343.24 598.22 340.12 598.68 337.82 599L337.44 596.66ZM347.3 583.76H349.5V586.68C349.5 588.54 349.08 590.72 346.88 592.02C346.56 591.58 345.68 590.72 345.22 590.42C347.1 589.36 347.3 587.94 347.3 586.62V583.76ZM344.42 583.04L346.4 584.74C344.62 585.6 342.3 586.24 340.3 586.66C340.18 586.14 339.82 585.32 339.54 584.86C341.32 584.42 343.26 583.72 344.42 583.04ZM351.58 583.76H353.82V588.52C353.82 588.86 353.82 589.04 353.88 589.12C353.92 589.18 353.98 589.2 354.08 589.2C354.16 589.2 354.3 589.2 354.4 589.2C354.5 589.2 354.6 589.18 354.66 589.14C354.72 589.1 354.78 588.96 354.82 588.72C354.86 588.44 354.88 587.84 354.9 587.06C355.3 587.44 356.08 587.82 356.68 588.02C356.62 588.82 356.54 589.7 356.4 590.08C356.26 590.46 356.02 590.72 355.66 590.88C355.38 591.04 354.92 591.12 354.58 591.12C354.22 591.12 353.78 591.12 353.48 591.12C352.98 591.12 352.42 590.96 352.08 590.62C351.74 590.28 351.58 589.84 351.58 588.54V583.76Z" fill="#0000FF"/>
<path d="M328.26 624.023H324.578C323.328 622.559 322.4 621.051 321.795 619.502C321.196 617.952 320.896 616.257 320.896 614.414C320.896 612.572 321.196 610.876 321.795 609.326C322.4 607.777 323.328 606.27 324.578 604.805H328.26V605.088C327.732 605.563 327.228 606.104 326.746 606.709C326.271 607.308 325.828 608.011 325.418 608.818C325.027 609.593 324.708 610.452 324.461 611.396C324.22 612.34 324.1 613.346 324.1 614.414C324.1 615.527 324.217 616.536 324.451 617.441C324.692 618.346 325.014 619.202 325.418 620.01C325.809 620.778 326.248 621.475 326.736 622.1C327.231 622.731 327.739 623.278 328.26 623.74V624.023ZM343.113 620H331.697V617.598C332.57 616.966 333.442 616.296 334.314 615.586C335.193 614.876 335.896 614.264 336.424 613.75C337.212 612.988 337.771 612.324 338.104 611.758C338.436 611.191 338.602 610.632 338.602 610.078C338.602 609.414 338.387 608.903 337.957 608.545C337.534 608.18 336.922 607.998 336.121 607.998C335.522 607.998 334.891 608.122 334.227 608.369C333.569 608.617 332.957 608.932 332.391 609.316H332.078V606.084C332.54 605.882 333.221 605.68 334.119 605.479C335.024 605.277 335.929 605.176 336.834 605.176C338.657 605.176 340.047 605.56 341.004 606.328C341.961 607.09 342.439 608.171 342.439 609.57C342.439 610.488 342.208 611.361 341.746 612.188C341.29 613.014 340.59 613.867 339.646 614.746C339.054 615.293 338.458 615.798 337.859 616.26C337.26 616.715 336.834 617.035 336.58 617.217H343.113V620ZM353.094 614.414C353.094 616.257 352.791 617.952 352.186 619.502C351.587 621.051 350.662 622.559 349.412 624.023H345.73V623.74C346.251 623.278 346.759 622.734 347.254 622.109C347.749 621.484 348.188 620.785 348.572 620.01C348.976 619.202 349.295 618.346 349.529 617.441C349.77 616.536 349.891 615.527 349.891 614.414C349.891 613.346 349.767 612.34 349.52 611.396C349.279 610.452 348.963 609.593 348.572 608.818C348.162 608.011 347.716 607.308 347.234 606.709C346.759 606.104 346.258 605.563 345.73 605.088V604.805H349.412C350.662 606.27 351.587 607.777 352.186 609.326C352.791 610.876 353.094 612.572 353.094 614.414Z" fill="#0000FF"/>
<path d="M475 540H385C382.239 540 380 542.239 380 545V575C380 577.761 382.239 580 385 580H475C477.761 580 480 577.761 480 575V545C480 542.239 477.761 540 475 540Z" stroke="black" stroke-width="5"/>
<path d="M473.76 311.84H486.32V321.76H483.9V313.54H476.08V321.78H473.76V311.84ZM475.08 314.44H484.86V316.04H475.08V314.44ZM475.08 316.96H484.86V318.54H475.08V316.96ZM475.08 319.5H484.86V321.22H475.08V319.5ZM474.7 308.24V309.24H485.3V308.24H474.7ZM474.7 305.7V306.7H485.3V305.7H474.7ZM472.38 304.02H487.72V310.94H472.38V304.02ZM498.98 302.98L501.36 303.6C500.42 306.3 498.86 308.94 497.28 310.6C496.82 310.18 495.8 309.46 495.24 309.12C496.84 307.7 498.22 305.36 498.98 302.98ZM506.18 305.4H508.58C508.58 305.4 508.58 306.1 508.56 306.4C508.4 312.82 508.26 315.3 507.74 316.06C507.36 316.62 507 316.82 506.46 316.94C505.98 317.06 505.26 317.08 504.46 317.06C504.4 316.32 504.18 315.32 503.86 314.68C504.36 314.74 504.78 314.74 505.04 314.74C505.3 314.76 505.44 314.68 505.6 314.42C505.9 313.94 506.04 311.96 506.18 305.88V305.4ZM498.62 313.42H501.84V311.26H497.72V309.18H504.2V315.52H498.62V313.42ZM497.54 313.42H499.92V318.6C499.92 319.36 500.16 319.5 501.52 319.5C502.14 319.5 504.78 319.5 505.56 319.5C506.72 319.5 506.92 319.14 507.06 316.94C507.58 317.34 508.62 317.7 509.28 317.84C508.96 320.92 508.26 321.72 505.72 321.72C505.06 321.72 501.96 321.72 501.34 321.72C498.42 321.72 497.54 321.06 497.54 318.62V313.42ZM491.58 304.88L492.9 303.08C494.1 303.54 495.66 304.36 496.44 305L495.04 307C494.32 306.3 492.78 305.4 491.58 304.88ZM490.54 310.3L491.86 308.48C493.04 308.9 494.6 309.68 495.38 310.3L493.98 312.3C493.26 311.66 491.76 310.8 490.54 310.3ZM491.06 320.14C492 318.6 493.32 316.06 494.34 313.7L496.24 315.12C495.34 317.28 494.24 319.62 493.2 321.58L491.06 320.14ZM498.82 305.4H507.1V307.64H498.82V305.4Z" fill="#008000"/>
<path d="M484.5 331.08H486.86V341.74H484.5V331.08ZM479.84 331.06H482.18V334.02C482.18 336.7 481.94 339.64 479.6 341.9C479.08 341.44 478.04 340.82 477.32 340.52C479.58 338.56 479.84 336.18 479.84 333.98V331.06ZM484 323.58C485.12 325.84 487.36 328.08 489.68 329.22C489.16 329.68 488.42 330.54 488.06 331.12C485.62 329.68 483.36 327.08 481.98 324.3L484 323.58ZM482.26 322.82L484.74 323.2C483.76 326.36 482 329.36 478.74 331.58C478.44 331.02 477.74 330.08 477.22 329.68C480.08 327.88 481.6 325.26 482.26 322.82ZM471.4 323.8H476.86V326.04H473.74V341.84H471.4V323.8ZM476.14 323.8H476.6L476.94 323.72L478.64 324.72C477.98 326.4 477.14 328.32 476.4 329.82C478.04 331.4 478.36 332.82 478.36 334C478.36 335.32 478.02 336.2 477.28 336.7C476.92 336.96 476.48 337.08 475.98 337.16C475.54 337.22 474.96 337.22 474.42 337.2C474.4 336.6 474.18 335.66 473.82 335.02C474.26 335.08 474.64 335.08 474.94 335.06C475.2 335.06 475.46 335.02 475.64 334.9C475.96 334.72 476.1 334.32 476.1 333.74C476.08 332.78 475.66 331.5 474.1 330.12C474.84 328.38 475.72 325.8 476.14 324.5V323.8ZM499.26 331.86H506.6V334.02H499.26V331.86ZM493.28 327.98H498.38V330.2H493.28V327.98ZM493.28 331.84H498.56V334.06H493.28V331.84ZM501.34 323.76H505.86V325.84H501.34V323.76ZM506.26 331.86H506.7L507.12 331.78L508.66 332.34C507.24 337.66 503.72 340.48 498.94 341.86C498.7 341.22 498.12 340.24 497.68 339.72C501.94 338.74 505.18 336.24 506.26 332.22V331.86ZM502.06 333.8C503.3 336.72 505.88 338.8 509.64 339.64C509.08 340.12 508.4 341.12 508.06 341.78C504.02 340.62 501.48 338.1 499.96 334.36L502.06 333.8ZM492.1 324.36L494.38 325.04V341.76H492.1V324.36ZM490.44 336.66C492.66 336.42 495.96 336 499.06 335.58L499.14 337.78C496.24 338.22 493.12 338.68 490.82 339L490.44 336.66ZM500.3 323.76H502.5V326.68C502.5 328.54 502.08 330.72 499.88 332.02C499.56 331.58 498.68 330.72 498.22 330.42C500.1 329.36 500.3 327.94 500.3 326.62V323.76ZM497.42 323.04L499.4 324.74C497.62 325.6 495.3 326.24 493.3 326.66C493.18 326.14 492.82 325.32 492.54 324.86C494.32 324.42 496.26 323.72 497.42 323.04ZM504.58 323.76H506.82V328.52C506.82 328.86 506.82 329.04 506.88 329.12C506.92 329.18 506.98 329.2 507.08 329.2C507.16 329.2 507.3 329.2 507.4 329.2C507.5 329.2 507.6 329.18 507.66 329.14C507.72 329.1 507.78 328.96 507.82 328.72C507.86 328.44 507.88 327.84 507.9 327.06C508.3 327.44 509.08 327.82 509.68 328.02C509.62 328.82 509.54 329.7 509.4 330.08C509.26 330.46 509.02 330.72 508.66 330.88C508.38 331.04 507.92 331.12 507.58 331.12C507.22 331.12 506.78 331.12 506.48 331.12C505.98 331.12 505.42 330.96 505.08 330.62C504.74 330.28 504.58 329.84 504.58 328.54V323.76Z" fill="#008000"/>
<path d="M481.26 364.023H477.578C476.328 362.559 475.4 361.051 474.795 359.502C474.196 357.952 473.896 356.257 473.896 354.414C473.896 352.572 474.196 350.876 474.795 349.326C475.4 347.777 476.328 346.27 477.578 344.805H481.26V345.088C480.732 345.563 480.228 346.104 479.746 346.709C479.271 347.308 478.828 348.011 478.418 348.818C478.027 349.593 477.708 350.452 477.461 351.396C477.22 352.34 477.1 353.346 477.1 354.414C477.1 355.527 477.217 356.536 477.451 357.441C477.692 358.346 478.014 359.202 478.418 360.01C478.809 360.778 479.248 361.475 479.736 362.1C480.231 362.731 480.739 363.278 481.26 363.74V364.023ZM494.688 353.184C495.007 353.457 495.26 353.776 495.449 354.141C495.638 354.505 495.732 354.99 495.732 355.596C495.732 356.279 495.596 356.917 495.322 357.51C495.055 358.102 494.642 358.61 494.082 359.033C493.535 359.443 492.891 359.759 492.148 359.98C491.413 360.195 490.518 360.303 489.463 360.303C488.258 360.303 487.223 360.208 486.357 360.02C485.498 359.831 484.798 359.619 484.258 359.385V356.191H484.639C485.199 356.53 485.866 356.823 486.641 357.07C487.422 357.318 488.135 357.441 488.779 357.441C489.157 357.441 489.567 357.412 490.01 357.354C490.452 357.288 490.827 357.152 491.133 356.943C491.374 356.781 491.566 356.585 491.709 356.357C491.852 356.123 491.924 355.788 491.924 355.352C491.924 354.928 491.826 354.603 491.631 354.375C491.436 354.141 491.178 353.975 490.859 353.877C490.54 353.773 490.156 353.717 489.707 353.711C489.258 353.698 488.841 353.691 488.457 353.691H487.656V351.094H488.486C488.994 351.094 489.443 351.077 489.834 351.045C490.225 351.012 490.557 350.938 490.83 350.82C491.117 350.697 491.331 350.534 491.475 350.332C491.618 350.124 491.689 349.821 491.689 349.424C491.689 349.131 491.615 348.896 491.465 348.721C491.315 348.538 491.126 348.395 490.898 348.291C490.645 348.174 490.345 348.096 490 348.057C489.655 348.018 489.359 347.998 489.111 347.998C488.499 347.998 487.835 348.105 487.119 348.32C486.403 348.529 485.71 348.831 485.039 349.229H484.678V346.074C485.212 345.859 485.938 345.654 486.855 345.459C487.773 345.257 488.704 345.156 489.648 345.156C490.566 345.156 491.37 345.238 492.061 345.4C492.751 345.557 493.32 345.768 493.77 346.035C494.303 346.354 494.701 346.742 494.961 347.197C495.221 347.653 495.352 348.187 495.352 348.799C495.352 349.606 495.101 350.329 494.6 350.967C494.098 351.598 493.438 352.002 492.617 352.178V352.314C492.949 352.36 493.301 352.451 493.672 352.588C494.043 352.725 494.382 352.923 494.688 353.184ZM506.094 354.414C506.094 356.257 505.791 357.952 505.186 359.502C504.587 361.051 503.662 362.559 502.412 364.023H498.73V363.74C499.251 363.278 499.759 362.734 500.254 362.109C500.749 361.484 501.188 360.785 501.572 360.01C501.976 359.202 502.295 358.346 502.529 357.441C502.77 356.536 502.891 355.527 502.891 354.414C502.891 353.346 502.767 352.34 502.52 351.396C502.279 350.452 501.963 349.593 501.572 348.818C501.162 348.011 500.716 347.308 500.234 346.709C499.759 346.104 499.258 345.563 498.73 345.088V344.805H502.412C503.662 346.27 504.587 347.777 505.186 349.326C505.791 350.876 506.094 352.572 506.094 354.414Z" fill="#008000"/>
<path d="M492 548C630 483 630 470 562 473" stroke="#008000" stroke-width="3" stroke-linecap="round"/>
<path d="M565 457C605 447 605 398 377 388" stroke="#008000" stroke-width="3" stroke-linecap="round" stroke-dasharray="10 5"/>
<path d="M375 375C415 372 415 332 375 322" stroke="#008000" stroke-width="3" stroke-linecap="round" stroke-dasharray="10 5"/>
<path d="M375 298C415 295 415 255 375 245" stroke="#008000" stroke-width="3" stroke-linecap="round" stroke-dasharray="10 5"/>
<path d="M374 233C414 230 414 190 374 180" stroke="#008000" stroke-width="3" stroke-linecap="round" stroke-dasharray="10 5"/>
<path d="M375 165C425 162 425 122 385 112" stroke="#008000" stroke-width="3" stroke-linecap="round" stroke-dasharray="10 5"/>
<path d="M385 95C435 92 435 52 395 42" stroke="#008000" stroke-width="3" stroke-linecap="round" stroke-dasharray="10 5"/>
<path d="M310 80L315.774 70H304.226L310 80ZM309 50V71H311V50H309Z" fill="black"/>
<path d="M310 149L315.774 139H304.226L310 149ZM309 119V140H311V119H309Z" fill="black"/>
<path d="M310 219L315.774 209H304.226L310 219ZM309 189V210H311V189H309Z" fill="black"/>
<path d="M310 289L315.774 279H304.226L310 289ZM309 259V280H311V259H309Z" fill="black"/>
<path d="M310 359L315.774 349H304.226L310 359ZM309 329V350H311V329H309Z" fill="black"/>
<path d="M140 449L145.774 439H134.226L140 449ZM139 439V440H141V439H139Z" fill="black"/>
<path d="M500 449L505.774 439H494.226L500 449ZM499 439V440H501V439H499Z" fill="black"/>
<path d="M430 538L435.774 528H424.226L430 538ZM429 528V529H431V528H429Z" fill="black"/>
<path d="M210 539L215.774 529H204.226L210 539ZM209 529V530H211V529H209Z" fill="black"/>
<path d="M70 539L75.7735 529H64.2265L70 539ZM69 529V530H71V529H69Z" fill="black"/>
<path d="M570 539L575.774 529H564.226L570 539ZM569 529V530H571V529H569Z" fill="black"/>
<path d="M570 609L575.774 599H564.226L570 609ZM569 599V600H571V599H569Z" fill="black"/>
<path d="M430 609L435.774 599H424.226L430 609ZM429 599V600H431V599H429Z" fill="black"/>
<path d="M210 609L215.774 599H204.226L210 609ZM209 599V600H211V599H209Z" fill="black"/>
<path d="M70 609L75.7735 599H64.2265L70 609ZM69 599V600H71V599H69Z" fill="black"/>
<path d="M247.391 87.7805L231.613 70.9169L224.898 93.013L247.391 87.7805ZM227.674 83.8785L229.587 84.4601L230.75 80.6329L228.837 80.0514L227.674 83.8785Z" fill="#FF0000"/>
<path d="M385 39L400.898 55.7509L407.456 33.6075L385 39ZM404.745 42.7615L402.827 42.1936L401.691 46.0289L403.609 46.5969L404.745 42.7615Z" fill="#008000"/>
<path d="M375 110L390.898 126.751L397.456 104.608L375 110ZM394.745 113.762L392.827 113.194L391.691 117.029L393.609 117.597L394.745 113.762Z" fill="#008000"/>
<path d="M364 176L379.898 192.751L386.456 170.608L364 176ZM383.745 179.762L381.827 179.194L380.691 183.029L382.609 183.597L383.745 179.762Z" fill="#008000"/>
<path d="M366 242L381.898 258.751L388.456 236.608L366 242ZM385.745 245.762L383.827 245.194L382.691 249.029L384.609 249.597L385.745 245.762Z" fill="#008000"/>
<path d="M366 320L381.898 336.751L388.456 314.608L366 320ZM385.745 323.762L383.827 323.194L382.691 327.029L384.609 327.597L385.745 323.762Z" fill="#008000"/>
<path d="M368.592 387.572L388.275 399.651L388.894 376.565L368.592 387.572ZM388.638 386.108L386.639 386.055L386.532 390.053L388.531 390.107L388.638 386.108Z" fill="#008000"/>
<path d="M551 472L570.683 484.079L571.302 460.993L551 472ZM571.046 470.537L569.047 470.483L568.94 474.482L570.939 474.535L571.046 470.537Z" fill="#008000"/>
<path d="M253.136 157.816L237.358 140.952L230.642 163.048L253.136 157.816ZM233.418 153.914L235.332 154.495L236.495 150.668L234.582 150.086L233.418 153.914Z" fill="#FF0000"/>
<path d="M257.136 227.816L241.358 210.952L234.642 233.048L257.136 227.816ZM237.418 223.914L239.332 224.495L240.495 220.668L238.582 220.086L237.418 223.914Z" fill="#FF0000"/>
<path d="M257.136 297.816L241.358 280.952L234.642 303.048L257.136 297.816ZM237.418 293.914L239.332 294.495L240.495 290.668L238.582 290.086L237.418 293.914Z" fill="#FF0000"/>
<path d="M256.136 367.816L240.358 350.952L233.642 373.048L256.136 367.816ZM236.418 363.914L238.332 364.495L239.495 360.668L237.582 360.086L236.418 363.914Z" fill="#FF0000"/>
<path d="M438.568 457.908L418.568 446.361V469.455L438.568 457.908ZM418.568 459.908H420.568V455.908H418.568V459.908Z" fill="#FF0000"/>
<path d="M376.289 556.055L364.805 536.018L353.195 555.982L376.289 556.055ZM357.995 547.729L359.723 548.734L361.734 545.277L360.005 544.271L357.995 547.729Z" fill="#FF0000"/>
</g>
<defs>
<filter id="filter0_d_0_1" x="235" y="9" width="150" height="50" filterUnits="userSpaceOnUse" color-interpolation-filters="sRGB">
<feFlood flood-opacity="0" result="BackgroundImageFix"/>
<feColorMatrix in="SourceAlpha" type="matrix" values="0 0 0 0 0 0 0 0 0 0 0 0 0 0 0 0 0 0 127 0" result="hardAlpha"/>
<feOffset dy="4"/>
<feGaussianBlur stdDeviation="2"/>
<feComposite in2="hardAlpha" operator="out"/>
<feColorMatrix type="matrix" values="0 0 0 0 0 0 0 0 0 0 0 0 0 0 0 0 0 0 0.25 0"/>
<feBlend mode="normal" in2="BackgroundImageFix" result="effect1_dropShadow_0_1"/>
<feBlend mode="normal" in="SourceGraphic" in2="effect1_dropShadow_0_1" result="shape"/>
</filter>
<filter id="filter1_d_0_1" x="245" y="79" width="130" height="50" filterUnits="userSpaceOnUse" color-interpolation-filters="sRGB">
<feFlood flood-opacity="0" result="BackgroundImageFix"/>
<feColorMatrix in="SourceAlpha" type="matrix" values="0 0 0 0 0 0 0 0 0 0 0 0 0 0 0 0 0 0 127 0" result="hardAlpha"/>
<feOffset dy="4"/>
<feGaussianBlur stdDeviation="2"/>
<feComposite in2="hardAlpha" operator="out"/>
<feColorMatrix type="matrix" values="0 0 0 0 0 0 0 0 0 0 0 0 0 0 0 0 0 0 0.25 0"/>
<feBlend mode="normal" in2="BackgroundImageFix" result="effect1_dropShadow_0_1"/>
<feBlend mode="normal" in="SourceGraphic" in2="effect1_dropShadow_0_1" result="shape"/>
</filter>
<filter id="filter2_d_0_1" x="255" y="149" width="110" height="50" filterUnits="userSpaceOnUse" color-interpolation-filters="sRGB">
<feFlood flood-opacity="0" result="BackgroundImageFix"/>
<feColorMatrix in="SourceAlpha" type="matrix" values="0 0 0 0 0 0 0 0 0 0 0 0 0 0 0 0 0 0 127 0" result="hardAlpha"/>
<feOffset dy="4"/>
<feGaussianBlur stdDeviation="2"/>
<feComposite in2="hardAlpha" operator="out"/>
<feColorMatrix type="matrix" values="0 0 0 0 0 0 0 0 0 0 0 0 0 0 0 0 0 0 0.25 0"/>
<feBlend mode="normal" in2="BackgroundImageFix" result="effect1_dropShadow_0_1"/>
<feBlend mode="normal" in="SourceGraphic" in2="effect1_dropShadow_0_1" result="shape"/>
</filter>
<filter id="filter3_d_0_1" x="255" y="219" width="110" height="50" filterUnits="userSpaceOnUse" color-interpolation-filters="sRGB">
<feFlood flood-opacity="0" result="BackgroundImageFix"/>
<feColorMatrix in="SourceAlpha" type="matrix" values="0 0 0 0 0 0 0 0 0 0 0 0 0 0 0 0 0 0 127 0" result="hardAlpha"/>
<feOffset dy="4"/>
<feGaussianBlur stdDeviation="2"/>
<feComposite in2="hardAlpha" operator="out"/>
<feColorMatrix type="matrix" values="0 0 0 0 0 0 0 0 0 0 0 0 0 0 0 0 0 0 0.25 0"/>
<feBlend mode="normal" in2="BackgroundImageFix" result="effect1_dropShadow_0_1"/>
<feBlend mode="normal" in="SourceGraphic" in2="effect1_dropShadow_0_1" result="shape"/>
</filter>
<filter id="filter4_d_0_1" x="255" y="289" width="110" height="50" filterUnits="userSpaceOnUse" color-interpolation-filters="sRGB">
<feFlood flood-opacity="0" result="BackgroundImageFix"/>
<feColorMatrix in="SourceAlpha" type="matrix" values="0 0 0 0 0 0 0 0 0 0 0 0 0 0 0 0 0 0 127 0" result="hardAlpha"/>
<feOffset dy="4"/>
<feGaussianBlur stdDeviation="2"/>
<feComposite in2="hardAlpha" operator="out"/>
<feColorMatrix type="matrix" values="0 0 0 0 0 0 0 0 0 0 0 0 0 0 0 0 0 0 0.25 0"/>
<feBlend mode="normal" in2="BackgroundImageFix" result="effect1_dropShadow_0_1"/>
<feBlend mode="normal" in="SourceGraphic" in2="effect1_dropShadow_0_1" result="shape"/>
</filter>
<filter id="filter5_d_0_1" x="255" y="359" width="110" height="50" filterUnits="userSpaceOnUse" color-interpolation-filters="sRGB">
<feFlood flood-opacity="0" result="BackgroundImageFix"/>
<feColorMatrix in="SourceAlpha" type="matrix" values="0 0 0 0 0 0 0 0 0 0 0 0 0 0 0 0 0 0 127 0" result="hardAlpha"/>
<feOffset dy="4"/>
<feGaussianBlur stdDeviation="2"/>
<feComposite in2="hardAlpha" operator="out"/>
<feColorMatrix type="matrix" values="0 0 0 0 0 0 0 0 0 0 0 0 0 0 0 0 0 0 0.25 0"/>
<feBlend mode="normal" in2="BackgroundImageFix" result="effect1_dropShadow_0_1"/>
<feBlend mode="normal" in="SourceGraphic" in2="effect1_dropShadow_0_1" result="shape"/>
</filter>
<filter id="filter6_d_0_1" x="85" y="449" width="110" height="50" filterUnits="userSpaceOnUse" color-interpolation-filters="sRGB">
<feFlood flood-opacity="0" result="BackgroundImageFix"/>
<feColorMatrix in="SourceAlpha" type="matrix" values="0 0 0 0 0 0 0 0 0 0 0 0 0 0 0 0 0 0 127 0" result="hardAlpha"/>
<feOffset dy="4"/>
<feGaussianBlur stdDeviation="2"/>
<feComposite in2="hardAlpha" operator="out"/>
<feColorMatrix type="matrix" values="0 0 0 0 0 0 0 0 0 0 0 0 0 0 0 0 0 0 0.25 0"/>
<feBlend mode="normal" in2="BackgroundImageFix" result="effect1_dropShadow_0_1"/>
<feBlend mode="normal" in="SourceGraphic" in2="effect1_dropShadow_0_1" result="shape"/>
</filter>
<filter id="filter7_d_0_1" x="445" y="449" width="110" height="50" filterUnits="userSpaceOnUse" color-interpolation-filters="sRGB">
<feFlood flood-opacity="0" result="BackgroundImageFix"/>
<feColorMatrix in="SourceAlpha" type="matrix" values="0 0 0 0 0 0 0 0 0 0 0 0 0 0 0 0 0 0 127 0" result="hardAlpha"/>
<feOffset dy="4"/>
<feGaussianBlur stdDeviation="2"/>
<feComposite in2="hardAlpha" operator="out"/>
<feColorMatrix type="matrix" values="0 0 0 0 0 0 0 0 0 0 0 0 0 0 0 0 0 0 0.25 0"/>
<feBlend mode="normal" in2="BackgroundImageFix" result="effect1_dropShadow_0_1"/>
<feBlend mode="normal" in="SourceGraphic" in2="effect1_dropShadow_0_1" result="shape"/>
</filter>
<filter id="filter8_d_0_1" x="15" y="539" width="110" height="50" filterUnits="userSpaceOnUse" color-interpolation-filters="sRGB">
<feFlood flood-opacity="0" result="BackgroundImageFix"/>
<feColorMatrix in="SourceAlpha" type="matrix" values="0 0 0 0 0 0 0 0 0 0 0 0 0 0 0 0 0 0 127 0" result="hardAlpha"/>
<feOffset dy="4"/>
<feGaussianBlur stdDeviation="2"/>
<feComposite in2="hardAlpha" operator="out"/>
<feColorMatrix type="matrix" values="0 0 0 0 0 0 0 0 0 0 0 0 0 0 0 0 0 0 0.25 0"/>
<feBlend mode="normal" in2="BackgroundImageFix" result="effect1_dropShadow_0_1"/>
<feBlend mode="normal" in="SourceGraphic" in2="effect1_dropShadow_0_1" result="shape"/>
</filter>
<filter id="filter9_d_0_1" x="1" y="609" width="138" height="80" filterUnits="userSpaceOnUse" color-interpolation-filters="sRGB">
<feFlood flood-opacity="0" result="BackgroundImageFix"/>
<feColorMatrix in="SourceAlpha" type="matrix" values="0 0 0 0 0 0 0 0 0 0 0 0 0 0 0 0 0 0 127 0" result="hardAlpha"/>
<feOffset dy="4"/>
<feGaussianBlur stdDeviation="2"/>
<feComposite in2="hardAlpha" operator="out"/>
<feColorMatrix type="matrix" values="0 0 0 0 0 0 0 0 0 0 0 0 0 0 0 0 0 0 0.25 0"/>
<feBlend mode="normal" in2="BackgroundImageFix" result="effect1_dropShadow_0_1"/>
<feBlend mode="normal" in="SourceGraphic" in2="effect1_dropShadow_0_1" result="shape"/>
</filter>
<filter id="filter10_d_0_1" x="155" y="539" width="110" height="50" filterUnits="userSpaceOnUse" color-interpolation-filters="sRGB">
<feFlood flood-opacity="0" result="BackgroundImageFix"/>
<feColorMatrix in="SourceAlpha" type="matrix" values="0 0 0 0 0 0 0 0 0 0 0 0 0 0 0 0 0 0 127 0" result="hardAlpha"/>
<feOffset dy="4"/>
<feGaussianBlur stdDeviation="2"/>
<feComposite in2="hardAlpha" operator="out"/>
<feColorMatrix type="matrix" values="0 0 0 0 0 0 0 0 0 0 0 0 0 0 0 0 0 0 0.25 0"/>
<feBlend mode="normal" in2="BackgroundImageFix" result="effect1_dropShadow_0_1"/>
<feBlend mode="normal" in="SourceGraphic" in2="effect1_dropShadow_0_1" result="shape"/>
</filter>
<filter id="filter11_d_0_1" x="141" y="609" width="138" height="80" filterUnits="userSpaceOnUse" color-interpolation-filters="sRGB">
<feFlood flood-opacity="0" result="BackgroundImageFix"/>
<feColorMatrix in="SourceAlpha" type="matrix" values="0 0 0 0 0 0 0 0 0 0 0 0 0 0 0 0 0 0 127 0" result="hardAlpha"/>
<feOffset dy="4"/>
<feGaussianBlur stdDeviation="2"/>
<feComposite in2="hardAlpha" operator="out"/>
<feColorMatrix type="matrix" values="0 0 0 0 0 0 0 0 0 0 0 0 0 0 0 0 0 0 0.25 0"/>
<feBlend mode="normal" in2="BackgroundImageFix" result="effect1_dropShadow_0_1"/>
<feBlend mode="normal" in="SourceGraphic" in2="effect1_dropShadow_0_1" result="shape"/>
</filter>
<filter id="filter12_d_0_1" x="375" y="539" width="110" height="50" filterUnits="userSpaceOnUse" color-interpolation-filters="sRGB">
<feFlood flood-opacity="0" result="BackgroundImageFix"/>
<feColorMatrix in="SourceAlpha" type="matrix" values="0 0 0 0 0 0 0 0 0 0 0 0 0 0 0 0 0 0 127 0" result="hardAlpha"/>
<feOffset dy="4"/>
<feGaussianBlur stdDeviation="2"/>
<feComposite in2="hardAlpha" operator="out"/>
<feColorMatrix type="matrix" values="0 0 0 0 0 0 0 0 0 0 0 0 0 0 0 0 0 0 0.25 0"/>
<feBlend mode="normal" in2="BackgroundImageFix" result="effect1_dropShadow_0_1"/>
<feBlend mode="normal" in="SourceGraphic" in2="effect1_dropShadow_0_1" result="shape"/>
</filter>
<filter id="filter13_d_0_1" x="361" y="609" width="138" height="80" filterUnits="userSpaceOnUse" color-interpolation-filters="sRGB">
<feFlood flood-opacity="0" result="BackgroundImageFix"/>
<feColorMatrix in="SourceAlpha" type="matrix" values="0 0 0 0 0 0 0 0 0 0 0 0 0 0 0 0 0 0 127 0" result="hardAlpha"/>
<feOffset dy="4"/>
<feGaussianBlur stdDeviation="2"/>
<feComposite in2="hardAlpha" operator="out"/>
<feColorMatrix type="matrix" values="0 0 0 0 0 0 0 0 0 0 0 0 0 0 0 0 0 0 0.25 0"/>
<feBlend mode="normal" in2="BackgroundImageFix" result="effect1_dropShadow_0_1"/>
<feBlend mode="normal" in="SourceGraphic" in2="effect1_dropShadow_0_1" result="shape"/>
</filter>
<filter id="filter14_d_0_1" x="515" y="539" width="110" height="50" filterUnits="userSpaceOnUse" color-interpolation-filters="sRGB">
<feFlood flood-opacity="0" result="BackgroundImageFix"/>
<feColorMatrix in="SourceAlpha" type="matrix" values="0 0 0 0 0 0 0 0 0 0 0 0 0 0 0 0 0 0 127 0" result="hardAlpha"/>
<feOffset dy="4"/>
<feGaussianBlur stdDeviation="2"/>
<feComposite in2="hardAlpha" operator="out"/>
<feColorMatrix type="matrix" values="0 0 0 0 0 0 0 0 0 0 0 0 0 0 0 0 0 0 0.25 0"/>
<feBlend mode="normal" in2="BackgroundImageFix" result="effect1_dropShadow_0_1"/>
<feBlend mode="normal" in="SourceGraphic" in2="effect1_dropShadow_0_1" result="shape"/>
</filter>
<filter id="filter15_d_0_1" x="501" y="609" width="138" height="80" filterUnits="userSpaceOnUse" color-interpolation-filters="sRGB">
<feFlood flood-opacity="0" result="BackgroundImageFix"/>
<feColorMatrix in="SourceAlpha" type="matrix" values="0 0 0 0 0 0 0 0 0 0 0 0 0 0 0 0 0 0 127 0" result="hardAlpha"/>
<feOffset dy="4"/>
<feGaussianBlur stdDeviation="2"/>
<feComposite in2="hardAlpha" operator="out"/>
<feColorMatrix type="matrix" values="0 0 0 0 0 0 0 0 0 0 0 0 0 0 0 0 0 0 0.25 0"/>
<feBlend mode="normal" in2="BackgroundImageFix" result="effect1_dropShadow_0_1"/>
<feBlend mode="normal" in="SourceGraphic" in2="effect1_dropShadow_0_1" result="shape"/>
</filter>
<clipPath id="clip0_0_1">
<rect width="640" height="690" fill="white"/>
</clipPath>
</defs>
</svg>
